<?xml version="1.0" encoding="utf-8"?>
<svg viewBox="0 0 72 72" xmlns="http://www.w3.org/2000/svg">
  <g transform="matrix(0.200286030769, 0.867536127567, -0.867536127567, 0.200286030769, 10.189601372581, -0.646399707932)" style="transform-origin: 36px 36px;">
    <g id="g-1">
      <path fill="#FFFFFF" stroke="none" d="M26,27h-7c-7.7334,0-14,6.2666-14,14s6.2666,14,14,14h29c10.4951,0,19-8.5049,19-19s-8.5049-19-19-19 c-5.6934,0-10.79,2.5137-14.2695,6.4805C31.8965,25.6514,29.0645,27,26,27z" style="stroke-width: 2.24629px;"/>
      <path fill="#ea5a47" stroke="none" d="M29,31c2.5,0,4.5029-1.4141,6.8164-3.7266C39.2695,23.8213,42.9746,21,48,21c8.2842,0,15,6.7158,15,15 s-6.7158,15-15,15H19c-5.5234,0-10-4.4775-10-10s4.4766-10,10-10l0.0313-0.9756l10.0312-0.0312L29,31z" style="stroke-width: 2.24629px;"/>
      <circle cx="48" cy="36" r="5" fill="#FFFFFF" stroke="none" style="stroke-width: 2.24629px;"/>
    </g>
    <g id="g-2">
      <path fill="none" stroke="#000000" stroke-linecap="round" stroke-linejoin="round" stroke-miterlimit="10" d="M29,31c2.5,0,4.5029-1.4141,6.8164-3.7266C39.2695,23.8213,42.9746,21,48,21c8.2842,0,15,6.7158,15,15s-6.7158,15-15,15H19 c-5.5234,0-10-4.4775-10-10s4.4766-10,10-10" style="stroke-width: 2.24629px;"/>
      <path fill="none" stroke="#000000" stroke-linecap="round" stroke-linejoin="round" stroke-miterlimit="10" d="M26,27h-7c-7.7334,0-14,6.2666-14,14s6.2666,14,14,14h29c10.4951,0,19-8.5049,19-19s-8.5049-19-19-19 c-5.6934,0-10.79,2.5137-14.2695,6.4805C31.8965,25.6514,29.0645,27,26,27z" style="stroke-width: 2.24629px;"/>
      <circle cx="48" cy="36" r="5" fill="none" stroke="#000000" stroke-linecap="round" stroke-linejoin="round" stroke-miterlimit="10" style="stroke-width: 2.24629px;"/>
    </g>
  </g>
  <g transform="matrix(0.753225028515, 0.173896059394, 0.173896059394, -0.753225028515, -19.388642848871, 6.587878073448)" style="transform-origin: 35.9933px 35.2358px;">
    <g id="g-5">
      <path fill="#FFFFFF" stroke="none" d="M33.4932,61c1.0449,0,1.9629-0.5352,2.5-1.3457C36.5303,60.4648,37.4482,61,38.4922,61 c1.6572,0,3.001-1.3437,3.001-2.999c0-1.6572-1.3438-3.001-3-3.001v-6h-5v6c-1.6573,0-3.001,1.3438-3,3 C30.4932,59.6582,31.8359,61,33.4932,61z" style="stroke-width: 2.58719px;"/>
      <path fill="#f4aa41" stroke="none" d="M40.877,12.7861c-0.7774-1.9394-2.667-3.3144-4.8838-3.3144s-4.1065,1.375-4.8838,3.3144 C24.6924,21.0107,24.3203,32.4092,29.9932,41c0,2.291,0,4.3369,0,5c0,1.6563,1.3437,3,3,3c1.6562,0,4.3437,0,6,0 c1.6562,0,3-1.3437,3-3c0-0.6631,0-2.709,0-5.001C47.666,32.4092,47.2949,21.0107,40.877,12.7861z" style="stroke-width: 2.58719px;"/>
    </g>
    <g id="g-6">
      <path fill="none" stroke="#000000" stroke-linecap="round" stroke-linejoin="round" stroke-miterlimit="10" d="M33.4932,61c1.0449,0,1.9629-0.5352,2.5-1.3457C36.5303,60.4648,37.4482,61,38.4922,61c1.6572,0,3.001-1.3437,3.001-2.999 c0-1.6572-1.3438-3.001-3-3.001v-6h-5v6c-1.6573,0-3.001,1.3438-3,3C30.4932,59.6582,31.8359,61,33.4932,61z" style="stroke-width: 2.58719px;"/>
      <path fill="none" stroke="#000000" stroke-linecap="round" stroke-linejoin="round" stroke-miterlimit="10" d="M40.877,12.7861c-0.7774-1.9394-2.667-3.3144-4.8838-3.3144s-4.1065,1.375-4.8838,3.3144 C24.6924,21.0107,24.3203,32.4092,29.9932,41c0,2.291,0,4.3369,0,5c0,1.6563,1.3437,3,3,3c1.6562,0,4.3437,0,6,0 c1.6562,0,3-1.3437,3-3c0-0.6631,0-2.709,0-5.001C47.666,32.4092,47.2949,21.0107,40.877,12.7861z" style="stroke-width: 2.58719px;"/>
    </g>
  </g>
</svg>