<?xml version="1.0" encoding="utf-8"?>
<svg viewBox="0 0 72 72" xmlns="http://www.w3.org/2000/svg">
  <g id="hair"/>
  <g id="skin"/>
  <g id="skin-shadow"/>
  <g style="transform-origin: 37.1044px 36.605px;" transform="matrix(0.43481606245, -0.64464110136, 0.64464110136, 0.43481606245, 12.71530593173, -0.286281973478)">
    <g id="color">
      <path fill="#92D3F5" stroke="none" d="M16.1101,37.4612c0,0-5.1101-4.8074-4.0659-11.0726s13.5746,1.0442,14.6188,6.2652 c0,0,3.1326-5.221,8.3536-6.2652c0,0-1.0442-5.221,0-8.3536c0,0,11.4862-4.1768,15.663,6.2652c0,0,11.4862,2.0884,12.5304,11.4862 l-3.1326,2.0884l2.741,2.3495c0,0-0.126,6.9813-11.8755,10.1474c0,0-2.3517,7.3429-10.7053,5.2545l1.0442-5.221 c0,0-6.2652,1.0442-14.6188-8.3536c0,0-3.1326,9.3978-15.663,7.3094C11.0001,49.361,10.7782,41.2244,16.1101,37.4612z" style="stroke-width: 2.57209px;"/>
      <path fill="#61B2E4" stroke="none" d="M41.7805,30.9182c0,0-7.8664,4.3435-0.8652,11.0476" style="stroke-width: 2.57209px;"/>
    </g>
    <g id="line">
      <path fill="none" stroke="#000000" stroke-linecap="round" stroke-linejoin="round" stroke-miterlimit="10" d="M16.1101,37.4612c0,0-5.1101-4.8074-4.0659-11.0726s13.5746,1.0442,14.6188,6.2652c0,0,3.1326-5.221,8.3536-6.2652 c0,0-1.0442-5.221,0-8.3536c0,0,11.4862-4.1768,15.663,6.2652c0,0,11.4862,2.0884,12.5304,11.4862l-3.1326,2.0884l2.741,2.3495 c0,0-0.126,6.9813-11.8755,10.1474c0,0-2.3517,7.3429-10.7053,5.2545l1.0442-5.221c0,0-6.2652,1.0442-14.6188-8.3536 c0,0-3.1326,9.3978-15.663,7.3094C11.0001,49.361,10.7782,41.2244,16.1101,37.4612z" style="stroke-width: 2.57209px;"/>
      <path fill="none" stroke="#000000" stroke-linecap="round" stroke-linejoin="round" stroke-miterlimit="10" d="M41,31c0,0-6,4-1,11" style="stroke-width: 2.57209px;"/>
    </g>
  </g>
  <g transform="matrix(0.858380019665, -0.278905004263, 0.278905004263, 0.858380019665, 38.38154423333, -35.439478869839)" style="transform-origin: -12.2022px 68.9748px;">
    <g id="g-3" transform="matrix(1, 0, 0, 1, -47.715137, 32.974876)">
      <path d="M39,53l-3,1.375L33,53,29,64a8.2931,8.2931,0,0,1,4-1.375A3.83,3.83,0,0,1,36,64a3.83,3.83,0,0,1,3-1.375A8.2931,8.2931,0,0,1,43,64Z" style="fill: rgb(39, 69, 210); stroke-width: 2.21593px;"/>
      <path d="M42.5136,32.4562q-.1217-.6969-.2728-1.3875a26.8047,26.8047,0,0,0-2.386-7.0151c-.03-.0558-.0686-.1051-.0995-.16A3.0619,3.0619,0,0,0,36.8038,21H34.9553a3.0619,3.0619,0,0,0-2.9515,2.8933c-.031.0552-.0692.1045-.1.16a26.8045,26.8045,0,0,0-2.3859,7.0151q-.1511.69-.2728,1.3875a32.5738,32.5738,0,0,0,.0951,11.7368q.182.9425.42,1.8713a35.4912,35.4912,0,0,0,4.2021,9.8769,2.5544,2.5544,0,0,0,.4964.5295A2.6679,2.6679,0,0,0,35.88,57,2.6673,2.6673,0,0,0,37.3,56.4707a2.5547,2.5547,0,0,0,.4965-.5295,35.4912,35.4912,0,0,0,4.2021-9.8769q.2374-.9282.42-1.8713A32.5738,32.5738,0,0,0,42.5136,32.4562Z" style="fill: rgb(39, 69, 210); stroke-width: 2.21593px;"/>
      <path d="M29.76,46.0643c.2593,1.0132.5759,2.0088.9226,2.9929a13.9528,13.9528,0,0,1,10.428-.0916c.3333-.9543.6366-1.92.8877-2.9013q.2374-.9282.42-1.8713a32.5716,32.5716,0,0,0,.095-11.7368q-.1215-.6969-.2727-1.3875a26.8047,26.8047,0,0,0-2.386-7.0151c-.03-.0558-.0685-.1051-.0995-.16A3.0619,3.0619,0,0,0,36.8038,21H34.9553a3.0619,3.0619,0,0,0-2.9515,2.8932c-.031.0553-.0692.1046-.1.16a26.812,26.812,0,0,0-2.386,7.0151q-.1509.69-.2727,1.3875a32.5739,32.5739,0,0,0,.0951,11.7368Q29.5226,45.1353,29.76,46.0643Z" style="fill: rgb(82, 106, 217); stroke-width: 2.21593px;"/>
      <path d="M29.4432,44.65a13.88,13.88,0,0,1,12.9-.12c.0231-.1129.0538-.2241.0757-.3373a32.5716,32.5716,0,0,0,.095-11.7368q-.1215-.6969-.2727-1.3875a26.8047,26.8047,0,0,0-2.386-7.0151c-.03-.0558-.0685-.1051-.0995-.16A3.0619,3.0619,0,0,0,36.8038,21H34.9553a3.0619,3.0619,0,0,0-2.9515,2.8932c-.031.0553-.0692.1046-.1.16a26.812,26.812,0,0,0-2.386,7.0151q-.1509.69-.2727,1.3875a32.5739,32.5739,0,0,0,.0951,11.7368C29.37,44.3465,29.4113,44.4973,29.4432,44.65Z" style="fill: rgb(39, 69, 210); stroke-width: 2.21593px;"/>
      <path d="M36,38a13.7192,13.7192,0,0,1,6.9494,1.87,32.738,32.738,0,0,0-.4359-7.4143q-.1215-.6969-.2727-1.3875a26.8047,26.8047,0,0,0-2.386-7.0151c-.03-.0558-.0685-.1051-.0995-.16A3.0619,3.0619,0,0,0,36.8038,21H34.9553a3.0619,3.0619,0,0,0-2.9515,2.8932c-.031.0553-.0692.1046-.1.16a26.812,26.812,0,0,0-2.386,7.0151q-.1509.69-.2727,1.3875A32.7391,32.7391,0,0,0,28.82,40,13.7117,13.7117,0,0,1,36,38Z" style="fill: rgb(82, 106, 217); stroke-width: 2.21593px;"/>
      <path d="M36,33a13.7256,13.7256,0,0,1,6.8276,1.8022c-.0789-.7855-.1784-1.5688-.3141-2.346q-.1215-.6969-.2727-1.3875a26.8047,26.8047,0,0,0-2.386-7.0151c-.03-.0558-.0685-.1051-.0995-.16A3.0619,3.0619,0,0,0,36.8038,21H34.9553a3.0619,3.0619,0,0,0-2.9515,2.8932c-.031.0553-.0692.1046-.1.16a26.812,26.812,0,0,0-2.386,7.0151q-.1509.69-.2727,1.3875c-.1439.8246-.249,1.6559-.3292,2.49A13.7141,13.7141,0,0,1,36,33Z" style="fill: rgb(39, 69, 210); stroke-width: 2.21593px;"/>
      <path d="M29.538,30c-.5253.94-5.4979.1019-9-3-1.0848-.9608-4.2232-3.7406-4-8a9.0123,9.0123,0,0,1,6-8,8.563,8.563,0,0,1,5,0c-1.1435,2.2418-2.4664,4.59-4,7q-.9955,1.5643-2,3c.7247.7036,1.7686,1.7319,3,3C28.0725,27.64,29.84,29.46,29.538,30Z" style="fill: rgb(82, 106, 217); stroke-width: 2.21593px;"/>
      <path fill="#ea5a47" d="M15.038,20.5c-.0028.0525-.0135.1023-.0183.1541-.0163-.0444-.036-.0865-.0528-.13Z" style="stroke-width: 2.21593px;"/>
      <path d="M41,30c.5252.94,5.4979.1019,9-3,1.0848-.9608,4.2232-3.7406,4-8a9.0123,9.0123,0,0,0-6-8,8.563,8.563,0,0,0-5,0c1.1434,2.2418,2.4664,4.59,4,7q.9955,1.5643,2,3c-.7248.7036-1.7686,1.7319-3,3C42.4655,27.64,40.6983,29.46,41,30Z" style="fill: rgb(82, 106, 217); stroke-width: 2.21593px;"/>
    </g>
    <g id="g-4" transform="matrix(1, 0, 0, 1, -47.715137, 32.974876)">
      <polyline fill="none" stroke="#000" stroke-linecap="round" stroke-linejoin="round" points="43 33 50 33 55 31" style="stroke-width: 2.21593px;"/>
      <polyline fill="none" stroke="#000" stroke-linecap="round" stroke-linejoin="round" points="42.827 34.277 51.747 36.423 56.059 35.433" style="stroke-width: 2.21593px;"/>
      <polyline fill="none" stroke="#000" stroke-linecap="round" stroke-linejoin="round" points="44.219 35.901 52.227 39.961 55 43" style="stroke-width: 2.21593px;"/>
      <polyline fill="none" stroke="#000" stroke-linecap="round" stroke-linejoin="round" points="44.1 36.744 48.042 42.529 47.576 46.476" style="stroke-width: 2.21593px;"/>
      <polyline fill="none" stroke="#000" stroke-linecap="round" stroke-linejoin="round" points="29 33 22 33 17 31" style="stroke-width: 2.21593px;"/>
      <polyline fill="none" stroke="#000" stroke-linecap="round" stroke-linejoin="round" points="29.173 34.277 20.253 36.423 15.941 35.433" style="stroke-width: 2.21593px;"/>
      <polyline fill="none" stroke="#000" stroke-linecap="round" stroke-linejoin="round" points="27.781 35.901 19.773 39.961 17 43" style="stroke-width: 2.21593px;"/>
      <polyline fill="none" stroke="#000" stroke-linecap="round" stroke-linejoin="round" points="27.9 36.744 23.958 42.529 24.424 46.476" style="stroke-width: 2.21593px;"/>
      <path fill="none" stroke="#000" stroke-linecap="round" stroke-linejoin="round" d="M37.0909,21a68.0771,68.0771,0,0,1,0-7.9952c.1422-3.0924.353-4.0369.9849-4.5687,1.58-1.33,2.6166.7838,2.9242,1.0159" style="stroke-width: 2.21593px;"/>
      <path fill="none" stroke="#000" stroke-linecap="round" stroke-linejoin="round" d="M34.8931,21a68.0213,68.0213,0,0,0,0-7.9952c-.1422-3.0924-.3529-4.0369-.9848-4.5687-1.58-1.33-2.6166.7838-2.9242,1.0159" style="stroke-width: 2.21593px;"/>
      <line x1="28.3644" x2="24.7115" y1="15.1851" y2="16.8149" fill="none" stroke="#000" stroke-linecap="round" stroke-linejoin="round" style="stroke-width: 2.21593px;"/>
      <path fill="none" stroke="#000" stroke-linecap="round" stroke-linejoin="round" d="M32.645,53.9761,29,64a8.2931,8.2931,0,0,1,4-1.375A3.83,3.83,0,0,1,36,64V57.3056" style="stroke-width: 2.21593px;"/>
      <path fill="none" stroke="#000" stroke-linecap="round" stroke-linejoin="round" d="M39.35,53.9629,43,64a8.2931,8.2931,0,0,0-4-1.375A3.83,3.83,0,0,0,36,64V57.3056" style="stroke-width: 2.21593px;"/>
      <path fill="none" stroke="#000" stroke-linecap="round" stroke-linejoin="round" d="M29.538,30c-.5253.94-5.4979.1019-9-3-1.0848-.9608-4.2232-3.7406-4-8a9.0123,9.0123,0,0,1,6-8,8.563,8.563,0,0,1,5,0c-1.1435,2.2418-2.4664,4.59-4,7q-.9955,1.5643-2,3c.7247.7036,1.7686,1.7319,3,3C28.0725,27.64,29.84,29.46,29.538,30Z" style="stroke-width: 2.21593px;"/>
      <path fill="none" stroke="#000" stroke-linejoin="round" d="M42.5136,32.4562q-.1217-.6969-.2728-1.3875a26.8047,26.8047,0,0,0-2.386-7.0151c-.03-.0558-.0686-.1051-.0995-.16A3.0619,3.0619,0,0,0,36.8038,21H34.9553a3.0619,3.0619,0,0,0-2.9515,2.8933c-.031.0552-.0692.1045-.1.16a26.8045,26.8045,0,0,0-2.3859,7.0151q-.1511.69-.2728,1.3875a32.5738,32.5738,0,0,0,.0951,11.7368q.182.9425.42,1.8713a35.4912,35.4912,0,0,0,4.2021,9.8769,2.5544,2.5544,0,0,0,.4964.5295A2.6679,2.6679,0,0,0,35.88,57,2.6673,2.6673,0,0,0,37.3,56.4707a2.5547,2.5547,0,0,0,.4965-.5295,35.4912,35.4912,0,0,0,4.2021-9.8769q.2374-.9282.42-1.8713A32.5738,32.5738,0,0,0,42.5136,32.4562Z" style="stroke-width: 2.21593px;"/>
      <path fill="none" stroke="#000" stroke-linecap="round" stroke-linejoin="round" d="M36,33a13.7256,13.7256,0,0,1,6.8276,1.8022c-.0789-.7855-.1784-1.5688-.3141-2.346q-.1215-.6969-.2727-1.3875a26.8047,26.8047,0,0,0-2.386-7.0151c-.03-.0558-.0685-.1051-.0995-.16A3.0619,3.0619,0,0,0,36.8038,21H34.9553a3.0619,3.0619,0,0,0-2.9515,2.8932c-.031.0553-.0692.1046-.1.16a26.812,26.812,0,0,0-2.386,7.0151q-.1509.69-.2727,1.3875c-.1439.8246-.249,1.6559-.3292,2.49A13.7141,13.7141,0,0,1,36,33Z" style="stroke-width: 2.21593px;"/>
      <path fill="none" stroke="#000" stroke-linecap="round" stroke-linejoin="round" d="M42,30c.5252.94,5.4979.1019,9-3,1.0848-.9608,4.2232-3.7406,4-8a9.0123,9.0123,0,0,0-6-8,8.563,8.563,0,0,0-5,0c1.1434,2.2418,2.4664,4.59,4,7q.9955,1.5643,2,3c-.7248.7036-1.7686,1.7319-3,3C43.4655,27.64,41.6983,29.46,42,30Z" style="stroke-width: 2.21593px;"/>
      <line x1="43.1736" x2="46.8264" y1="15.1851" y2="16.8149" fill="none" stroke="#000" stroke-linecap="round" stroke-linejoin="round" style="stroke-width: 2.21593px;"/>
      <path fill="none" stroke="#000" stroke-linecap="round" stroke-linejoin="round" d="M29.4432,44.65a13.88,13.88,0,0,1,12.9-.12c.0231-.1129.0538-.2241.0757-.3373a32.5716,32.5716,0,0,0,.095-11.7368q-.1215-.6969-.2727-1.3875a26.8047,26.8047,0,0,0-2.386-7.0151c-.03-.0558-.0685-.1051-.0995-.16A3.0619,3.0619,0,0,0,36.8038,21H34.9553a3.0619,3.0619,0,0,0-2.9515,2.8932c-.031.0553-.0692.1046-.1.16a26.812,26.812,0,0,0-2.386,7.0151q-.1509.69-.2727,1.3875a32.5739,32.5739,0,0,0,.0951,11.7368C29.37,44.3465,29.4113,44.4973,29.4432,44.65Z" style="stroke-width: 2.21593px;"/>
      <path fill="none" stroke="#000" stroke-linecap="round" stroke-linejoin="round" d="M29.76,46.0643c.2593,1.0132.5759,2.0088.9226,2.9929a13.9528,13.9528,0,0,1,10.428-.0916c.3333-.9543.6366-1.92.8877-2.9013q.2374-.9282.42-1.8713a32.5716,32.5716,0,0,0,.095-11.7368q-.1215-.6969-.2727-1.3875a26.8047,26.8047,0,0,0-2.386-7.0151c-.03-.0558-.0685-.1051-.0995-.16A3.0619,3.0619,0,0,0,36.8038,21H34.9553a3.0619,3.0619,0,0,0-2.9515,2.8932c-.031.0553-.0692.1046-.1.16a26.812,26.812,0,0,0-2.386,7.0151q-.1509.69-.2727,1.3875a32.5739,32.5739,0,0,0,.0951,11.7368Q29.5226,45.1353,29.76,46.0643Z" style="stroke-width: 2.21593px;"/>
      <path fill="none" stroke="#000" stroke-linecap="round" stroke-linejoin="round" d="M36,38a13.7192,13.7192,0,0,1,6.9494,1.87,32.738,32.738,0,0,0-.4359-7.4143q-.1215-.6969-.2727-1.3875a26.8047,26.8047,0,0,0-2.386-7.0151c-.03-.0558-.0685-.1051-.0995-.16A3.0619,3.0619,0,0,0,36.8038,21H34.9553a3.0619,3.0619,0,0,0-2.9515,2.8932c-.031.0553-.0692.1046-.1.16a26.812,26.812,0,0,0-2.386,7.0151q-.1509.69-.2727,1.3875A32.7391,32.7391,0,0,0,28.82,40,13.7117,13.7117,0,0,1,36,38Z" style="stroke-width: 2.21593px;"/>
    </g>
  </g>
  <g transform="matrix(0.413821995258, 0.142490029335, -0.142490029335, 0.413821995258, 3.157061235925, 15.207653668367)" style="transform-origin: 33.9964px 37.625px;">
    <g id="line-supplement">
      <g id="_790Luc">
        <path fill="none" stroke="#000" stroke-miterlimit="10" d="M48.1275,18.3578a13.2415,13.2415,0,0,1,1.7215.3209c1.5622.4786,2.2719,1.8225,2.6327,3.4557a11.7982,11.7982,0,0,1-.1157,5.1717c-.4984,2.207-1.1045,4.3854-1.7123,6.5593a14.1,14.1,0,0,0-.3114,4.3735,22.593,22.593,0,0,1-.0251,4.5267,3.4324,3.4324,0,0,1-.87,1.7845,11.8577,11.8577,0,0,1-1.006.9937,5.0531,5.0531,0,0,0-1.6331,2.8834,16.5128,16.5128,0,0,1-.57,2.0025,5.6829,5.6829,0,0,1-2.4343,3.0074,2.7874,2.7874,0,0,1-1.9869.2424,1.8119,1.8119,0,0,0-1.7622.5345,10.7525,10.7525,0,0,1-2.7711,2.2015,3.0127,3.0127,0,0,1-2.28.391,2.2219,2.2219,0,0,1-.8038-.4436,3.8683,3.8683,0,0,0-2.9082-.8751c-.93.0511-1.8621.1048-2.7932.1039a5.5664,5.5664,0,0,1-5.235-3.48,25.2946,25.2946,0,0,1-1.3066-3.5511,5.0183,5.0183,0,0,0-1.6912-2.604,8.3293,8.3293,0,0,1-1.126-1.0833,4.9929,4.9929,0,0,1-1.1286-2.9983,6.6485,6.6485,0,0,1,2.44-5.8956,5.0969,5.0969,0,0,1,.4949-.4116A3.3926,3.3926,0,0,0,22.39,33.4269a3.0426,3.0426,0,0,1,1.4754-1.9592c.5545-.33,1.1348-.6111,1.6706-.9744a4.1935,4.1935,0,0,0,1.1892-1.0262,13.3484,13.3484,0,0,1,4.202-3.9194A66.1844,66.1844,0,0,1,41.39,19.9663a23.35,23.35,0,0,1,5.1875-1.4722C47.02,18.43,47.4684,18.4141,48.1275,18.3578Z" style="stroke-width: 4.56969px;"/>
      </g>
    </g>
    <g id="g-5">
      <g id="_790Luc-2">
        <path fill="#a57939" d="M34.4066,62.8638a4.4762,4.4762,0,0,1-1.1494-.1485,4.2644,4.2644,0,0,1-1.4853-.7343,4.832,4.832,0,0,0-3.4239-.8926l-.1552.0078c-1.2383.06-2.5176.124-3.7891.124h-.0283a8.9018,8.9018,0,0,1-8.2295-4.8994,30.2853,30.2853,0,0,1-1.9014-4.6152,5.3047,5.3047,0,0,0-2.0009-2.7813,12.206,12.206,0,0,1-1.7247-1.4824A6.8644,6.8644,0,0,1,8.6518,43.06a8.973,8.973,0,0,1,3.8144-8.2979l.1709-.1367a5.341,5.341,0,0,1,.624-.4492,3.309,3.309,0,0,0,1.5713-2.0928A4.8884,4.8884,0,0,1,17.4,28.9985c.2988-.1591.6016-.3105.9053-.46.4922-.2442.956-.4737,1.3916-.7383l.1084-.0654a4.6969,4.6969,0,0,0,1.2822-.9707,18.864,18.864,0,0,1,6.2149-5.2032,98.5247,98.5247,0,0,1,14.8457-7.0888,36.3921,36.3921,0,0,1,7.4892-1.8994c.4277-.0567.8594-.085,1.3789-.1192.2569-.0166.5371-.0342.8506-.0586l.1191-.0088.1172.0186c.168.0273.36.0508.5694.0771a13.8958,13.8958,0,0,1,1.9531.3506c2.2764.624,3.7168,2.2822,4.4033,5.07a14.1793,14.1793,0,0,1-.1631,6.9883c-.7256,2.877-1.6259,5.76-2.42,8.3027a15.3043,15.3043,0,0,0-.3926,5.1622c.0166.4033.04.8066.0635,1.2089a19.4079,19.4079,0,0,1-.1143,4.7051A5.166,5.166,0,0,1,54.5,47.0454a17.0172,17.0172,0,0,1-1.5029,1.3281,5.2453,5.2453,0,0,0-1.9336,3.0655,19.894,19.894,0,0,1-.8409,2.65,8.377,8.377,0,0,1-3.86,4.2919,5.27,5.27,0,0,1-3.4141.4258,1.7605,1.7605,0,0,0-1.6591.41,15.7619,15.7619,0,0,1-4.1553,2.9463A6.4988,6.4988,0,0,1,34.4066,62.8638Z" style="stroke-width: 4.56969px;"/>
      </g>
      <g id="_790Luc-3">
        <path fill="#fff" d="M35.646,57.9a3.1944,3.1944,0,0,1-2.1006-.7812,2.8927,2.8927,0,0,0-2.1992-.6329l-.14.0079c-.875.0478-1.78.0976-2.6836.0976h-.0254a6.5545,6.5545,0,0,1-6.1338-4.043,25.9675,25.9675,0,0,1-1.3623-3.6914,4.0253,4.0253,0,0,0-1.3486-2.1093,9.1809,9.1809,0,0,1-1.2647-1.2139,5.9226,5.9226,0,0,1-1.374-3.5781A7.6454,7.6454,0,0,1,19.8,35.22l.12-.1064a4.2783,4.2783,0,0,1,.4756-.3819,2.3819,2.3819,0,0,0,1.0225-1.54,4.0224,4.0224,0,0,1,1.9355-2.584c.2168-.1289.4366-.25.6563-.3711.3271-.1806.6543-.36.9658-.5713a3.54,3.54,0,0,0,.918-.7549A14.2107,14.2107,0,0,1,30.4,24.6978,67.717,67.717,0,0,1,41.024,19.0356a24.11,24.11,0,0,1,5.41-1.5312c.3174-.0459.6357-.07,1.0225-.0977l.7177-.0566.13.0234c.1162.02.249.0391.3936.06a9.3623,9.3623,0,0,1,1.4433.2891c1.7246.5293,2.81,1.9013,3.3174,4.1963a12.6762,12.6762,0,0,1-.1172,5.6084c-.5136,2.2744-1.1572,4.5771-1.7246,6.6084a13.4412,13.4412,0,0,0-.2754,4.0673c.0118.3184.0284.6368.045.9551a17.1874,17.1874,0,0,1-.0831,3.77,4.4358,4.4358,0,0,1-1.1152,2.294A12.7981,12.7981,0,0,1,49.0952,46.3a4.0749,4.0749,0,0,0-1.3086,2.333,17.3094,17.3094,0,0,1-.6044,2.125,6.6915,6.6915,0,0,1-2.8457,3.5254,3.7079,3.7079,0,0,1-2.668.3848c-.4971-.0762-.6709.0068-.89.2363a11.6436,11.6436,0,0,1-3.0361,2.3994A4.5781,4.5781,0,0,1,35.646,57.9Z" style="stroke-width: 4.56969px;"/>
      </g>
      <path fill="#f4aa41" d="M32.0637,50.5956a8.4587,8.4587,0,0,1-5.9571-2.8623,5.3485,5.3485,0,0,1-1.5986-4.5859c.93-8.1475,18.29-19.0723,19.0283-19.5342a1.0655,1.0655,0,0,1,1.459.3281,3.93,3.93,0,0,0,3.2373,1.8633,1.069,1.069,0,0,1,1.0625,1.3769c-.2656.8565-6.6025,20.9912-15.5644,23.2071A6.9119,6.9119,0,0,1,32.0637,50.5956Z" style="stroke-width: 4.56969px;"/>
      <circle cx="31.0008" cy="37.0229" r="5" fill="#fff" style="stroke-width: 4.56969px;"/>
      <path fill="#d0cfce" d="M29.3307,32.6713a4.5642,4.5642,0,0,1,1.098,8.74,4.6121,4.6121,0,0,1-.463.1617,4.5653,4.5653,0,1,0-.635-8.9019Z" style="stroke-width: 4.56969px;"/>
      <g id="_790Luc-4">
        <path fill="none" stroke="#d0cfce" stroke-miterlimit="10" d="M48.1275,18.3578a13.2415,13.2415,0,0,1,1.7215.3209c1.5622.4786,2.2719,1.8225,2.6327,3.4557a11.7982,11.7982,0,0,1-.1157,5.1717c-.4984,2.207-1.1045,4.3854-1.7123,6.5593a14.1,14.1,0,0,0-.3114,4.3735,22.593,22.593,0,0,1-.0251,4.5267,3.4324,3.4324,0,0,1-.87,1.7845,11.8577,11.8577,0,0,1-1.006.9937,5.0531,5.0531,0,0,0-1.6331,2.8834,16.5128,16.5128,0,0,1-.57,2.0025,5.6829,5.6829,0,0,1-2.4343,3.0074,2.7874,2.7874,0,0,1-1.9869.2424,1.8119,1.8119,0,0,0-1.7622.5345,10.7525,10.7525,0,0,1-2.7711,2.2015,3.0127,3.0127,0,0,1-2.28.391,2.2219,2.2219,0,0,1-.8038-.4436,3.8683,3.8683,0,0,0-2.9082-.8751c-.93.0511-1.8621.1048-2.7932.1039a5.5664,5.5664,0,0,1-5.235-3.48,25.2946,25.2946,0,0,1-1.3066-3.5511,5.0183,5.0183,0,0,0-1.6912-2.604,8.3293,8.3293,0,0,1-1.126-1.0833,4.9929,4.9929,0,0,1-1.1286-2.9983,6.6485,6.6485,0,0,1,2.44-5.8956,5.0969,5.0969,0,0,1,.4949-.4116A3.3926,3.3926,0,0,0,22.39,33.4269a3.0426,3.0426,0,0,1,1.4754-1.9592c.5545-.33,1.1348-.6111,1.6706-.9744a4.1935,4.1935,0,0,0,1.1892-1.0262,13.3484,13.3484,0,0,1,4.202-3.9194A66.1844,66.1844,0,0,1,41.39,19.9663a23.35,23.35,0,0,1,5.1875-1.4722C47.02,18.43,47.4684,18.4141,48.1275,18.3578Z" style="stroke-width: 4.56969px;"/>
      </g>
    </g>
    <g id="g-6">
      <g id="_790Luc-5">
        <path fill="none" stroke="#000" stroke-miterlimit="10" d="M51.9434,13.3926a20.5288,20.5288,0,0,1,2.4178.4036c2.1939.6019,3.1906,2.292,3.6972,4.3461a13.3281,13.3281,0,0,1-.1625,6.5042c-.7,2.7757-1.5511,5.5154-2.4047,8.25a15.9333,15.9333,0,0,0-.4372,5.5,25.4664,25.4664,0,0,1-.0354,5.6931,4.1557,4.1557,0,0,1-1.2218,2.2442,15.9048,15.9048,0,0,1-1.4128,1.25A6.2312,6.2312,0,0,0,50.0905,51.21a19.1265,19.1265,0,0,1-.8,2.5185,7.3713,7.3713,0,0,1-3.4187,3.7822,4.3231,4.3231,0,0,1-2.79.3049,2.7389,2.7389,0,0,0-2.4748.6722,14.9577,14.9577,0,0,1-3.8917,2.7688,4.6516,4.6516,0,0,1-3.2022.4917,3.2429,3.2429,0,0,1-1.1288-.5579A5.878,5.878,0,0,0,28.2993,60.09c-1.3066.0643-2.6151.1319-3.9227.1307a7.8881,7.8881,0,0,1-7.3519-4.376,29.7614,29.7614,0,0,1-1.835-4.4661,6.2988,6.2988,0,0,0-2.3752-3.275,11.2476,11.2476,0,0,1-1.5813-1.3624A5.9124,5.9124,0,0,1,9.6482,42.97a7.9788,7.9788,0,0,1,3.426-7.4147,7.08,7.08,0,0,1,.695-.5177,4.2858,4.2858,0,0,0,2.0293-2.6931,3.9057,3.9057,0,0,1,2.0721-2.464c.7786-.4155,1.5935-.7686,2.346-1.2256a5.7566,5.7566,0,0,0,1.67-1.2905,18.1066,18.1066,0,0,1,5.9013-4.9293,97.0057,97.0057,0,0,1,14.693-7.02,35.7891,35.7891,0,0,1,7.2852-1.8515C50.3881,13.4831,51.0179,13.4633,51.9434,13.3926Z" style="stroke-width: 4.56969px;"/>
      </g>
      <path fill="none" stroke="#000" stroke-linecap="round" stroke-linejoin="round" d="M44.1,24.5157A92.9134,92.9134,0,0,0,33.298,32.5812" style="stroke-width: 4.56969px;"/>
      <path fill="none" stroke="#000" stroke-linecap="round" stroke-linejoin="round" d="M26.8551,39.8181c-1.5775,2.67-1.9478,5.212.0034,7.1632C38.4506,58.5734,48.2793,26.8667,48.2793,26.8667" style="stroke-width: 4.56969px;"/>
      <circle cx="31.0008" cy="37.0229" r="5" fill="none" stroke="#000" stroke-linecap="round" stroke-linejoin="round" style="stroke-width: 4.56969px;"/>
    </g>
  </g>
  <g transform="matrix(0.9523650407791138, 0, 0, 0.9523650407791138, 26.645450592041016, 41.442623138427734)" style="">
    <g id="g-7" transform="matrix(1, 0, 0, 1, -24.706533, -37.734795)">
      <path fill="#D22F27" stroke="none" d="M60,30.3783c2-6.1193-3-6.1193-3-6.1193c-7,1.0199-2,7.1391-2,7.1391s6,11.2186-4.5833,10.8251 S43,31.3982,43,31.3982c6.0698-5.1987,4-11.2186,4-11.2186c-3-10.1988-11-9.1789-11-9.1789s-8-1.0199-11,8.159 c0,0-3,9.1789,4,12.2385c0,0,4,11.2186-8,11.2186c0,0-10,0-4-13.2584c0,0,2-7.1391-4-5.0994c0,0-3,1.0199-2,6.1193 c0,0-5,21.4174,14,16.318c0,0,16-3.0596,22,0c6,3.0596,14,1.0199,14-9.1789L60,30.3783z" style="stroke-width: 2.10004px;"/>
      <path fill="#EA5A47" stroke="none" d="M33,32c0,0,4,11.4491-7,14.5715c0,0-7-1.0408-7,5.2041s4,6.2449,6,5.2041c2-1.0408,3-4.1633,3-4.1633 S28,49.8775,24,53s-3-3.306,4-4.3468C35,47.6124,38,36.1633,36,32H33z" style="stroke-width: 2.10004px;"/>
      <path fill="#EA5A47" stroke="none" d="M19.1157,45c0,0-2,1-4-1s-4-1-4-1s-4,1-1,5c0,0,1,2,4,1c0,0,1.8843-1-0.1157-2s-4-2-2-2 S18.2314,50,19.1157,45z" style="stroke-width: 2.10004px;"/>
      <path fill="#EA5A47" stroke="none" d="M38.6082,32c0,0-4,11.4491,7,14.5715c0,0,7-1.0408,7,5.2041s-4,6.2449-6,5.2041 c-2-1.0408-3-4.1633-3-4.1633S44,49.8775,48,53s2.6082-3.306-4.3918-4.3468c-7-1.0408-10-12.4899-8-16.6532H38.6082z" style="stroke-width: 2.10004px;"/>
      <path fill="#EA5A47" stroke="none" d="M54,45c0,0,2,1,4-1s4-1,4-1s4,1,1,5c0,0-1,2-4,1c0,0-1.8843-1,0.1157-2s4-2,2-2S54.8843,50,54,45z" style="stroke-width: 2.10004px;"/>
    </g>
    <g id="g-11" transform="matrix(1, 0, 0, 1, -24.706533, -37.734795)">
      <path fill="none" stroke="#000000" stroke-linecap="round" stroke-linejoin="round" stroke-miterlimit="10" d="M60,30c2-6-3-6-3-6c-7,1-2,7-2,7s6,11-4.5833,10.6142C39.8333,41.2284,43,31,43,31c6.0698-5.0974,4-11,4-11c-3-10-11-9-11-9 s-8-1-11,8c0,0-3,9,4,12c0,0,4,11-8,11c0,0-10,0-4-13c0,0,2-7-4-5c0,0-3,1-2,6" style="stroke-width: 2.10004px;"/>
      <path fill="none" stroke="#000000" stroke-linecap="round" stroke-linejoin="round" stroke-miterlimit="10" d="M33,33c0,0,4,11-7,14c0,0-7-1-7,5s4,6,6,5s3-4,3-4" style="stroke-width: 2.10004px;"/>
      <path fill="none" stroke="#000000" stroke-linecap="round" stroke-linejoin="round" stroke-miterlimit="10" d="M38.7091,33c0,0-4,11,7,14c0,0,7-1,7,5s-4,6-6,5s-3-4-3-4" style="stroke-width: 2.10004px;"/>
      <path fill="none" stroke="#000000" stroke-linecap="round" stroke-linejoin="round" stroke-miterlimit="10" d="M19.1157,45c0,0-2,1-4-1s-4-1-4-1s-4,1-1,5c0,0,1,2,4,1" style="stroke-width: 2.10004px;"/>
      <path fill="none" stroke="#000000" stroke-linecap="round" stroke-linejoin="round" stroke-miterlimit="10" d="M54,45c0,0,2,1,4-1s4-1,4-1s4,1,1,5c0,0-1,2-4,1" style="stroke-width: 2.10004px;"/>
    </g>
  </g>
</svg>