<?xml version="1.0" encoding="utf-8"?>
<svg viewBox="0 0 72 72" xmlns="http://www.w3.org/2000/svg">
  <g transform="matrix(0.593168139458, -0.181350007653, 0.181350007653, 0.593168139458, -17.654313793747, -1.281972609983)" style="transform-origin: 37.7463px 35.6899px;">
    <g id="g-3">
      <rect x="19" y="23.2301" width="29.9997" height="36.3856" fill="#FCEA2B" style="stroke-width: 3.13725px;"/>
      <polygon fill="#F1B31C" points="40.5264,23.2301 33,59.6157 48.9998,59.6157 48.9998,23.2301" style="stroke-width: 3.13725px;"/>
      <path fill="#FFFFFF" d="M44.1933,15.3999c-1.304-0.001-2.5018,0.4709-3.4585,1.2577c-0.9376-1.9375-2.8336-3.2665-5.0258-3.2682 c-0.8005-0.0006-1.5606,0.1771-2.2511,0.4952c-1.1199-1.5208-2.8597-2.5031-4.819-2.5046c-2.9465-0.0023-5.4063,2.205-5.997,5.1492 c-0.3479-0.0874-0.7061-0.1448-1.0785-0.1451c-2.6033-0.0021-4.7162,2.2396-4.7184,5.0059l-0.0063,8.0154 c-0.0009,1.1021,0.847,2.0045,1.8842,2.0053l0.9429,0.0007c1.0372,0.0008,1.8865-0.9002,1.8873-2.0024l0.0013-1.5991 c0.5711,0.3722,1.2338,0.5981,1.9494,0.5987l1.8546,0.0015c1.2022,0.0009,2.2653-0.6144,2.9581-1.5517 c1.0256,1.5428,2.7125,2.5581,4.6153,2.5596c3.1115,0.0025,5.6594-2.7007,5.662-6.0071l10.9214,0.0086 c0.2098-0.627,0.3301-1.3002,0.3306-2.0036C49.8485,18.0956,47.318,15.4024,44.1933,15.3999z" style="stroke-width: 3.13725px;"/>
      <path fill="#FFFFFF" d="M19.8066,24.8075c0.0022-2.6882,2.115-4.8665,4.7184-4.8646c0.3724,0.0003,0.7307,0.0561,1.0785,0.141 c0.5907-2.861,3.0506-5.006,5.9971-5.0037c1.9593,0.0015,3.699,0.956,4.8189,2.4339c0.6904-0.3091,1.4505-0.4818,2.2511-0.4812 c2.1922,0.0017,4.0882,1.2932,5.0258,3.1759c0.9567-0.7645,2.1545-1.2232,3.4585-1.2222c0.5297,0.0004,1.0401,0.0815,1.5261,0.2223 c-0.7688-2.2807-2.8627-3.9207-5.3338-3.9226c-1.304-0.001-2.5018,0.4577-3.4585,1.2222 c-0.9376-1.8828-2.8336-3.1742-5.0258-3.1759c-0.8005-0.0006-1.5607,0.1721-2.2511,0.4812 c-1.1199-1.4778-2.8597-2.4324-4.8189-2.4339c-2.9465-0.0023-5.4064,2.1427-5.9971,5.0037 c-0.3478-0.085-0.7061-0.1407-1.0785-0.141c-2.6034-0.002-4.7163,2.1764-4.7184,4.8646l-0.0063,7.7891 c-0.0009,1.071,0.847,1.9479,1.8842,1.9487l0.9429,0.0007c0.3605,0.0003,0.6951-0.1105,0.9824-0.2934L19.8066,24.8075z" style="stroke-width: 3.13725px;"/>
    </g>
    <g id="g-4">
      <path fill="none" stroke="#000000" stroke-linecap="round" stroke-linejoin="round" stroke-miterlimit="10" d="M49.5,50.5h6c2.2,0,4-1.8,4-4v-14c0-2.2-1.8-4-4-4h-6" style="stroke-width: 3.13725px;"/>
      <polyline fill="none" stroke="#000000" stroke-linecap="round" stroke-linejoin="round" stroke-miterlimit="10" points="38.5938,23.2301 48.9997,23.2301 48.9997,60 20,60 20,39.6348" style="stroke-width: 3.13725px;"/>
      <path fill="none" stroke="#000000" stroke-linecap="round" stroke-linejoin="round" stroke-miterlimit="10" d="M20.2515,31.3124c0.753-0.2628,1.3009-1.0182,1.3016-1.9033l0.0013-1.5991c0.5711,0.3722,1.2338,0.5981,1.9494,0.5987 l1.8546,0.0015c1.2022,0.0009,2.2653-0.6144,2.9581-1.5517c1.0256,1.5428,2.7125,2.5581,4.6153,2.5596 c3.1115,0.0025,5.6594-2.7007,5.662-6.0071l10.9214,0.0086c0.2098-0.627,0.3301-1.3002,0.3306-2.0036 c0.0026-3.3204-2.5278-6.0136-5.6525-6.016c-1.304-0.001-2.5018,0.4709-3.4585,1.2577c-0.9376-1.9375-2.8336-3.2665-5.0258-3.2682 c-0.8005-0.0006-1.5606,0.1771-2.2511,0.4952c-1.1199-1.5208-2.8597-2.5031-4.819-2.5046c-2.9465-0.0023-5.4063,2.205-5.997,5.1492 c-0.3479-0.0874-0.7061-0.1448-1.0785-0.1451c-2.6033-0.0021-4.7162,2.2396-4.7184,5.0059l-0.0063,8.0154 c-0.0009,1.1021,0.847,2.0045,1.8842,2.0053l0.9429,0.0007C19.87,31.4116,20.0669,31.3768,20.2515,31.3124" style="stroke-width: 3.13725px;"/>
    </g>
  </g>
  <g transform="matrix(0.358115017414093, 0, 0, 0.358115017414093, 43.72684860229492, 31.590003967285156)" style="">
    <g id="line-supplement">
      <line x1="45.6863" x2="53.668" y1="20.0657" y2="20.0657" fill="none" stroke="#000000" stroke-linecap="round" stroke-linejoin="round" stroke-miterlimit="10" style="stroke-width: 5.43385px;"/>
      <line x1="18.0445" x2="37.0861" y1="20.0657" y2="20.0657" fill="none" stroke="#000000" stroke-linecap="round" stroke-linejoin="round" stroke-miterlimit="10" style="stroke-width: 5.43385px;"/>
    </g>
    <g id="g-7">
      <polygon fill="#B1CC33" points="17.0606,19 23.5,27.4999 36,43.9999 48.5,27.4999 54.9394,19" style="stroke-width: 5.43385px;"/>
      <polygon fill="#5C9E31" points="44.9394,19 38.5,27.4999 31,37.4 36,43.9999 48.5,27.4999 54.9394,19" style="stroke-width: 5.43385px;"/>
    </g>
    <g id="g-8">
      <line x1="36" x2="36" y1="44" y2="67" fill="none" stroke="#000000" stroke-linecap="round" stroke-linejoin="round" stroke-miterlimit="10" style="stroke-width: 5.43385px;"/>
      <line x1="20" x2="52" y1="67" y2="67" fill="none" stroke="#000000" stroke-linecap="round" stroke-linejoin="round" stroke-miterlimit="10" style="stroke-width: 5.43385px;"/>
      <polyline fill="none" stroke="#000000" stroke-linecap="round" stroke-linejoin="round" stroke-miterlimit="10" points="61,11 48.5,27.5 36,44 23.5,27.5 11.2385,11.3149" style="stroke-width: 5.43385px;"/>
      <line x1="11.2385" x2="11" y1="11.3149" y2="11" fill="none" stroke="#000000" stroke-linecap="round" stroke-linejoin="round" stroke-miterlimit="10" style="stroke-width: 5.43385px;"/>
      <line x1="39" x2="55" y1="23" y2="4" fill="none" stroke="#000000" stroke-linecap="round" stroke-linejoin="round" stroke-miterlimit="10" style="stroke-width: 5.43385px;"/>
    </g>
  </g>
  <g transform="matrix(0.852935910225, -0.212661027908, 0.212661027908, 0.852935910225, 1.998072062354, 1.732527223509)" style="transform-origin: 36.1752px 35.7025px;">
    <g id="g-1">
      <path fill="#B1CC33" d="M37.7394,28.9024l10.1983-10.1983l5.2468,5.2468L42.9863,34.1492 c-1.1588,1.1588-1.8563,2.6718-1.9213,4.1683l-0.1273,2.9232c-0.1036,2.382-1.2137,4.7905-3.0584,6.6352L20.6714,65.0838 c-1.5429,1.5429-3.839,1.7482-5.1284,0.4588l-9.1968-9.1968c-1.2895-1.2895-1.084-3.5856,0.4588-5.1284l17.2079-17.2079 c1.8446-1.8446,4.2531-2.9548,6.6352-3.0584l2.9232-0.1273C35.0676,30.7587,36.5806,30.0612,37.7394,28.9024z" style="stroke-width: 2.2137px;"/>
      <path fill="#5C9E31" d="M16.351,60.7845l6.1656-6.1656c6.8117-6.8117,9.1408-10.8955,9.8941-13.1276 c0.6734-1.9952,1.8553-3.8628,3.4063-5.4138l14.7471-14.7471l2.6205,2.6205L42.9863,34.1492 c-1.1588,1.1588-1.8563,2.6718-1.9213,4.1683l-0.1272,2.9233c-0.1036,2.382-1.2137,4.7905-3.0584,6.6352l-17.208,17.2079 c-1.5429,1.5429-3.839,1.7482-5.1284,0.4588l-4.5954-4.5954C13.4592,63.4592,16.351,60.7845,16.351,60.7845z" style="stroke-width: 2.2137px;"/>
      <path fill="#B1CC33" d="M37.686,48.0693L20.6713,65.084c-1.5429,1.5429-3.839,1.7482-5.1284,0.4588L6.346,56.346 c-1.2895-1.2895-1.084-3.5856,0.4588-5.1284l17.0147-17.0147L37.686,48.0693z" style="stroke-width: 2.2137px;"/>
      <path fill="#5C9E31" d="M32.3157,41.8796l5.78,5.78L20.729,65.0263c-1.5748,1.5748-3.9223,1.7804-5.2433,0.4595L10.778,60.778 c2.5733,2.5733,5.5253-0.1563,5.5253-0.1563l6.2931-6.2931C28.6711,48.2538,31.2502,44.3022,32.3157,41.8796z" style="stroke-width: 2.2137px;"/>
      <rect x="12.4241" y="40.2746" width="18.7682" height="19.6103" transform="matrix(0.7071 -0.7071 0.7071 0.7071 -29.0243 30.0887)" fill="#D0CFCE" style="stroke-width: 2.21372px;"/>
      <path fill="#9B9B9A" d="M35.3776,50.3776L22.1061,63.6492l-4.8121-4.8121l6.6357-6.6357c2.5564-2.5564,4.6814-4.8211,6.448-6.8237 L35.3776,50.3776L35.3776,50.3776z" style="stroke-width: 2.2137px;"/>
      <path fill="#FCEA2B" d="M37.7394,28.9024l10.1983-10.1983l5.2468,5.2468L42.9863,34.1492 c-1.1588,1.1588-1.8563,2.6718-1.9213,4.1683l-3.5522-0.0048c-2.2744-0.0029-3.9293-1.6565-3.9341-3.9304l-0.0074-3.5586 C35.0676,30.7587,36.5806,30.0612,37.7394,28.9024z" style="stroke-width: 2.2137px;"/>
      <path fill="#F1B31C" d="M42.9862,34.1493c-1.1588,1.1588-1.8563,2.6718-1.9213,4.1683l-3.5522-0.0048 c-1.1042-0.0014-2.0615-0.3927-2.7558-1.0543c0.3306-0.4103,0.6842-0.8052,1.0601-1.1811l14.747-14.747l2.6205,2.6205 L42.9862,34.1493L42.9862,34.1493z" style="stroke-width: 2.2137px;"/>
      <path fill="#FCEA2B" d="M46.6575,21.0114l4.0442,4.0442c0.8245,0.8245,2.7765,0.2218,4.3376-1.3393l0,0 c1.5611-1.5611,2.1638-3.5131,1.3393-4.3376l-4.0442-4.0442c-0.8245-0.8245-2.7765-0.2218-4.3376,1.3393l0,0 C46.4356,18.2348,45.8329,20.1868,46.6575,21.0114z" style="stroke-width: 2.2137px;"/>
      <path fill="#F1B31C" d="M52.8699,21.5468L52.8699,21.5468c1.5611-1.5611,2.147-3.5299,1.3019-4.375l2.3451,2.3451 c0.8451,0.8451,0.2592,2.8139-1.3019,4.375l0,0c-1.5611,1.5611-3.5299,2.147-4.375,1.3019l-2.3451-2.3451 C49.34,23.6939,51.3087,23.1079,52.8699,21.5468z" style="stroke-width: 2.2137px;"/>
      <path fill="#F4AA41" d="M55.6575,12.0114l4.0442,4.0442c0.8245,0.8245,3.0015-0.0032,4.8376-1.8393l0,0 c1.8361-1.8361,2.6638-4.0131,1.8393-4.8376l-4.0442-4.0442c-0.8245-0.8245-3.0015,0.0032-4.8376,1.8393l0,0 C55.6606,9.0098,54.8329,11.1868,55.6575,12.0114z" style="stroke-width: 2.2137px;"/>
      <path fill="#E27022" d="M62.3699,12.0468L62.3699,12.0468c1.8361-1.8361,2.647-4.0299,1.8019-4.875l2.3451,2.3451 c0.8451,0.8451,0.0342,3.0389-1.8019,4.875l0,0c-1.8361,1.8361-4.0299,2.647-4.875,1.8019l-2.3451-2.3451 C58.34,14.6939,60.5337,13.8829,62.3699,12.0468z" style="stroke-width: 2.2137px;"/>
    </g>
    <g id="g-2">
      <path fill="none" stroke="#000000" stroke-miterlimit="10" d="M62.3344,5.3344l1.8375,1.8375l-0.0001-0.0002 l2.3451,2.3452c0.8451,0.8451,0.0342,3.0388-1.8019,4.875c-1.8361,1.8362-4.0299,2.647-4.875,1.802l-0.1383-0.1384l0,0 l-4.0442-4.0442c-0.8245-0.8245,0.0032-3.0015,1.8393-4.8376C59.3329,5.3376,61.5099,4.5098,62.3344,5.3344z" style="stroke-width: 2.2137px;"/>
      <path fill="none" stroke="#000000" stroke-linecap="round" stroke-miterlimit="10" d="M56.0211,20.5021 c0.3033,0.9062-0.1427,2.2344-1.1827,3.2744c-0.897,0.8971-2.0029,1.3395-2.8731,1.2531l-8.6799,8.6799 c-0.1448,0.1448-0.2825,0.2952-0.4126,0.4504c-0.2602,0.3103-0.4902,0.6399-0.6874,0.983 c-0.2957,0.5146-0.5176,1.0596-0.6566,1.6151c-0.0927,0.3704-0.1484,0.7455-0.1647,1.1196l-0.1272,2.9233 c-0.1036,2.382-1.2137,4.7905-3.0583,6.6351l-0.1934,0.1935L20.9706,64.6442l-0.0002,0.0002 c-1.5429,1.5429-3.839,1.7482-5.1284,0.4587l-9.1968-9.1968c-0.806-0.806-1.0279-2.0051-0.7043-3.1678 c0.1941-0.6976,0.5846-1.3822,1.1632-1.9608l17.2078-17.2079c1.8446-1.8446,4.2531-2.9548,6.6352-3.0583l2.9232-0.1273V30.384 c0.5612-0.0243,1.1246-0.1376,1.6709-0.3309c0.9105-0.322,1.7731-0.866,2.4973-1.5903l8.5557-8.5557 c-0.2427-0.9022,0.1978-2.1692,1.2017-3.1731c1.1668-1.1668,2.6965-1.5859,3.5859-1.0379" style="stroke-width: 2.2137px;"/>
      <line x1="22" x2="35" y1="37" y2="50" fill="none" stroke="#000000" stroke-linecap="round" stroke-linejoin="round" stroke-miterlimit="10" style="stroke-width: 2.2137px;"/>
      <line x1="8.5" x2="21.5" y1="50.5" y2="63.5" fill="none" stroke="#000000" stroke-linecap="round" stroke-linejoin="round" stroke-miterlimit="10" style="stroke-width: 2.2137px;"/>
    </g>
  </g>
  <g transform="matrix(0.46675801277160645, 0, 0, 0.46675801277160645, 27.59493637084961, 35.387577056884766)" style="">
    <g id="g-5">
      <polygon fill="#EA5A47" stroke="none" points="55,26 17,26 17,14 43.0198,14 55,14" style="stroke-width: 4.16906px;"/>
      <path fill="#EA5A47" stroke="none" d="M56,24c0,11.0457-8.9543,20-20,20s-20-8.9543-20-20" style="stroke-width: 4.16906px;"/>
      <path fill="#d22f27" stroke="none" d="M55,24V14h-7.5698c0.5966,6.3347,0.293,21.2038-13.788,29.849C34.4169,43.9401,35.2009,44,36,44 c11.0457,0,20-8.9543,20-20H55z" style="stroke-width: 4.16906px;"/>
    </g>
    <g id="g-6">
      <line x1="20" x2="52" y1="67" y2="67" fill="none" stroke="#000000" stroke-linecap="round" stroke-linejoin="round" stroke-miterlimit="10" style="stroke-width: 4.16906px;"/>
      <line x1="36" x2="36" y1="44" y2="67" fill="none" stroke="#000000" stroke-linecap="round" stroke-linejoin="round" stroke-miterlimit="10" style="stroke-width: 4.16906px;"/>
      <path fill="none" stroke="#000000" stroke-linecap="round" stroke-linejoin="round" stroke-miterlimit="10" d="M56,24c0,3.265-0.7824,6.3473-2.1699,9.0696C50.5236,39.557,43.7807,44,36,44c-11.0457,0-20-8.9543-20-20" style="stroke-width: 4.16906px;"/>
      <line x1="16" x2="16" y1="5" y2="24" fill="none" stroke="#000000" stroke-linecap="round" stroke-linejoin="round" stroke-miterlimit="10" style="stroke-width: 4.16906px;"/>
      <line x1="56" x2="56" y1="5" y2="24" fill="none" stroke="#000000" stroke-linecap="round" stroke-linejoin="round" stroke-miterlimit="10" style="stroke-width: 4.16906px;"/>
      <line x1="15.5" x2="55.5" y1="14.5" y2="14.5" fill="none" stroke="#000000" stroke-miterlimit="10" style="stroke-width: 4.16906px;"/>
    </g>
  </g>
</svg>