<?xml version="1.0" encoding="utf-8"?>
<svg viewBox="0 0 72 72" xmlns="http://www.w3.org/2000/svg">
  <g transform="matrix(0.021113004535, -0.13330000639, 0.13330000639, 0.021113004535, 8.071249146311, 7.561470469358)" style="transform-origin: 50.168px 48.348px;">
    <g id="g-6" transform="matrix(1, 0, 0, 1, 13.667821, 12.347733)">
      <ellipse cx="36" cy="36" rx="19" ry="28" fill="#A57939" style="stroke-width: 7.51445px;"/>
      <g>
        <path fill="#6A462F" fill-rule="evenodd" d="M36 64C35.9846 64 35.981 63.9785 35.9956 63.9736C44.4605 61.1397 50.792 49.7143 50.792 36.0508C50.792 22.3796 44.4534 10.9491 35.9814 8.1232C35.9134 8.10052 35.9283 8 36 8C46.4934 8 55 20.536 55 36C55 51.464 46.4934 64 36 64Z" clip-rule="evenodd" style="stroke-width: 7.51445px;"/>
        <path fill="#6A462F" d="M35.9956 63.9736L36.3131 64.9218L35.9956 63.9736ZM49.792 36.0508C49.792 42.734 48.2426 48.841 45.6871 53.6002C43.1261 58.3698 39.5986 61.7128 35.6781 63.0253L36.3131 64.9218C40.8575 63.4004 44.7282 59.6138 47.4492 54.5463C50.1758 49.4684 51.792 43.031 51.792 36.0508H49.792ZM35.665 9.07182C39.5885 10.3805 43.1193 13.7226 45.6829 18.4933C48.2408 23.2536 49.792 29.3638 49.792 36.0508H51.792C51.792 29.0666 50.174 22.6259 47.4446 17.5467C44.7209 12.4778 40.8463 8.69175 36.2978 7.17458L35.665 9.07182ZM36 9C40.8166 9 45.2921 11.8765 48.6076 16.7625C51.9193 21.643 54 28.4415 54 36H56C56 28.0945 53.8274 20.893 50.2625 15.6395C46.7013 10.3915 41.6769 7 36 7V9ZM54 36C54 43.5585 51.9193 50.357 48.6076 55.2375C45.2921 60.1235 40.8166 63 36 63V65C41.6769 65 46.7013 61.6085 50.2625 56.3605C53.8274 51.107 56 43.9055 56 36H54ZM36.2978 7.17458C36.7904 7.3389 36.9844 7.82089 36.9272 8.20152C36.8694 8.58686 36.5324 9 36 9V7C35.3959 7 35.0156 7.4634 34.9494 7.90467C34.8839 8.34123 35.1043 8.88483 35.665 9.07182L36.2978 7.17458ZM35.6781 63.0253C34.553 63.402 34.8885 65 36 65V63C37.0808 63 37.409 64.5549 36.3131 64.9218L35.6781 63.0253Z" style="stroke-width: 7.51445px;"/>
      </g>
      <g>
        <path fill="#6A462F" fill-rule="evenodd" d="M36 60.9996C36 60.9996 30 49.8067 30 35.9996C30 22.2397 35.9591 11.0761 35.9998 11C35.9711 11.0538 33 16.6294 33 23.4996C33 30.4032 36 35.9996 36 35.9996C36 35.9996 39 41.596 39 48.4996C39 55.4032 36 60.9996 36 60.9996Z" clip-rule="evenodd" style="stroke-width: 7.51445px;"/>
        <path fill="#6A462F" d="M36 60.9996L35.1186 61.4721C35.2928 61.7969 35.6314 61.9996 36 61.9996C36.3686 61.9996 36.7072 61.7969 36.8814 61.4721L36 60.9996ZM35.9998 11L36.8817 11.4713C37.142 10.9843 36.9583 10.3785 36.4713 10.1181C35.9843 9.85776 35.3785 10.0414 35.118 10.5283L35.9998 11ZM36 35.9996L36.8814 35.5271L36 35.9996ZM29 35.9996C29 43.0422 30.529 49.4021 32.0508 53.992C32.8126 56.2896 33.575 58.1509 34.1488 59.4413C34.4357 60.0866 34.6757 60.5897 34.8451 60.9336C34.9299 61.1056 34.997 61.2379 35.0435 61.3283C35.0668 61.3735 35.085 61.4083 35.0976 61.4323C35.1039 61.4443 35.1089 61.4537 35.1124 61.4603C35.1142 61.4636 35.1156 61.4663 35.1166 61.4682C35.1171 61.4692 35.1176 61.47 35.1179 61.4707C35.1181 61.471 35.1183 61.4713 35.1183 61.4715C35.1185 61.4718 35.1186 61.4721 36 60.9996C36.8814 60.5271 36.8815 60.5273 36.8815 60.5275C36.8815 60.5275 36.8816 60.5275 36.8816 60.5275C36.8815 60.5275 36.8814 60.5273 36.8812 60.5269C36.8808 60.5261 36.88 60.5247 36.8789 60.5226C36.8767 60.5183 36.873 60.5114 36.868 60.5018C36.8579 60.4827 36.8424 60.4529 36.8217 60.4128C36.7804 60.3325 36.7186 60.2108 36.6392 60.0498C36.4806 59.7277 36.2518 59.2484 35.9762 58.6287C35.425 57.3889 34.6874 55.589 33.9492 53.3626C32.471 48.9042 31 42.7641 31 35.9996L29 35.9996ZM35.118 10.5283C35.0545 10.6471 29 21.9887 29 35.9996L31 35.9996C31 22.4906 36.8636 11.5052 36.8816 11.4717L35.118 10.5283ZM34 23.4996C34 20.2029 34.714 17.201 35.4387 15.0073C36.1623 12.8167 36.8861 11.4631 36.8817 11.4713L35.1178 10.5286C35.0663 10.6251 32 16.3787 32 23.4996L34 23.4996ZM36 35.9996C36.8814 35.5271 36.8815 35.5273 36.8816 35.5275C36.8816 35.5276 36.8817 35.5277 36.8817 35.5278C36.8818 35.5279 36.8818 35.5279 36.8818 35.5279C36.8817 35.5278 36.8815 35.5274 36.8811 35.5266C36.8803 35.5251 36.8788 35.5223 36.8766 35.5181C36.8722 35.5097 36.8651 35.4961 36.8554 35.4773C36.836 35.4397 36.8065 35.3815 36.7681 35.3037C36.6915 35.1481 36.5799 34.9145 36.445 34.611C36.175 34.0037 35.8124 33.1192 35.4492 32.0237C34.721 29.8274 34 26.8124 34 23.4996L32 23.4996C32 27.0904 32.779 30.3253 33.5508 32.6531C33.9376 33.8198 34.325 34.7658 34.6175 35.4236C34.7638 35.7527 34.8866 36.0101 34.974 36.1876C35.0178 36.2763 35.0527 36.3451 35.0772 36.3928C35.0895 36.4167 35.0993 36.4353 35.1062 36.4486C35.1097 36.4552 35.1125 36.4605 35.1146 36.4644C35.1156 36.4664 35.1165 36.468 35.1172 36.4693C35.1175 36.4699 35.1178 36.4704 35.118 36.4709C35.1182 36.4711 35.1183 36.4714 35.1184 36.4716C35.1185 36.4718 35.1186 36.4721 36 35.9996ZM36 35.9996C35.1186 36.4721 35.1185 36.4719 35.1184 36.4717C35.1184 36.4716 35.1183 36.4715 35.1183 36.4714C35.1182 36.4713 35.1182 36.4713 35.1182 36.4713C35.1183 36.4714 35.1185 36.4718 35.1189 36.4726C35.1197 36.4741 35.1212 36.4769 35.1234 36.4811C35.1278 36.4895 35.1349 36.5031 35.1446 36.5219C35.164 36.5595 35.1935 36.6177 35.2319 36.6955C35.3085 36.8511 35.4201 37.0847 35.555 37.3882C35.825 37.9955 36.1876 38.88 36.5508 39.9755C37.279 42.1718 38 45.1868 38 48.4996L40 48.4996C40 44.9088 39.221 41.6739 38.4492 39.3461C38.0624 38.1795 37.675 37.2334 37.3825 36.5756C37.2362 36.2465 37.1134 35.9891 37.026 35.8116C36.9822 35.7229 36.9474 35.6541 36.9228 35.6064C36.9105 35.5825 36.9008 35.5639 36.8938 35.5506C36.8903 35.544 36.8875 35.5387 36.8854 35.5348C36.8844 35.5328 36.8835 35.5312 36.8829 35.5299C36.8825 35.5293 36.8822 35.5288 36.882 35.5283C36.8818 35.5281 36.8817 35.5278 36.8816 35.5277C36.8815 35.5274 36.8814 35.5271 36 35.9996ZM38 48.4996C38 51.8124 37.279 54.8274 36.5508 57.0237C36.1876 58.1192 35.825 59.0037 35.555 59.611C35.4201 59.9145 35.3085 60.1481 35.2319 60.3037C35.1935 60.3815 35.164 60.4397 35.1446 60.4773C35.1349 60.4961 35.1278 60.5097 35.1234 60.5181C35.1212 60.5223 35.1197 60.5251 35.1189 60.5266C35.1185 60.5274 35.1183 60.5278 35.1182 60.5279C35.1182 60.5279 35.1182 60.5279 35.1183 60.5278C35.1183 60.5277 35.1184 60.5276 35.1184 60.5275C35.1185 60.5273 35.1186 60.5271 36 60.9996C36.8814 61.4721 36.8815 61.4718 36.8816 61.4716C36.8817 61.4714 36.8818 61.4711 36.882 61.4709C36.8822 61.4704 36.8825 61.4699 36.8829 61.4693C36.8835 61.468 36.8844 61.4664 36.8854 61.4644C36.8875 61.4605 36.8903 61.4552 36.8938 61.4486C36.9007 61.4353 36.9105 61.4167 36.9228 61.3928C36.9473 61.3451 36.9822 61.2763 37.026 61.1876C37.1134 61.0101 37.2362 60.7527 37.3825 60.4236C37.675 59.7658 38.0624 58.8198 38.4492 57.6531C39.221 55.3253 40 52.0904 40 48.4996L38 48.4996Z" style="stroke-width: 7.51445px;"/>
      </g>
    </g>
    <g id="g-7" transform="matrix(1, 0, 0, 1, 13.667821, 12.347733)">
      <ellipse cx="36" cy="36" rx="19" ry="28" fill="none" stroke="#000" style="stroke-width: 7.51445px;"/>
      <path fill="none" stroke="#000" stroke-linecap="round" stroke-linejoin="round" d="M36 36C36 36 33 30.4036 33 23.5C33 16.5964 36 11 36 11" style="stroke-width: 7.51445px;"/>
      <path fill="none" stroke="#000" stroke-linecap="round" stroke-linejoin="round" d="M36 36C36 36 39 41.5964 39 48.5C39 55.4036 36 61 36 61" style="stroke-width: 7.51445px;"/>
    </g>
  </g>
  <g transform="matrix(0.9269429445266724, 0, 0, 0.9269429445266724, 7.25776481628418, 2.501465082168579)" style="">
    <g id="g-1">
      <path fill="#fff" d="M22 16H50V22H23L18 18L22 16Z" style="stroke-width: 2.18819px;"/>
      <path fill="#A57939" fill-rule="evenodd" d="M50 21V21.6981V56C50 58.2091 48.2091 60 46 60H26C23.7909 60 22 58.2091 22 56V21.6981V21H50Z" clip-rule="evenodd" style="stroke-width: 2.18819px;"/>
      <path fill="#3F3F3F" d="M35.5 5C33.567 5 32 6.567 32 8.5C32 9.0368 32.1208 9.54537 32.3368 10H38.6632C38.8792 9.54537 39 9.0368 39 8.5C39 6.567 37.433 5 35.5 5Z" style="stroke-width: 2.18819px;"/>
      <path fill="#9B9B9A" d="M34 15.5L37 15.5V26L34 24V15.5Z" style="stroke-width: 2.18819px;"/>
      <path fill="#3F3F3F" fill-rule="evenodd" d="M50 16.5V15C50 13.3431 48.6569 12 47 12H25C23.3431 12 22 13.3431 22 15V16.5H50Z" clip-rule="evenodd" style="stroke-width: 2.18819px;"/>
      <path fill="#6A462F" fill-rule="evenodd" d="M50 56H22C22 58.2091 23.7909 60 26 60H46C48.2091 60 50 58.2091 50 56Z" clip-rule="evenodd" style="stroke-width: 2.18819px;"/>
      <path fill="#3F3F3F" fill-rule="evenodd" d="M50 46V50C57.732 50 64 43.732 64 36C64 28.268 57.732 22 50 22V26C55.5228 26 60 30.4772 60 36C60 41.5228 55.5228 46 50 46Z" clip-rule="evenodd" style="stroke-width: 2.18819px;"/>
      <path fill="none" stroke="#3F3F3F" stroke-linecap="round" d="M35.5 5C33.567 5 32 6.567 32 8.5C32 9.0368 32.1208 9.54537 32.3368 10H38.6632C38.8792 9.54537 39 9.0368 39 8.5C39 6.567 37.433 5 35.5 5Z" style="stroke-width: 2.18819px;"/>
    </g>
    <g id="g-2">
      <g id="line_2">
        <path fill="none" fill-rule="evenodd" stroke="#000" stroke-linejoin="round" d="M22 15C22 13.3431 23.3431 12 25 12H47C48.6569 12 50 13.3431 50 15V17V21.9556V24.6444V56C50 58.2091 48.2091 60 46 60H26C23.7909 60 22 58.2091 22 56V21.5L17.5 18L22 15.5V15Z" clip-rule="evenodd" style="stroke-width: 2.18819px;"/>
      </g>
      <path fill="#000" d="M50 50H49V51H50V50ZM50 46V45H49V46H50ZM50 22V21H49V22H50ZM50 26H49V27H50V26ZM51 50V46H49V50H51ZM63 36C63 43.1797 57.1797 49 50 49V51C58.2843 51 65 44.2843 65 36H63ZM50 23C57.1797 23 63 28.8203 63 36H65C65 27.7157 58.2843 21 50 21V23ZM51 26V22H49V26H51ZM50 27C54.9706 27 59 31.0294 59 36H61C61 29.9249 56.0751 25 50 25V27ZM59 36C59 40.9706 54.9706 45 50 45V47C56.0751 47 61 42.0751 61 36H59Z" style="stroke-width: 2.18819px;"/>
      <path fill="none" stroke="#000" stroke-linecap="round" d="M22 15.5H47" style="stroke-width: 2.18819px;"/>
      <path fill="none" stroke="#000" stroke-linecap="round" d="M32.3368 10C32.1208 9.54537 32 9.0368 32 8.5C32 6.567 33.567 5 35.5 5C37.433 5 39 6.567 39 8.5C39 9.0368 38.8792 9.54537 38.6632 10" style="stroke-width: 2.18819px;"/>
      <path fill="none" stroke="#000" stroke-linecap="round" d="M34 16L34 24" style="stroke-width: 2.18819px;"/>
      <line x1="37" x2="37" y1="16" y2="26" stroke="#000" stroke-linecap="round" style="stroke-width: 2.18819px;"/>
      <line x1="23" x2="31" y1="22" y2="22" stroke="#000" stroke-linecap="round" style="stroke-width: 2.18819px;"/>
      <path fill="none" stroke="#000" stroke-linecap="round" d="M40 22H50" style="stroke-width: 2.18819px;"/>
    </g>
  </g>
  <g transform="matrix(0.715116024017334, 0, 0, 0.715116024017334, -4.368957042694092, 20.422618865966797)" style="">
    <g>
      <g id="line-supplement">
        <path fill="#000" d="M39.06 20.6179L38.3551 19.9086L38.3529 19.9108L39.06 20.6179ZM39.0714 13.5355L38.3643 14.2426L39.0714 13.5355ZM31.2932 12.8284C30.9027 13.2189 30.9027 13.8521 31.2932 14.2426C31.6838 14.6331 32.3169 14.6331 32.7075 14.2426L31.2932 12.8284ZM36.243 13.5355L35.5359 14.2426V14.2426L36.243 13.5355ZM36.243 17.7782L35.5359 17.071V17.071L36.243 17.7782ZM32.7896 21.2316L33.4944 21.9409L33.4967 21.9387L32.7896 21.2316ZM32.7782 21.2429L33.4853 21.95L33.4853 21.95L32.7782 21.2429ZM32.7782 28.314L32.0711 29.0211L32.7782 28.314ZM40.5564 29.0211C40.9469 28.6306 40.9469 27.9974 40.5564 27.6069C40.1658 27.2164 39.5327 27.2164 39.1421 27.6069L40.5564 29.0211ZM35.6066 28.314L36.3137 27.6069H36.3137L35.6066 28.314ZM35.6066 24.0714L36.3137 24.7785L35.6066 24.0714ZM39.765 21.3272C39.7694 21.3228 39.774 21.3182 39.7785 21.3137L38.3643 19.8995C38.3613 19.9025 38.3582 19.9055 38.3551 19.9086L39.765 21.3272ZM39.7785 21.3137C42.1217 18.9705 42.1217 15.1715 39.7785 12.8284L38.3643 14.2426C39.9264 15.8047 39.9264 18.3374 38.3643 19.8995L39.7785 21.3137ZM39.7785 12.8284C37.4354 10.4853 33.6364 10.4853 31.2932 12.8284L32.7075 14.2426C34.2696 12.6805 36.8022 12.6805 38.3643 14.2426L39.7785 12.8284ZM32.7075 14.2426C33.4885 13.4616 34.7548 13.4616 35.5359 14.2426L36.9501 12.8284C35.388 11.2663 32.8553 11.2663 31.2932 12.8284L32.7075 14.2426ZM35.5359 14.2426C36.3169 15.0237 36.3169 16.29 35.5359 17.071L36.9501 18.4853C38.5122 16.9232 38.5122 14.3905 36.9501 12.8284L35.5359 14.2426ZM35.5359 17.071L32.0825 20.5245L33.4967 21.9387L36.9501 18.4853L35.5359 17.071ZM32.0847 20.5222C32.0802 20.5267 32.0756 20.5313 32.0711 20.5358L33.4853 21.95C33.4883 21.947 33.4914 21.944 33.4944 21.9409L32.0847 20.5222ZM32.0711 20.5358C29.7279 22.879 29.7279 26.678 32.0711 29.0211L33.4853 27.6069C31.9232 26.0448 31.9232 23.5121 33.4853 21.95L32.0711 20.5358ZM32.0711 29.0211C34.4142 31.3642 38.2132 31.3642 40.5564 29.0211L39.1421 27.6069C37.58 29.169 35.0474 29.169 33.4853 27.6069L32.0711 29.0211ZM39.1421 27.6069C38.3611 28.3879 37.0948 28.3879 36.3137 27.6069L34.8995 29.0211C36.4616 30.5832 38.9943 30.5832 40.5564 29.0211L39.1421 27.6069ZM36.3137 27.6069C35.5327 26.8258 35.5327 25.5595 36.3137 24.7785L34.8995 23.3642C33.3374 24.9263 33.3374 27.459 34.8995 29.0211L36.3137 27.6069ZM36.3137 24.7785L39.7671 21.325L38.3529 19.9108L34.8995 23.3642L36.3137 24.7785Z" style="stroke-width: 2.83636px;"/>
      </g>
      <g id="color">
        <g>
          <path fill="#fff" fill-rule="evenodd" d="M36 52C45.9411 52 54 43.9411 54 34H18C18 43.9411 26.0589 52 36 52Z" clip-rule="evenodd" style="stroke-width: 2.83636px;"/>
          <path fill="#fff" d="M54 34H55C55 33.4477 54.5523 33 54 33V34ZM18 34V33C17.4477 33 17 33.4477 17 34H18ZM53 34C53 43.3888 45.3888 51 36 51V53C46.4934 53 55 44.4934 55 34H53ZM18 35H54V33H18V35ZM36 51C26.6112 51 19 43.3888 19 34H17C17 44.4934 25.5066 53 36 53V51Z" style="stroke-width: 2.83636px;"/>
        </g>
        <path fill="#fff" fill-rule="evenodd" d="M15.8703 55C15.5914 55 15.3245 54.8842 15.1384 54.6765C14.238 53.6714 13.4091 52.6009 12.6599 51.4729C12.2337 50.8314 12.7094 50 13.4796 50H58.5203C59.2905 50 59.7662 50.8314 59.34 51.4729C58.5908 52.6009 57.7619 53.6714 56.8615 54.6765C56.6754 54.8842 56.4085 55 56.1297 55H15.8703Z" clip-rule="evenodd" style="stroke-width: 2.83636px;"/>
        <path fill="#D0CFCE" fill-rule="evenodd" d="M48.0399 50C48.7653 50 49.2472 50.7475 48.9166 51.3931C48.3424 52.5144 47.7073 53.5794 47.0174 54.5803C46.8345 54.8455 46.5311 55 46.209 55H56.1296C56.4085 55 56.6754 54.8842 56.8615 54.6765C57.7619 53.6714 58.5907 52.6009 59.34 51.4729C59.7662 50.8314 59.2905 50 58.5203 50H48.0399Z" clip-rule="evenodd" style="stroke-width: 2.83636px;"/>
        <g>
          <path fill="#D0CFCE" fill-rule="evenodd" d="M44.2544 50C50.0431 47.0075 54 40.9659 54 34H47C47 40.9659 44.5819 47.0075 41.0444 50H44.2544Z" clip-rule="evenodd" style="stroke-width: 2.83636px;"/>
          <path fill="#D0CFCE" d="M54 34H55V33H54V34ZM44.2544 50V51H44.4976L44.7136 50.8883L44.2544 50ZM47 34V33H46V34H47ZM41.0444 50L40.3985 49.2365L38.3138 51H41.0444V50ZM53 34C53 40.5774 49.2648 46.2842 43.7952 49.1117L44.7136 50.8883C50.8214 47.7309 55 41.3543 55 34H53ZM47 35H54V33H47V35ZM41.6902 50.7635C45.5261 47.5186 48 41.1473 48 34H46C46 40.7844 43.6377 46.4965 40.3985 49.2365L41.6902 50.7635ZM44.2544 49H41.0444V51H44.2544V49Z" style="stroke-width: 2.83636px;"/>
        </g>
        <g>
          <g>
            <g/>
          </g>
        </g>
      </g>
      <g id="line">
        <path fill="none" stroke="#000" stroke-linecap="round" stroke-linejoin="round" d="M24 47.4166C20.3175 44.1207 18 39.331 18 34H54C54 39.331 51.6825 44.1207 48 47.4166" style="stroke-width: 2.83636px;"/>
        <path fill="#000" d="M56.8615 54.6765L56.1167 54.0092L56.8615 54.6765ZM59.34 51.4729L60.173 52.0262L59.34 51.4729ZM15.1384 54.6765L14.3936 55.3437L15.1384 54.6765ZM15.8832 54.0092C15.0148 53.0398 14.2154 52.0073 13.4929 50.9196L11.8269 52.0262C12.6029 53.1944 13.4612 54.303 14.3936 55.3437L15.8832 54.0092ZM13.4796 51H58.5203V49H13.4796V51ZM58.5071 50.9196C57.7845 52.0073 56.9851 53.0398 56.1167 54.0092L57.6063 55.3437C58.5387 54.303 59.397 53.1944 60.173 52.0262L58.5071 50.9196ZM56.1297 54H15.8703V56H56.1297V54ZM56.1167 54.0092C56.1209 54.0045 56.1252 54.0019 56.1277 54.0008C56.13 53.9998 56.1307 54 56.1297 54V56C56.6844 56 57.225 55.7693 57.6063 55.3437L56.1167 54.0092ZM58.5203 51C58.5261 51 58.5272 51.0007 58.5252 51.0001C58.5233 50.9996 58.5206 50.9985 58.5178 50.9969C58.5128 50.9938 58.5095 50.9902 58.5071 50.9859C58.5046 50.9814 58.4999 50.9704 58.5002 50.9525C58.5004 50.9435 58.5019 50.9347 58.5042 50.9273C58.5066 50.9198 58.5087 50.9171 58.5071 50.9196L60.173 52.0262C61.0716 50.6735 60.032 49 58.5203 49V51ZM13.4929 50.9196C13.4912 50.9171 13.4933 50.9198 13.4957 50.9273C13.498 50.9347 13.4995 50.9435 13.4997 50.9525C13.5 50.9704 13.4953 50.9814 13.4928 50.9859C13.4904 50.9902 13.4871 50.9938 13.4821 50.9968C13.4793 50.9985 13.4766 50.9996 13.4747 51.0001C13.4727 51.0007 13.4738 51 13.4796 51V49C11.9679 49 10.9283 50.6735 11.8269 52.0262L13.4929 50.9196ZM14.3936 55.3437C14.7749 55.7693 15.3155 56 15.8703 56V54C15.8692 54 15.8699 53.9998 15.8722 54.0008C15.8747 54.0019 15.879 54.0045 15.8832 54.0092L14.3936 55.3437Z" style="stroke-width: 2.83636px;"/>
        <path fill="none" stroke="#000" stroke-linecap="round" d="M51 45H55.5C58.5376 45 61 42.5376 61 39.5C61 36.4624 58.5376 34 55.5 34H53" style="stroke-width: 2.83636px;"/>
      </g>
    </g>
  </g>
  <g transform="matrix(0.063360996544, -0.119164012372, 0.119164012372, 0.063360996544, -0.435118064289, 3.370637454323)" style="transform-origin: 50.1678px 48.3477px;">
    <g id="g-5" transform="matrix(1, 0, 0, 1, 13.667821, 12.347733)">
      <ellipse cx="36" cy="36" rx="19" ry="28" fill="#A57939" style="stroke-width: 7.51445px;"/>
      <g>
        <path fill="#6A462F" fill-rule="evenodd" d="M36 64C35.9846 64 35.981 63.9785 35.9956 63.9736C44.4605 61.1397 50.792 49.7143 50.792 36.0508C50.792 22.3796 44.4534 10.9491 35.9814 8.1232C35.9134 8.10052 35.9283 8 36 8C46.4934 8 55 20.536 55 36C55 51.464 46.4934 64 36 64Z" clip-rule="evenodd" style="stroke-width: 7.51445px;"/>
        <path fill="#6A462F" d="M35.9956 63.9736L36.3131 64.9218L35.9956 63.9736ZM49.792 36.0508C49.792 42.734 48.2426 48.841 45.6871 53.6002C43.1261 58.3698 39.5986 61.7128 35.6781 63.0253L36.3131 64.9218C40.8575 63.4004 44.7282 59.6138 47.4492 54.5463C50.1758 49.4684 51.792 43.031 51.792 36.0508H49.792ZM35.665 9.07182C39.5885 10.3805 43.1193 13.7226 45.6829 18.4933C48.2408 23.2536 49.792 29.3638 49.792 36.0508H51.792C51.792 29.0666 50.174 22.6259 47.4446 17.5467C44.7209 12.4778 40.8463 8.69175 36.2978 7.17458L35.665 9.07182ZM36 9C40.8166 9 45.2921 11.8765 48.6076 16.7625C51.9193 21.643 54 28.4415 54 36H56C56 28.0945 53.8274 20.893 50.2625 15.6395C46.7013 10.3915 41.6769 7 36 7V9ZM54 36C54 43.5585 51.9193 50.357 48.6076 55.2375C45.2921 60.1235 40.8166 63 36 63V65C41.6769 65 46.7013 61.6085 50.2625 56.3605C53.8274 51.107 56 43.9055 56 36H54ZM36.2978 7.17458C36.7904 7.3389 36.9844 7.82089 36.9272 8.20152C36.8694 8.58686 36.5324 9 36 9V7C35.3959 7 35.0156 7.4634 34.9494 7.90467C34.8839 8.34123 35.1043 8.88483 35.665 9.07182L36.2978 7.17458ZM35.6781 63.0253C34.553 63.402 34.8885 65 36 65V63C37.0808 63 37.409 64.5549 36.3131 64.9218L35.6781 63.0253Z" style="stroke-width: 7.51445px;"/>
      </g>
      <g>
        <path fill="#6A462F" fill-rule="evenodd" d="M36 60.9996C36 60.9996 30 49.8067 30 35.9996C30 22.2397 35.9591 11.0761 35.9998 11C35.9711 11.0538 33 16.6294 33 23.4996C33 30.4032 36 35.9996 36 35.9996C36 35.9996 39 41.596 39 48.4996C39 55.4032 36 60.9996 36 60.9996Z" clip-rule="evenodd" style="stroke-width: 7.51445px;"/>
        <path fill="#6A462F" d="M36 60.9996L35.1186 61.4721C35.2928 61.7969 35.6314 61.9996 36 61.9996C36.3686 61.9996 36.7072 61.7969 36.8814 61.4721L36 60.9996ZM35.9998 11L36.8817 11.4713C37.142 10.9843 36.9583 10.3785 36.4713 10.1181C35.9843 9.85776 35.3785 10.0414 35.118 10.5283L35.9998 11ZM36 35.9996L36.8814 35.5271L36 35.9996ZM29 35.9996C29 43.0422 30.529 49.4021 32.0508 53.992C32.8126 56.2896 33.575 58.1509 34.1488 59.4413C34.4357 60.0866 34.6757 60.5897 34.8451 60.9336C34.9299 61.1056 34.997 61.2379 35.0435 61.3283C35.0668 61.3735 35.085 61.4083 35.0976 61.4323C35.1039 61.4443 35.1089 61.4537 35.1124 61.4603C35.1142 61.4636 35.1156 61.4663 35.1166 61.4682C35.1171 61.4692 35.1176 61.47 35.1179 61.4707C35.1181 61.471 35.1183 61.4713 35.1183 61.4715C35.1185 61.4718 35.1186 61.4721 36 60.9996C36.8814 60.5271 36.8815 60.5273 36.8815 60.5275C36.8815 60.5275 36.8816 60.5275 36.8816 60.5275C36.8815 60.5275 36.8814 60.5273 36.8812 60.5269C36.8808 60.5261 36.88 60.5247 36.8789 60.5226C36.8767 60.5183 36.873 60.5114 36.868 60.5018C36.8579 60.4827 36.8424 60.4529 36.8217 60.4128C36.7804 60.3325 36.7186 60.2108 36.6392 60.0498C36.4806 59.7277 36.2518 59.2484 35.9762 58.6287C35.425 57.3889 34.6874 55.589 33.9492 53.3626C32.471 48.9042 31 42.7641 31 35.9996L29 35.9996ZM35.118 10.5283C35.0545 10.6471 29 21.9887 29 35.9996L31 35.9996C31 22.4906 36.8636 11.5052 36.8816 11.4717L35.118 10.5283ZM34 23.4996C34 20.2029 34.714 17.201 35.4387 15.0073C36.1623 12.8167 36.8861 11.4631 36.8817 11.4713L35.1178 10.5286C35.0663 10.6251 32 16.3787 32 23.4996L34 23.4996ZM36 35.9996C36.8814 35.5271 36.8815 35.5273 36.8816 35.5275C36.8816 35.5276 36.8817 35.5277 36.8817 35.5278C36.8818 35.5279 36.8818 35.5279 36.8818 35.5279C36.8817 35.5278 36.8815 35.5274 36.8811 35.5266C36.8803 35.5251 36.8788 35.5223 36.8766 35.5181C36.8722 35.5097 36.8651 35.4961 36.8554 35.4773C36.836 35.4397 36.8065 35.3815 36.7681 35.3037C36.6915 35.1481 36.5799 34.9145 36.445 34.611C36.175 34.0037 35.8124 33.1192 35.4492 32.0237C34.721 29.8274 34 26.8124 34 23.4996L32 23.4996C32 27.0904 32.779 30.3253 33.5508 32.6531C33.9376 33.8198 34.325 34.7658 34.6175 35.4236C34.7638 35.7527 34.8866 36.0101 34.974 36.1876C35.0178 36.2763 35.0527 36.3451 35.0772 36.3928C35.0895 36.4167 35.0993 36.4353 35.1062 36.4486C35.1097 36.4552 35.1125 36.4605 35.1146 36.4644C35.1156 36.4664 35.1165 36.468 35.1172 36.4693C35.1175 36.4699 35.1178 36.4704 35.118 36.4709C35.1182 36.4711 35.1183 36.4714 35.1184 36.4716C35.1185 36.4718 35.1186 36.4721 36 35.9996ZM36 35.9996C35.1186 36.4721 35.1185 36.4719 35.1184 36.4717C35.1184 36.4716 35.1183 36.4715 35.1183 36.4714C35.1182 36.4713 35.1182 36.4713 35.1182 36.4713C35.1183 36.4714 35.1185 36.4718 35.1189 36.4726C35.1197 36.4741 35.1212 36.4769 35.1234 36.4811C35.1278 36.4895 35.1349 36.5031 35.1446 36.5219C35.164 36.5595 35.1935 36.6177 35.2319 36.6955C35.3085 36.8511 35.4201 37.0847 35.555 37.3882C35.825 37.9955 36.1876 38.88 36.5508 39.9755C37.279 42.1718 38 45.1868 38 48.4996L40 48.4996C40 44.9088 39.221 41.6739 38.4492 39.3461C38.0624 38.1795 37.675 37.2334 37.3825 36.5756C37.2362 36.2465 37.1134 35.9891 37.026 35.8116C36.9822 35.7229 36.9474 35.6541 36.9228 35.6064C36.9105 35.5825 36.9008 35.5639 36.8938 35.5506C36.8903 35.544 36.8875 35.5387 36.8854 35.5348C36.8844 35.5328 36.8835 35.5312 36.8829 35.5299C36.8825 35.5293 36.8822 35.5288 36.882 35.5283C36.8818 35.5281 36.8817 35.5278 36.8816 35.5277C36.8815 35.5274 36.8814 35.5271 36 35.9996ZM38 48.4996C38 51.8124 37.279 54.8274 36.5508 57.0237C36.1876 58.1192 35.825 59.0037 35.555 59.611C35.4201 59.9145 35.3085 60.1481 35.2319 60.3037C35.1935 60.3815 35.164 60.4397 35.1446 60.4773C35.1349 60.4961 35.1278 60.5097 35.1234 60.5181C35.1212 60.5223 35.1197 60.5251 35.1189 60.5266C35.1185 60.5274 35.1183 60.5278 35.1182 60.5279C35.1182 60.5279 35.1182 60.5279 35.1183 60.5278C35.1183 60.5277 35.1184 60.5276 35.1184 60.5275C35.1185 60.5273 35.1186 60.5271 36 60.9996C36.8814 61.4721 36.8815 61.4718 36.8816 61.4716C36.8817 61.4714 36.8818 61.4711 36.882 61.4709C36.8822 61.4704 36.8825 61.4699 36.8829 61.4693C36.8835 61.468 36.8844 61.4664 36.8854 61.4644C36.8875 61.4605 36.8903 61.4552 36.8938 61.4486C36.9007 61.4353 36.9105 61.4167 36.9228 61.3928C36.9473 61.3451 36.9822 61.2763 37.026 61.1876C37.1134 61.0101 37.2362 60.7527 37.3825 60.4236C37.675 59.7658 38.0624 58.8198 38.4492 57.6531C39.221 55.3253 40 52.0904 40 48.4996L38 48.4996Z" style="stroke-width: 7.51445px;"/>
      </g>
    </g>
    <g id="g-8" transform="matrix(1, 0, 0, 1, 13.667821, 12.347733)">
      <ellipse cx="36" cy="36" rx="19" ry="28" fill="none" stroke="#000" style="stroke-width: 7.51445px;"/>
      <path fill="none" stroke="#000" stroke-linecap="round" stroke-linejoin="round" d="M36 36C36 36 33 30.4036 33 23.5C33 16.5964 36 11 36 11" style="stroke-width: 7.51445px;"/>
      <path fill="none" stroke="#000" stroke-linecap="round" stroke-linejoin="round" d="M36 36C36 36 39 41.5964 39 48.5C39 55.4036 36 61 36 61" style="stroke-width: 7.51445px;"/>
    </g>
  </g>
  <g transform="matrix(0.124233029783, -0.052734013647, 0.052734013647, 0.124233029783, 3.860983992583, 7.17800970339)" style="transform-origin: 50.1678px 48.3477px;">
    <g id="g-9" transform="matrix(1, 0, 0, 1, 13.667821, 12.347733)">
      <ellipse cx="36" cy="36" rx="19" ry="28" fill="#A57939" style="stroke-width: 7.51445px;"/>
      <g>
        <path fill="#6A462F" fill-rule="evenodd" d="M36 64C35.9846 64 35.981 63.9785 35.9956 63.9736C44.4605 61.1397 50.792 49.7143 50.792 36.0508C50.792 22.3796 44.4534 10.9491 35.9814 8.1232C35.9134 8.10052 35.9283 8 36 8C46.4934 8 55 20.536 55 36C55 51.464 46.4934 64 36 64Z" clip-rule="evenodd" style="stroke-width: 7.51445px;"/>
        <path fill="#6A462F" d="M35.9956 63.9736L36.3131 64.9218L35.9956 63.9736ZM49.792 36.0508C49.792 42.734 48.2426 48.841 45.6871 53.6002C43.1261 58.3698 39.5986 61.7128 35.6781 63.0253L36.3131 64.9218C40.8575 63.4004 44.7282 59.6138 47.4492 54.5463C50.1758 49.4684 51.792 43.031 51.792 36.0508H49.792ZM35.665 9.07182C39.5885 10.3805 43.1193 13.7226 45.6829 18.4933C48.2408 23.2536 49.792 29.3638 49.792 36.0508H51.792C51.792 29.0666 50.174 22.6259 47.4446 17.5467C44.7209 12.4778 40.8463 8.69175 36.2978 7.17458L35.665 9.07182ZM36 9C40.8166 9 45.2921 11.8765 48.6076 16.7625C51.9193 21.643 54 28.4415 54 36H56C56 28.0945 53.8274 20.893 50.2625 15.6395C46.7013 10.3915 41.6769 7 36 7V9ZM54 36C54 43.5585 51.9193 50.357 48.6076 55.2375C45.2921 60.1235 40.8166 63 36 63V65C41.6769 65 46.7013 61.6085 50.2625 56.3605C53.8274 51.107 56 43.9055 56 36H54ZM36.2978 7.17458C36.7904 7.3389 36.9844 7.82089 36.9272 8.20152C36.8694 8.58686 36.5324 9 36 9V7C35.3959 7 35.0156 7.4634 34.9494 7.90467C34.8839 8.34123 35.1043 8.88483 35.665 9.07182L36.2978 7.17458ZM35.6781 63.0253C34.553 63.402 34.8885 65 36 65V63C37.0808 63 37.409 64.5549 36.3131 64.9218L35.6781 63.0253Z" style="stroke-width: 7.51445px;"/>
      </g>
      <g>
        <path fill="#6A462F" fill-rule="evenodd" d="M36 60.9996C36 60.9996 30 49.8067 30 35.9996C30 22.2397 35.9591 11.0761 35.9998 11C35.9711 11.0538 33 16.6294 33 23.4996C33 30.4032 36 35.9996 36 35.9996C36 35.9996 39 41.596 39 48.4996C39 55.4032 36 60.9996 36 60.9996Z" clip-rule="evenodd" style="stroke-width: 7.51445px;"/>
        <path fill="#6A462F" d="M36 60.9996L35.1186 61.4721C35.2928 61.7969 35.6314 61.9996 36 61.9996C36.3686 61.9996 36.7072 61.7969 36.8814 61.4721L36 60.9996ZM35.9998 11L36.8817 11.4713C37.142 10.9843 36.9583 10.3785 36.4713 10.1181C35.9843 9.85776 35.3785 10.0414 35.118 10.5283L35.9998 11ZM36 35.9996L36.8814 35.5271L36 35.9996ZM29 35.9996C29 43.0422 30.529 49.4021 32.0508 53.992C32.8126 56.2896 33.575 58.1509 34.1488 59.4413C34.4357 60.0866 34.6757 60.5897 34.8451 60.9336C34.9299 61.1056 34.997 61.2379 35.0435 61.3283C35.0668 61.3735 35.085 61.4083 35.0976 61.4323C35.1039 61.4443 35.1089 61.4537 35.1124 61.4603C35.1142 61.4636 35.1156 61.4663 35.1166 61.4682C35.1171 61.4692 35.1176 61.47 35.1179 61.4707C35.1181 61.471 35.1183 61.4713 35.1183 61.4715C35.1185 61.4718 35.1186 61.4721 36 60.9996C36.8814 60.5271 36.8815 60.5273 36.8815 60.5275C36.8815 60.5275 36.8816 60.5275 36.8816 60.5275C36.8815 60.5275 36.8814 60.5273 36.8812 60.5269C36.8808 60.5261 36.88 60.5247 36.8789 60.5226C36.8767 60.5183 36.873 60.5114 36.868 60.5018C36.8579 60.4827 36.8424 60.4529 36.8217 60.4128C36.7804 60.3325 36.7186 60.2108 36.6392 60.0498C36.4806 59.7277 36.2518 59.2484 35.9762 58.6287C35.425 57.3889 34.6874 55.589 33.9492 53.3626C32.471 48.9042 31 42.7641 31 35.9996L29 35.9996ZM35.118 10.5283C35.0545 10.6471 29 21.9887 29 35.9996L31 35.9996C31 22.4906 36.8636 11.5052 36.8816 11.4717L35.118 10.5283ZM34 23.4996C34 20.2029 34.714 17.201 35.4387 15.0073C36.1623 12.8167 36.8861 11.4631 36.8817 11.4713L35.1178 10.5286C35.0663 10.6251 32 16.3787 32 23.4996L34 23.4996ZM36 35.9996C36.8814 35.5271 36.8815 35.5273 36.8816 35.5275C36.8816 35.5276 36.8817 35.5277 36.8817 35.5278C36.8818 35.5279 36.8818 35.5279 36.8818 35.5279C36.8817 35.5278 36.8815 35.5274 36.8811 35.5266C36.8803 35.5251 36.8788 35.5223 36.8766 35.5181C36.8722 35.5097 36.8651 35.4961 36.8554 35.4773C36.836 35.4397 36.8065 35.3815 36.7681 35.3037C36.6915 35.1481 36.5799 34.9145 36.445 34.611C36.175 34.0037 35.8124 33.1192 35.4492 32.0237C34.721 29.8274 34 26.8124 34 23.4996L32 23.4996C32 27.0904 32.779 30.3253 33.5508 32.6531C33.9376 33.8198 34.325 34.7658 34.6175 35.4236C34.7638 35.7527 34.8866 36.0101 34.974 36.1876C35.0178 36.2763 35.0527 36.3451 35.0772 36.3928C35.0895 36.4167 35.0993 36.4353 35.1062 36.4486C35.1097 36.4552 35.1125 36.4605 35.1146 36.4644C35.1156 36.4664 35.1165 36.468 35.1172 36.4693C35.1175 36.4699 35.1178 36.4704 35.118 36.4709C35.1182 36.4711 35.1183 36.4714 35.1184 36.4716C35.1185 36.4718 35.1186 36.4721 36 35.9996ZM36 35.9996C35.1186 36.4721 35.1185 36.4719 35.1184 36.4717C35.1184 36.4716 35.1183 36.4715 35.1183 36.4714C35.1182 36.4713 35.1182 36.4713 35.1182 36.4713C35.1183 36.4714 35.1185 36.4718 35.1189 36.4726C35.1197 36.4741 35.1212 36.4769 35.1234 36.4811C35.1278 36.4895 35.1349 36.5031 35.1446 36.5219C35.164 36.5595 35.1935 36.6177 35.2319 36.6955C35.3085 36.8511 35.4201 37.0847 35.555 37.3882C35.825 37.9955 36.1876 38.88 36.5508 39.9755C37.279 42.1718 38 45.1868 38 48.4996L40 48.4996C40 44.9088 39.221 41.6739 38.4492 39.3461C38.0624 38.1795 37.675 37.2334 37.3825 36.5756C37.2362 36.2465 37.1134 35.9891 37.026 35.8116C36.9822 35.7229 36.9474 35.6541 36.9228 35.6064C36.9105 35.5825 36.9008 35.5639 36.8938 35.5506C36.8903 35.544 36.8875 35.5387 36.8854 35.5348C36.8844 35.5328 36.8835 35.5312 36.8829 35.5299C36.8825 35.5293 36.8822 35.5288 36.882 35.5283C36.8818 35.5281 36.8817 35.5278 36.8816 35.5277C36.8815 35.5274 36.8814 35.5271 36 35.9996ZM38 48.4996C38 51.8124 37.279 54.8274 36.5508 57.0237C36.1876 58.1192 35.825 59.0037 35.555 59.611C35.4201 59.9145 35.3085 60.1481 35.2319 60.3037C35.1935 60.3815 35.164 60.4397 35.1446 60.4773C35.1349 60.4961 35.1278 60.5097 35.1234 60.5181C35.1212 60.5223 35.1197 60.5251 35.1189 60.5266C35.1185 60.5274 35.1183 60.5278 35.1182 60.5279C35.1182 60.5279 35.1182 60.5279 35.1183 60.5278C35.1183 60.5277 35.1184 60.5276 35.1184 60.5275C35.1185 60.5273 35.1186 60.5271 36 60.9996C36.8814 61.4721 36.8815 61.4718 36.8816 61.4716C36.8817 61.4714 36.8818 61.4711 36.882 61.4709C36.8822 61.4704 36.8825 61.4699 36.8829 61.4693C36.8835 61.468 36.8844 61.4664 36.8854 61.4644C36.8875 61.4605 36.8903 61.4552 36.8938 61.4486C36.9007 61.4353 36.9105 61.4167 36.9228 61.3928C36.9473 61.3451 36.9822 61.2763 37.026 61.1876C37.1134 61.0101 37.2362 60.7527 37.3825 60.4236C37.675 59.7658 38.0624 58.8198 38.4492 57.6531C39.221 55.3253 40 52.0904 40 48.4996L38 48.4996Z" style="stroke-width: 7.51445px;"/>
      </g>
    </g>
    <g id="g-10" transform="matrix(1, 0, 0, 1, 13.667821, 12.347733)">
      <ellipse cx="36" cy="36" rx="19" ry="28" fill="none" stroke="#000" style="stroke-width: 7.51445px;"/>
      <path fill="none" stroke="#000" stroke-linecap="round" stroke-linejoin="round" d="M36 36C36 36 33 30.4036 33 23.5C33 16.5964 36 11 36 11" style="stroke-width: 7.51445px;"/>
      <path fill="none" stroke="#000" stroke-linecap="round" stroke-linejoin="round" d="M36 36C36 36 39 41.5964 39 48.5C39 55.4036 36 61 36 61" style="stroke-width: 7.51445px;"/>
    </g>
  </g>
  <g transform="matrix(0.107784986496, -0.081222012639, 0.081222012639, 0.107784986496, -0.821745742694, 7.935135279849)" style="transform-origin: 50.1678px 48.3477px;">
    <g id="g-11" transform="matrix(1, 0, 0, 1, 13.667821, 12.347733)">
      <ellipse cx="36" cy="36" rx="19" ry="28" fill="#A57939" style="stroke-width: 7.51445px;"/>
      <g>
        <path fill="#6A462F" fill-rule="evenodd" d="M36 64C35.9846 64 35.981 63.9785 35.9956 63.9736C44.4605 61.1397 50.792 49.7143 50.792 36.0508C50.792 22.3796 44.4534 10.9491 35.9814 8.1232C35.9134 8.10052 35.9283 8 36 8C46.4934 8 55 20.536 55 36C55 51.464 46.4934 64 36 64Z" clip-rule="evenodd" style="stroke-width: 7.51445px;"/>
        <path fill="#6A462F" d="M35.9956 63.9736L36.3131 64.9218L35.9956 63.9736ZM49.792 36.0508C49.792 42.734 48.2426 48.841 45.6871 53.6002C43.1261 58.3698 39.5986 61.7128 35.6781 63.0253L36.3131 64.9218C40.8575 63.4004 44.7282 59.6138 47.4492 54.5463C50.1758 49.4684 51.792 43.031 51.792 36.0508H49.792ZM35.665 9.07182C39.5885 10.3805 43.1193 13.7226 45.6829 18.4933C48.2408 23.2536 49.792 29.3638 49.792 36.0508H51.792C51.792 29.0666 50.174 22.6259 47.4446 17.5467C44.7209 12.4778 40.8463 8.69175 36.2978 7.17458L35.665 9.07182ZM36 9C40.8166 9 45.2921 11.8765 48.6076 16.7625C51.9193 21.643 54 28.4415 54 36H56C56 28.0945 53.8274 20.893 50.2625 15.6395C46.7013 10.3915 41.6769 7 36 7V9ZM54 36C54 43.5585 51.9193 50.357 48.6076 55.2375C45.2921 60.1235 40.8166 63 36 63V65C41.6769 65 46.7013 61.6085 50.2625 56.3605C53.8274 51.107 56 43.9055 56 36H54ZM36.2978 7.17458C36.7904 7.3389 36.9844 7.82089 36.9272 8.20152C36.8694 8.58686 36.5324 9 36 9V7C35.3959 7 35.0156 7.4634 34.9494 7.90467C34.8839 8.34123 35.1043 8.88483 35.665 9.07182L36.2978 7.17458ZM35.6781 63.0253C34.553 63.402 34.8885 65 36 65V63C37.0808 63 37.409 64.5549 36.3131 64.9218L35.6781 63.0253Z" style="stroke-width: 7.51445px;"/>
      </g>
      <g>
        <path fill="#6A462F" fill-rule="evenodd" d="M36 60.9996C36 60.9996 30 49.8067 30 35.9996C30 22.2397 35.9591 11.0761 35.9998 11C35.9711 11.0538 33 16.6294 33 23.4996C33 30.4032 36 35.9996 36 35.9996C36 35.9996 39 41.596 39 48.4996C39 55.4032 36 60.9996 36 60.9996Z" clip-rule="evenodd" style="stroke-width: 7.51445px;"/>
        <path fill="#6A462F" d="M36 60.9996L35.1186 61.4721C35.2928 61.7969 35.6314 61.9996 36 61.9996C36.3686 61.9996 36.7072 61.7969 36.8814 61.4721L36 60.9996ZM35.9998 11L36.8817 11.4713C37.142 10.9843 36.9583 10.3785 36.4713 10.1181C35.9843 9.85776 35.3785 10.0414 35.118 10.5283L35.9998 11ZM36 35.9996L36.8814 35.5271L36 35.9996ZM29 35.9996C29 43.0422 30.529 49.4021 32.0508 53.992C32.8126 56.2896 33.575 58.1509 34.1488 59.4413C34.4357 60.0866 34.6757 60.5897 34.8451 60.9336C34.9299 61.1056 34.997 61.2379 35.0435 61.3283C35.0668 61.3735 35.085 61.4083 35.0976 61.4323C35.1039 61.4443 35.1089 61.4537 35.1124 61.4603C35.1142 61.4636 35.1156 61.4663 35.1166 61.4682C35.1171 61.4692 35.1176 61.47 35.1179 61.4707C35.1181 61.471 35.1183 61.4713 35.1183 61.4715C35.1185 61.4718 35.1186 61.4721 36 60.9996C36.8814 60.5271 36.8815 60.5273 36.8815 60.5275C36.8815 60.5275 36.8816 60.5275 36.8816 60.5275C36.8815 60.5275 36.8814 60.5273 36.8812 60.5269C36.8808 60.5261 36.88 60.5247 36.8789 60.5226C36.8767 60.5183 36.873 60.5114 36.868 60.5018C36.8579 60.4827 36.8424 60.4529 36.8217 60.4128C36.7804 60.3325 36.7186 60.2108 36.6392 60.0498C36.4806 59.7277 36.2518 59.2484 35.9762 58.6287C35.425 57.3889 34.6874 55.589 33.9492 53.3626C32.471 48.9042 31 42.7641 31 35.9996L29 35.9996ZM35.118 10.5283C35.0545 10.6471 29 21.9887 29 35.9996L31 35.9996C31 22.4906 36.8636 11.5052 36.8816 11.4717L35.118 10.5283ZM34 23.4996C34 20.2029 34.714 17.201 35.4387 15.0073C36.1623 12.8167 36.8861 11.4631 36.8817 11.4713L35.1178 10.5286C35.0663 10.6251 32 16.3787 32 23.4996L34 23.4996ZM36 35.9996C36.8814 35.5271 36.8815 35.5273 36.8816 35.5275C36.8816 35.5276 36.8817 35.5277 36.8817 35.5278C36.8818 35.5279 36.8818 35.5279 36.8818 35.5279C36.8817 35.5278 36.8815 35.5274 36.8811 35.5266C36.8803 35.5251 36.8788 35.5223 36.8766 35.5181C36.8722 35.5097 36.8651 35.4961 36.8554 35.4773C36.836 35.4397 36.8065 35.3815 36.7681 35.3037C36.6915 35.1481 36.5799 34.9145 36.445 34.611C36.175 34.0037 35.8124 33.1192 35.4492 32.0237C34.721 29.8274 34 26.8124 34 23.4996L32 23.4996C32 27.0904 32.779 30.3253 33.5508 32.6531C33.9376 33.8198 34.325 34.7658 34.6175 35.4236C34.7638 35.7527 34.8866 36.0101 34.974 36.1876C35.0178 36.2763 35.0527 36.3451 35.0772 36.3928C35.0895 36.4167 35.0993 36.4353 35.1062 36.4486C35.1097 36.4552 35.1125 36.4605 35.1146 36.4644C35.1156 36.4664 35.1165 36.468 35.1172 36.4693C35.1175 36.4699 35.1178 36.4704 35.118 36.4709C35.1182 36.4711 35.1183 36.4714 35.1184 36.4716C35.1185 36.4718 35.1186 36.4721 36 35.9996ZM36 35.9996C35.1186 36.4721 35.1185 36.4719 35.1184 36.4717C35.1184 36.4716 35.1183 36.4715 35.1183 36.4714C35.1182 36.4713 35.1182 36.4713 35.1182 36.4713C35.1183 36.4714 35.1185 36.4718 35.1189 36.4726C35.1197 36.4741 35.1212 36.4769 35.1234 36.4811C35.1278 36.4895 35.1349 36.5031 35.1446 36.5219C35.164 36.5595 35.1935 36.6177 35.2319 36.6955C35.3085 36.8511 35.4201 37.0847 35.555 37.3882C35.825 37.9955 36.1876 38.88 36.5508 39.9755C37.279 42.1718 38 45.1868 38 48.4996L40 48.4996C40 44.9088 39.221 41.6739 38.4492 39.3461C38.0624 38.1795 37.675 37.2334 37.3825 36.5756C37.2362 36.2465 37.1134 35.9891 37.026 35.8116C36.9822 35.7229 36.9474 35.6541 36.9228 35.6064C36.9105 35.5825 36.9008 35.5639 36.8938 35.5506C36.8903 35.544 36.8875 35.5387 36.8854 35.5348C36.8844 35.5328 36.8835 35.5312 36.8829 35.5299C36.8825 35.5293 36.8822 35.5288 36.882 35.5283C36.8818 35.5281 36.8817 35.5278 36.8816 35.5277C36.8815 35.5274 36.8814 35.5271 36 35.9996ZM38 48.4996C38 51.8124 37.279 54.8274 36.5508 57.0237C36.1876 58.1192 35.825 59.0037 35.555 59.611C35.4201 59.9145 35.3085 60.1481 35.2319 60.3037C35.1935 60.3815 35.164 60.4397 35.1446 60.4773C35.1349 60.4961 35.1278 60.5097 35.1234 60.5181C35.1212 60.5223 35.1197 60.5251 35.1189 60.5266C35.1185 60.5274 35.1183 60.5278 35.1182 60.5279C35.1182 60.5279 35.1182 60.5279 35.1183 60.5278C35.1183 60.5277 35.1184 60.5276 35.1184 60.5275C35.1185 60.5273 35.1186 60.5271 36 60.9996C36.8814 61.4721 36.8815 61.4718 36.8816 61.4716C36.8817 61.4714 36.8818 61.4711 36.882 61.4709C36.8822 61.4704 36.8825 61.4699 36.8829 61.4693C36.8835 61.468 36.8844 61.4664 36.8854 61.4644C36.8875 61.4605 36.8903 61.4552 36.8938 61.4486C36.9007 61.4353 36.9105 61.4167 36.9228 61.3928C36.9473 61.3451 36.9822 61.2763 37.026 61.1876C37.1134 61.0101 37.2362 60.7527 37.3825 60.4236C37.675 59.7658 38.0624 58.8198 38.4492 57.6531C39.221 55.3253 40 52.0904 40 48.4996L38 48.4996Z" style="stroke-width: 7.51445px;"/>
      </g>
    </g>
    <g id="g-12" transform="matrix(1, 0, 0, 1, 13.667821, 12.347733)">
      <ellipse cx="36" cy="36" rx="19" ry="28" fill="none" stroke="#000" style="stroke-width: 7.51445px;"/>
      <path fill="none" stroke="#000" stroke-linecap="round" stroke-linejoin="round" d="M36 36C36 36 33 30.4036 33 23.5C33 16.5964 36 11 36 11" style="stroke-width: 7.51445px;"/>
      <path fill="none" stroke="#000" stroke-linecap="round" stroke-linejoin="round" d="M36 36C36 36 39 41.5964 39 48.5C39 55.4036 36 61 36 61" style="stroke-width: 7.51445px;"/>
    </g>
  </g>
  <g transform="matrix(0.13496199250221252, 0, 0, 0.13496199250221252, 36.95359420776367, 52.544036865234375)" style="">
    <g id="g-13" transform="matrix(1, 0, 0, 1, 13.667821, 12.347733)">
      <ellipse cx="36" cy="36" rx="19" ry="28" fill="#A57939" style="stroke-width: 7.51445px;"/>
      <g>
        <path fill="#6A462F" fill-rule="evenodd" d="M36 64C35.9846 64 35.981 63.9785 35.9956 63.9736C44.4605 61.1397 50.792 49.7143 50.792 36.0508C50.792 22.3796 44.4534 10.9491 35.9814 8.1232C35.9134 8.10052 35.9283 8 36 8C46.4934 8 55 20.536 55 36C55 51.464 46.4934 64 36 64Z" clip-rule="evenodd" style="stroke-width: 7.51445px;"/>
        <path fill="#6A462F" d="M35.9956 63.9736L36.3131 64.9218L35.9956 63.9736ZM49.792 36.0508C49.792 42.734 48.2426 48.841 45.6871 53.6002C43.1261 58.3698 39.5986 61.7128 35.6781 63.0253L36.3131 64.9218C40.8575 63.4004 44.7282 59.6138 47.4492 54.5463C50.1758 49.4684 51.792 43.031 51.792 36.0508H49.792ZM35.665 9.07182C39.5885 10.3805 43.1193 13.7226 45.6829 18.4933C48.2408 23.2536 49.792 29.3638 49.792 36.0508H51.792C51.792 29.0666 50.174 22.6259 47.4446 17.5467C44.7209 12.4778 40.8463 8.69175 36.2978 7.17458L35.665 9.07182ZM36 9C40.8166 9 45.2921 11.8765 48.6076 16.7625C51.9193 21.643 54 28.4415 54 36H56C56 28.0945 53.8274 20.893 50.2625 15.6395C46.7013 10.3915 41.6769 7 36 7V9ZM54 36C54 43.5585 51.9193 50.357 48.6076 55.2375C45.2921 60.1235 40.8166 63 36 63V65C41.6769 65 46.7013 61.6085 50.2625 56.3605C53.8274 51.107 56 43.9055 56 36H54ZM36.2978 7.17458C36.7904 7.3389 36.9844 7.82089 36.9272 8.20152C36.8694 8.58686 36.5324 9 36 9V7C35.3959 7 35.0156 7.4634 34.9494 7.90467C34.8839 8.34123 35.1043 8.88483 35.665 9.07182L36.2978 7.17458ZM35.6781 63.0253C34.553 63.402 34.8885 65 36 65V63C37.0808 63 37.409 64.5549 36.3131 64.9218L35.6781 63.0253Z" style="stroke-width: 7.51445px;"/>
      </g>
      <g>
        <path fill="#6A462F" fill-rule="evenodd" d="M36 60.9996C36 60.9996 30 49.8067 30 35.9996C30 22.2397 35.9591 11.0761 35.9998 11C35.9711 11.0538 33 16.6294 33 23.4996C33 30.4032 36 35.9996 36 35.9996C36 35.9996 39 41.596 39 48.4996C39 55.4032 36 60.9996 36 60.9996Z" clip-rule="evenodd" style="stroke-width: 7.51445px;"/>
        <path fill="#6A462F" d="M36 60.9996L35.1186 61.4721C35.2928 61.7969 35.6314 61.9996 36 61.9996C36.3686 61.9996 36.7072 61.7969 36.8814 61.4721L36 60.9996ZM35.9998 11L36.8817 11.4713C37.142 10.9843 36.9583 10.3785 36.4713 10.1181C35.9843 9.85776 35.3785 10.0414 35.118 10.5283L35.9998 11ZM36 35.9996L36.8814 35.5271L36 35.9996ZM29 35.9996C29 43.0422 30.529 49.4021 32.0508 53.992C32.8126 56.2896 33.575 58.1509 34.1488 59.4413C34.4357 60.0866 34.6757 60.5897 34.8451 60.9336C34.9299 61.1056 34.997 61.2379 35.0435 61.3283C35.0668 61.3735 35.085 61.4083 35.0976 61.4323C35.1039 61.4443 35.1089 61.4537 35.1124 61.4603C35.1142 61.4636 35.1156 61.4663 35.1166 61.4682C35.1171 61.4692 35.1176 61.47 35.1179 61.4707C35.1181 61.471 35.1183 61.4713 35.1183 61.4715C35.1185 61.4718 35.1186 61.4721 36 60.9996C36.8814 60.5271 36.8815 60.5273 36.8815 60.5275C36.8815 60.5275 36.8816 60.5275 36.8816 60.5275C36.8815 60.5275 36.8814 60.5273 36.8812 60.5269C36.8808 60.5261 36.88 60.5247 36.8789 60.5226C36.8767 60.5183 36.873 60.5114 36.868 60.5018C36.8579 60.4827 36.8424 60.4529 36.8217 60.4128C36.7804 60.3325 36.7186 60.2108 36.6392 60.0498C36.4806 59.7277 36.2518 59.2484 35.9762 58.6287C35.425 57.3889 34.6874 55.589 33.9492 53.3626C32.471 48.9042 31 42.7641 31 35.9996L29 35.9996ZM35.118 10.5283C35.0545 10.6471 29 21.9887 29 35.9996L31 35.9996C31 22.4906 36.8636 11.5052 36.8816 11.4717L35.118 10.5283ZM34 23.4996C34 20.2029 34.714 17.201 35.4387 15.0073C36.1623 12.8167 36.8861 11.4631 36.8817 11.4713L35.1178 10.5286C35.0663 10.6251 32 16.3787 32 23.4996L34 23.4996ZM36 35.9996C36.8814 35.5271 36.8815 35.5273 36.8816 35.5275C36.8816 35.5276 36.8817 35.5277 36.8817 35.5278C36.8818 35.5279 36.8818 35.5279 36.8818 35.5279C36.8817 35.5278 36.8815 35.5274 36.8811 35.5266C36.8803 35.5251 36.8788 35.5223 36.8766 35.5181C36.8722 35.5097 36.8651 35.4961 36.8554 35.4773C36.836 35.4397 36.8065 35.3815 36.7681 35.3037C36.6915 35.1481 36.5799 34.9145 36.445 34.611C36.175 34.0037 35.8124 33.1192 35.4492 32.0237C34.721 29.8274 34 26.8124 34 23.4996L32 23.4996C32 27.0904 32.779 30.3253 33.5508 32.6531C33.9376 33.8198 34.325 34.7658 34.6175 35.4236C34.7638 35.7527 34.8866 36.0101 34.974 36.1876C35.0178 36.2763 35.0527 36.3451 35.0772 36.3928C35.0895 36.4167 35.0993 36.4353 35.1062 36.4486C35.1097 36.4552 35.1125 36.4605 35.1146 36.4644C35.1156 36.4664 35.1165 36.468 35.1172 36.4693C35.1175 36.4699 35.1178 36.4704 35.118 36.4709C35.1182 36.4711 35.1183 36.4714 35.1184 36.4716C35.1185 36.4718 35.1186 36.4721 36 35.9996ZM36 35.9996C35.1186 36.4721 35.1185 36.4719 35.1184 36.4717C35.1184 36.4716 35.1183 36.4715 35.1183 36.4714C35.1182 36.4713 35.1182 36.4713 35.1182 36.4713C35.1183 36.4714 35.1185 36.4718 35.1189 36.4726C35.1197 36.4741 35.1212 36.4769 35.1234 36.4811C35.1278 36.4895 35.1349 36.5031 35.1446 36.5219C35.164 36.5595 35.1935 36.6177 35.2319 36.6955C35.3085 36.8511 35.4201 37.0847 35.555 37.3882C35.825 37.9955 36.1876 38.88 36.5508 39.9755C37.279 42.1718 38 45.1868 38 48.4996L40 48.4996C40 44.9088 39.221 41.6739 38.4492 39.3461C38.0624 38.1795 37.675 37.2334 37.3825 36.5756C37.2362 36.2465 37.1134 35.9891 37.026 35.8116C36.9822 35.7229 36.9474 35.6541 36.9228 35.6064C36.9105 35.5825 36.9008 35.5639 36.8938 35.5506C36.8903 35.544 36.8875 35.5387 36.8854 35.5348C36.8844 35.5328 36.8835 35.5312 36.8829 35.5299C36.8825 35.5293 36.8822 35.5288 36.882 35.5283C36.8818 35.5281 36.8817 35.5278 36.8816 35.5277C36.8815 35.5274 36.8814 35.5271 36 35.9996ZM38 48.4996C38 51.8124 37.279 54.8274 36.5508 57.0237C36.1876 58.1192 35.825 59.0037 35.555 59.611C35.4201 59.9145 35.3085 60.1481 35.2319 60.3037C35.1935 60.3815 35.164 60.4397 35.1446 60.4773C35.1349 60.4961 35.1278 60.5097 35.1234 60.5181C35.1212 60.5223 35.1197 60.5251 35.1189 60.5266C35.1185 60.5274 35.1183 60.5278 35.1182 60.5279C35.1182 60.5279 35.1182 60.5279 35.1183 60.5278C35.1183 60.5277 35.1184 60.5276 35.1184 60.5275C35.1185 60.5273 35.1186 60.5271 36 60.9996C36.8814 61.4721 36.8815 61.4718 36.8816 61.4716C36.8817 61.4714 36.8818 61.4711 36.882 61.4709C36.8822 61.4704 36.8825 61.4699 36.8829 61.4693C36.8835 61.468 36.8844 61.4664 36.8854 61.4644C36.8875 61.4605 36.8903 61.4552 36.8938 61.4486C36.9007 61.4353 36.9105 61.4167 36.9228 61.3928C36.9473 61.3451 36.9822 61.2763 37.026 61.1876C37.1134 61.0101 37.2362 60.7527 37.3825 60.4236C37.675 59.7658 38.0624 58.8198 38.4492 57.6531C39.221 55.3253 40 52.0904 40 48.4996L38 48.4996Z" style="stroke-width: 7.51445px;"/>
      </g>
    </g>
    <g id="g-14" transform="matrix(1, 0, 0, 1, 13.667821, 12.347733)">
      <ellipse cx="36" cy="36" rx="19" ry="28" fill="none" stroke="#000" style="stroke-width: 7.51445px;"/>
      <path fill="none" stroke="#000" stroke-linecap="round" stroke-linejoin="round" d="M36 36C36 36 33 30.4036 33 23.5C33 16.5964 36 11 36 11" style="stroke-width: 7.51445px;"/>
      <path fill="none" stroke="#000" stroke-linecap="round" stroke-linejoin="round" d="M36 36C36 36 39 41.5964 39 48.5C39 55.4036 36 61 36 61" style="stroke-width: 7.51445px;"/>
    </g>
  </g>
  <g transform="matrix(0.071518018842, 0.114454999566, -0.114454999566, 0.071518018842, -10.473037964207, 10.652945245307)" style="transform-origin: 50.1678px 48.3477px;">
    <g id="g-15" transform="matrix(1, 0, 0, 1, 13.667821, 12.347733)">
      <ellipse cx="36" cy="36" rx="19" ry="28" fill="#A57939" style="stroke-width: 7.51445px;"/>
      <g>
        <path fill="#6A462F" fill-rule="evenodd" d="M36 64C35.9846 64 35.981 63.9785 35.9956 63.9736C44.4605 61.1397 50.792 49.7143 50.792 36.0508C50.792 22.3796 44.4534 10.9491 35.9814 8.1232C35.9134 8.10052 35.9283 8 36 8C46.4934 8 55 20.536 55 36C55 51.464 46.4934 64 36 64Z" clip-rule="evenodd" style="stroke-width: 7.51445px;"/>
        <path fill="#6A462F" d="M35.9956 63.9736L36.3131 64.9218L35.9956 63.9736ZM49.792 36.0508C49.792 42.734 48.2426 48.841 45.6871 53.6002C43.1261 58.3698 39.5986 61.7128 35.6781 63.0253L36.3131 64.9218C40.8575 63.4004 44.7282 59.6138 47.4492 54.5463C50.1758 49.4684 51.792 43.031 51.792 36.0508H49.792ZM35.665 9.07182C39.5885 10.3805 43.1193 13.7226 45.6829 18.4933C48.2408 23.2536 49.792 29.3638 49.792 36.0508H51.792C51.792 29.0666 50.174 22.6259 47.4446 17.5467C44.7209 12.4778 40.8463 8.69175 36.2978 7.17458L35.665 9.07182ZM36 9C40.8166 9 45.2921 11.8765 48.6076 16.7625C51.9193 21.643 54 28.4415 54 36H56C56 28.0945 53.8274 20.893 50.2625 15.6395C46.7013 10.3915 41.6769 7 36 7V9ZM54 36C54 43.5585 51.9193 50.357 48.6076 55.2375C45.2921 60.1235 40.8166 63 36 63V65C41.6769 65 46.7013 61.6085 50.2625 56.3605C53.8274 51.107 56 43.9055 56 36H54ZM36.2978 7.17458C36.7904 7.3389 36.9844 7.82089 36.9272 8.20152C36.8694 8.58686 36.5324 9 36 9V7C35.3959 7 35.0156 7.4634 34.9494 7.90467C34.8839 8.34123 35.1043 8.88483 35.665 9.07182L36.2978 7.17458ZM35.6781 63.0253C34.553 63.402 34.8885 65 36 65V63C37.0808 63 37.409 64.5549 36.3131 64.9218L35.6781 63.0253Z" style="stroke-width: 7.51445px;"/>
      </g>
      <g>
        <path fill="#6A462F" fill-rule="evenodd" d="M36 60.9996C36 60.9996 30 49.8067 30 35.9996C30 22.2397 35.9591 11.0761 35.9998 11C35.9711 11.0538 33 16.6294 33 23.4996C33 30.4032 36 35.9996 36 35.9996C36 35.9996 39 41.596 39 48.4996C39 55.4032 36 60.9996 36 60.9996Z" clip-rule="evenodd" style="stroke-width: 7.51445px;"/>
        <path fill="#6A462F" d="M36 60.9996L35.1186 61.4721C35.2928 61.7969 35.6314 61.9996 36 61.9996C36.3686 61.9996 36.7072 61.7969 36.8814 61.4721L36 60.9996ZM35.9998 11L36.8817 11.4713C37.142 10.9843 36.9583 10.3785 36.4713 10.1181C35.9843 9.85776 35.3785 10.0414 35.118 10.5283L35.9998 11ZM36 35.9996L36.8814 35.5271L36 35.9996ZM29 35.9996C29 43.0422 30.529 49.4021 32.0508 53.992C32.8126 56.2896 33.575 58.1509 34.1488 59.4413C34.4357 60.0866 34.6757 60.5897 34.8451 60.9336C34.9299 61.1056 34.997 61.2379 35.0435 61.3283C35.0668 61.3735 35.085 61.4083 35.0976 61.4323C35.1039 61.4443 35.1089 61.4537 35.1124 61.4603C35.1142 61.4636 35.1156 61.4663 35.1166 61.4682C35.1171 61.4692 35.1176 61.47 35.1179 61.4707C35.1181 61.471 35.1183 61.4713 35.1183 61.4715C35.1185 61.4718 35.1186 61.4721 36 60.9996C36.8814 60.5271 36.8815 60.5273 36.8815 60.5275C36.8815 60.5275 36.8816 60.5275 36.8816 60.5275C36.8815 60.5275 36.8814 60.5273 36.8812 60.5269C36.8808 60.5261 36.88 60.5247 36.8789 60.5226C36.8767 60.5183 36.873 60.5114 36.868 60.5018C36.8579 60.4827 36.8424 60.4529 36.8217 60.4128C36.7804 60.3325 36.7186 60.2108 36.6392 60.0498C36.4806 59.7277 36.2518 59.2484 35.9762 58.6287C35.425 57.3889 34.6874 55.589 33.9492 53.3626C32.471 48.9042 31 42.7641 31 35.9996L29 35.9996ZM35.118 10.5283C35.0545 10.6471 29 21.9887 29 35.9996L31 35.9996C31 22.4906 36.8636 11.5052 36.8816 11.4717L35.118 10.5283ZM34 23.4996C34 20.2029 34.714 17.201 35.4387 15.0073C36.1623 12.8167 36.8861 11.4631 36.8817 11.4713L35.1178 10.5286C35.0663 10.6251 32 16.3787 32 23.4996L34 23.4996ZM36 35.9996C36.8814 35.5271 36.8815 35.5273 36.8816 35.5275C36.8816 35.5276 36.8817 35.5277 36.8817 35.5278C36.8818 35.5279 36.8818 35.5279 36.8818 35.5279C36.8817 35.5278 36.8815 35.5274 36.8811 35.5266C36.8803 35.5251 36.8788 35.5223 36.8766 35.5181C36.8722 35.5097 36.8651 35.4961 36.8554 35.4773C36.836 35.4397 36.8065 35.3815 36.7681 35.3037C36.6915 35.1481 36.5799 34.9145 36.445 34.611C36.175 34.0037 35.8124 33.1192 35.4492 32.0237C34.721 29.8274 34 26.8124 34 23.4996L32 23.4996C32 27.0904 32.779 30.3253 33.5508 32.6531C33.9376 33.8198 34.325 34.7658 34.6175 35.4236C34.7638 35.7527 34.8866 36.0101 34.974 36.1876C35.0178 36.2763 35.0527 36.3451 35.0772 36.3928C35.0895 36.4167 35.0993 36.4353 35.1062 36.4486C35.1097 36.4552 35.1125 36.4605 35.1146 36.4644C35.1156 36.4664 35.1165 36.468 35.1172 36.4693C35.1175 36.4699 35.1178 36.4704 35.118 36.4709C35.1182 36.4711 35.1183 36.4714 35.1184 36.4716C35.1185 36.4718 35.1186 36.4721 36 35.9996ZM36 35.9996C35.1186 36.4721 35.1185 36.4719 35.1184 36.4717C35.1184 36.4716 35.1183 36.4715 35.1183 36.4714C35.1182 36.4713 35.1182 36.4713 35.1182 36.4713C35.1183 36.4714 35.1185 36.4718 35.1189 36.4726C35.1197 36.4741 35.1212 36.4769 35.1234 36.4811C35.1278 36.4895 35.1349 36.5031 35.1446 36.5219C35.164 36.5595 35.1935 36.6177 35.2319 36.6955C35.3085 36.8511 35.4201 37.0847 35.555 37.3882C35.825 37.9955 36.1876 38.88 36.5508 39.9755C37.279 42.1718 38 45.1868 38 48.4996L40 48.4996C40 44.9088 39.221 41.6739 38.4492 39.3461C38.0624 38.1795 37.675 37.2334 37.3825 36.5756C37.2362 36.2465 37.1134 35.9891 37.026 35.8116C36.9822 35.7229 36.9474 35.6541 36.9228 35.6064C36.9105 35.5825 36.9008 35.5639 36.8938 35.5506C36.8903 35.544 36.8875 35.5387 36.8854 35.5348C36.8844 35.5328 36.8835 35.5312 36.8829 35.5299C36.8825 35.5293 36.8822 35.5288 36.882 35.5283C36.8818 35.5281 36.8817 35.5278 36.8816 35.5277C36.8815 35.5274 36.8814 35.5271 36 35.9996ZM38 48.4996C38 51.8124 37.279 54.8274 36.5508 57.0237C36.1876 58.1192 35.825 59.0037 35.555 59.611C35.4201 59.9145 35.3085 60.1481 35.2319 60.3037C35.1935 60.3815 35.164 60.4397 35.1446 60.4773C35.1349 60.4961 35.1278 60.5097 35.1234 60.5181C35.1212 60.5223 35.1197 60.5251 35.1189 60.5266C35.1185 60.5274 35.1183 60.5278 35.1182 60.5279C35.1182 60.5279 35.1182 60.5279 35.1183 60.5278C35.1183 60.5277 35.1184 60.5276 35.1184 60.5275C35.1185 60.5273 35.1186 60.5271 36 60.9996C36.8814 61.4721 36.8815 61.4718 36.8816 61.4716C36.8817 61.4714 36.8818 61.4711 36.882 61.4709C36.8822 61.4704 36.8825 61.4699 36.8829 61.4693C36.8835 61.468 36.8844 61.4664 36.8854 61.4644C36.8875 61.4605 36.8903 61.4552 36.8938 61.4486C36.9007 61.4353 36.9105 61.4167 36.9228 61.3928C36.9473 61.3451 36.9822 61.2763 37.026 61.1876C37.1134 61.0101 37.2362 60.7527 37.3825 60.4236C37.675 59.7658 38.0624 58.8198 38.4492 57.6531C39.221 55.3253 40 52.0904 40 48.4996L38 48.4996Z" style="stroke-width: 7.51445px;"/>
      </g>
    </g>
    <g id="g-16" transform="matrix(1, 0, 0, 1, 13.667821, 12.347733)">
      <ellipse cx="36" cy="36" rx="19" ry="28" fill="none" stroke="#000" style="stroke-width: 7.51445px;"/>
      <path fill="none" stroke="#000" stroke-linecap="round" stroke-linejoin="round" d="M36 36C36 36 33 30.4036 33 23.5C33 16.5964 36 11 36 11" style="stroke-width: 7.51445px;"/>
      <path fill="none" stroke="#000" stroke-linecap="round" stroke-linejoin="round" d="M36 36C36 36 39 41.5964 39 48.5C39 55.4036 36 61 36 61" style="stroke-width: 7.51445px;"/>
    </g>
  </g>
  <g transform="matrix(0.114454999566, 0.07151901722, -0.07151901722, 0.114454999566, -6.123079023591, 6.306781176284)" style="transform-origin: 50.1678px 48.3477px;">
    <g id="g-17" transform="matrix(1, 0, 0, 1, 13.667821, 12.347733)">
      <ellipse cx="36" cy="36" rx="19" ry="28" fill="#A57939" style="stroke-width: 7.51445px;"/>
      <g>
        <path fill="#6A462F" fill-rule="evenodd" d="M36 64C35.9846 64 35.981 63.9785 35.9956 63.9736C44.4605 61.1397 50.792 49.7143 50.792 36.0508C50.792 22.3796 44.4534 10.9491 35.9814 8.1232C35.9134 8.10052 35.9283 8 36 8C46.4934 8 55 20.536 55 36C55 51.464 46.4934 64 36 64Z" clip-rule="evenodd" style="stroke-width: 7.51445px;"/>
        <path fill="#6A462F" d="M35.9956 63.9736L36.3131 64.9218L35.9956 63.9736ZM49.792 36.0508C49.792 42.734 48.2426 48.841 45.6871 53.6002C43.1261 58.3698 39.5986 61.7128 35.6781 63.0253L36.3131 64.9218C40.8575 63.4004 44.7282 59.6138 47.4492 54.5463C50.1758 49.4684 51.792 43.031 51.792 36.0508H49.792ZM35.665 9.07182C39.5885 10.3805 43.1193 13.7226 45.6829 18.4933C48.2408 23.2536 49.792 29.3638 49.792 36.0508H51.792C51.792 29.0666 50.174 22.6259 47.4446 17.5467C44.7209 12.4778 40.8463 8.69175 36.2978 7.17458L35.665 9.07182ZM36 9C40.8166 9 45.2921 11.8765 48.6076 16.7625C51.9193 21.643 54 28.4415 54 36H56C56 28.0945 53.8274 20.893 50.2625 15.6395C46.7013 10.3915 41.6769 7 36 7V9ZM54 36C54 43.5585 51.9193 50.357 48.6076 55.2375C45.2921 60.1235 40.8166 63 36 63V65C41.6769 65 46.7013 61.6085 50.2625 56.3605C53.8274 51.107 56 43.9055 56 36H54ZM36.2978 7.17458C36.7904 7.3389 36.9844 7.82089 36.9272 8.20152C36.8694 8.58686 36.5324 9 36 9V7C35.3959 7 35.0156 7.4634 34.9494 7.90467C34.8839 8.34123 35.1043 8.88483 35.665 9.07182L36.2978 7.17458ZM35.6781 63.0253C34.553 63.402 34.8885 65 36 65V63C37.0808 63 37.409 64.5549 36.3131 64.9218L35.6781 63.0253Z" style="stroke-width: 7.51445px;"/>
      </g>
      <g>
        <path fill="#6A462F" fill-rule="evenodd" d="M36 60.9996C36 60.9996 30 49.8067 30 35.9996C30 22.2397 35.9591 11.0761 35.9998 11C35.9711 11.0538 33 16.6294 33 23.4996C33 30.4032 36 35.9996 36 35.9996C36 35.9996 39 41.596 39 48.4996C39 55.4032 36 60.9996 36 60.9996Z" clip-rule="evenodd" style="stroke-width: 7.51445px;"/>
        <path fill="#6A462F" d="M36 60.9996L35.1186 61.4721C35.2928 61.7969 35.6314 61.9996 36 61.9996C36.3686 61.9996 36.7072 61.7969 36.8814 61.4721L36 60.9996ZM35.9998 11L36.8817 11.4713C37.142 10.9843 36.9583 10.3785 36.4713 10.1181C35.9843 9.85776 35.3785 10.0414 35.118 10.5283L35.9998 11ZM36 35.9996L36.8814 35.5271L36 35.9996ZM29 35.9996C29 43.0422 30.529 49.4021 32.0508 53.992C32.8126 56.2896 33.575 58.1509 34.1488 59.4413C34.4357 60.0866 34.6757 60.5897 34.8451 60.9336C34.9299 61.1056 34.997 61.2379 35.0435 61.3283C35.0668 61.3735 35.085 61.4083 35.0976 61.4323C35.1039 61.4443 35.1089 61.4537 35.1124 61.4603C35.1142 61.4636 35.1156 61.4663 35.1166 61.4682C35.1171 61.4692 35.1176 61.47 35.1179 61.4707C35.1181 61.471 35.1183 61.4713 35.1183 61.4715C35.1185 61.4718 35.1186 61.4721 36 60.9996C36.8814 60.5271 36.8815 60.5273 36.8815 60.5275C36.8815 60.5275 36.8816 60.5275 36.8816 60.5275C36.8815 60.5275 36.8814 60.5273 36.8812 60.5269C36.8808 60.5261 36.88 60.5247 36.8789 60.5226C36.8767 60.5183 36.873 60.5114 36.868 60.5018C36.8579 60.4827 36.8424 60.4529 36.8217 60.4128C36.7804 60.3325 36.7186 60.2108 36.6392 60.0498C36.4806 59.7277 36.2518 59.2484 35.9762 58.6287C35.425 57.3889 34.6874 55.589 33.9492 53.3626C32.471 48.9042 31 42.7641 31 35.9996L29 35.9996ZM35.118 10.5283C35.0545 10.6471 29 21.9887 29 35.9996L31 35.9996C31 22.4906 36.8636 11.5052 36.8816 11.4717L35.118 10.5283ZM34 23.4996C34 20.2029 34.714 17.201 35.4387 15.0073C36.1623 12.8167 36.8861 11.4631 36.8817 11.4713L35.1178 10.5286C35.0663 10.6251 32 16.3787 32 23.4996L34 23.4996ZM36 35.9996C36.8814 35.5271 36.8815 35.5273 36.8816 35.5275C36.8816 35.5276 36.8817 35.5277 36.8817 35.5278C36.8818 35.5279 36.8818 35.5279 36.8818 35.5279C36.8817 35.5278 36.8815 35.5274 36.8811 35.5266C36.8803 35.5251 36.8788 35.5223 36.8766 35.5181C36.8722 35.5097 36.8651 35.4961 36.8554 35.4773C36.836 35.4397 36.8065 35.3815 36.7681 35.3037C36.6915 35.1481 36.5799 34.9145 36.445 34.611C36.175 34.0037 35.8124 33.1192 35.4492 32.0237C34.721 29.8274 34 26.8124 34 23.4996L32 23.4996C32 27.0904 32.779 30.3253 33.5508 32.6531C33.9376 33.8198 34.325 34.7658 34.6175 35.4236C34.7638 35.7527 34.8866 36.0101 34.974 36.1876C35.0178 36.2763 35.0527 36.3451 35.0772 36.3928C35.0895 36.4167 35.0993 36.4353 35.1062 36.4486C35.1097 36.4552 35.1125 36.4605 35.1146 36.4644C35.1156 36.4664 35.1165 36.468 35.1172 36.4693C35.1175 36.4699 35.1178 36.4704 35.118 36.4709C35.1182 36.4711 35.1183 36.4714 35.1184 36.4716C35.1185 36.4718 35.1186 36.4721 36 35.9996ZM36 35.9996C35.1186 36.4721 35.1185 36.4719 35.1184 36.4717C35.1184 36.4716 35.1183 36.4715 35.1183 36.4714C35.1182 36.4713 35.1182 36.4713 35.1182 36.4713C35.1183 36.4714 35.1185 36.4718 35.1189 36.4726C35.1197 36.4741 35.1212 36.4769 35.1234 36.4811C35.1278 36.4895 35.1349 36.5031 35.1446 36.5219C35.164 36.5595 35.1935 36.6177 35.2319 36.6955C35.3085 36.8511 35.4201 37.0847 35.555 37.3882C35.825 37.9955 36.1876 38.88 36.5508 39.9755C37.279 42.1718 38 45.1868 38 48.4996L40 48.4996C40 44.9088 39.221 41.6739 38.4492 39.3461C38.0624 38.1795 37.675 37.2334 37.3825 36.5756C37.2362 36.2465 37.1134 35.9891 37.026 35.8116C36.9822 35.7229 36.9474 35.6541 36.9228 35.6064C36.9105 35.5825 36.9008 35.5639 36.8938 35.5506C36.8903 35.544 36.8875 35.5387 36.8854 35.5348C36.8844 35.5328 36.8835 35.5312 36.8829 35.5299C36.8825 35.5293 36.8822 35.5288 36.882 35.5283C36.8818 35.5281 36.8817 35.5278 36.8816 35.5277C36.8815 35.5274 36.8814 35.5271 36 35.9996ZM38 48.4996C38 51.8124 37.279 54.8274 36.5508 57.0237C36.1876 58.1192 35.825 59.0037 35.555 59.611C35.4201 59.9145 35.3085 60.1481 35.2319 60.3037C35.1935 60.3815 35.164 60.4397 35.1446 60.4773C35.1349 60.4961 35.1278 60.5097 35.1234 60.5181C35.1212 60.5223 35.1197 60.5251 35.1189 60.5266C35.1185 60.5274 35.1183 60.5278 35.1182 60.5279C35.1182 60.5279 35.1182 60.5279 35.1183 60.5278C35.1183 60.5277 35.1184 60.5276 35.1184 60.5275C35.1185 60.5273 35.1186 60.5271 36 60.9996C36.8814 61.4721 36.8815 61.4718 36.8816 61.4716C36.8817 61.4714 36.8818 61.4711 36.882 61.4709C36.8822 61.4704 36.8825 61.4699 36.8829 61.4693C36.8835 61.468 36.8844 61.4664 36.8854 61.4644C36.8875 61.4605 36.8903 61.4552 36.8938 61.4486C36.9007 61.4353 36.9105 61.4167 36.9228 61.3928C36.9473 61.3451 36.9822 61.2763 37.026 61.1876C37.1134 61.0101 37.2362 60.7527 37.3825 60.4236C37.675 59.7658 38.0624 58.8198 38.4492 57.6531C39.221 55.3253 40 52.0904 40 48.4996L38 48.4996Z" style="stroke-width: 7.51445px;"/>
      </g>
    </g>
    <g id="g-18" transform="matrix(1, 0, 0, 1, 13.667821, 12.347733)">
      <ellipse cx="36" cy="36" rx="19" ry="28" fill="none" stroke="#000" style="stroke-width: 7.51445px;"/>
      <path fill="none" stroke="#000" stroke-linecap="round" stroke-linejoin="round" d="M36 36C36 36 33 30.4036 33 23.5C33 16.5964 36 11 36 11" style="stroke-width: 7.51445px;"/>
      <path fill="none" stroke="#000" stroke-linecap="round" stroke-linejoin="round" d="M36 36C36 36 39 41.5964 39 48.5C39 55.4036 36 61 36 61" style="stroke-width: 7.51445px;"/>
    </g>
  </g>
  <g transform="matrix(0.124233029783, 0.052734013647, -0.052734013647, 0.124233029783, -2.246779857056, 11.410813063613)" style="transform-origin: 50.1678px 48.3477px;">
    <g id="g-19" transform="matrix(1, 0, 0, 1, 13.667821, 12.347733)">
      <ellipse cx="36" cy="36" rx="19" ry="28" fill="#A57939" style="stroke-width: 7.51445px;"/>
      <g>
        <path fill="#6A462F" fill-rule="evenodd" d="M36 64C35.9846 64 35.981 63.9785 35.9956 63.9736C44.4605 61.1397 50.792 49.7143 50.792 36.0508C50.792 22.3796 44.4534 10.9491 35.9814 8.1232C35.9134 8.10052 35.9283 8 36 8C46.4934 8 55 20.536 55 36C55 51.464 46.4934 64 36 64Z" clip-rule="evenodd" style="stroke-width: 7.51445px;"/>
        <path fill="#6A462F" d="M35.9956 63.9736L36.3131 64.9218L35.9956 63.9736ZM49.792 36.0508C49.792 42.734 48.2426 48.841 45.6871 53.6002C43.1261 58.3698 39.5986 61.7128 35.6781 63.0253L36.3131 64.9218C40.8575 63.4004 44.7282 59.6138 47.4492 54.5463C50.1758 49.4684 51.792 43.031 51.792 36.0508H49.792ZM35.665 9.07182C39.5885 10.3805 43.1193 13.7226 45.6829 18.4933C48.2408 23.2536 49.792 29.3638 49.792 36.0508H51.792C51.792 29.0666 50.174 22.6259 47.4446 17.5467C44.7209 12.4778 40.8463 8.69175 36.2978 7.17458L35.665 9.07182ZM36 9C40.8166 9 45.2921 11.8765 48.6076 16.7625C51.9193 21.643 54 28.4415 54 36H56C56 28.0945 53.8274 20.893 50.2625 15.6395C46.7013 10.3915 41.6769 7 36 7V9ZM54 36C54 43.5585 51.9193 50.357 48.6076 55.2375C45.2921 60.1235 40.8166 63 36 63V65C41.6769 65 46.7013 61.6085 50.2625 56.3605C53.8274 51.107 56 43.9055 56 36H54ZM36.2978 7.17458C36.7904 7.3389 36.9844 7.82089 36.9272 8.20152C36.8694 8.58686 36.5324 9 36 9V7C35.3959 7 35.0156 7.4634 34.9494 7.90467C34.8839 8.34123 35.1043 8.88483 35.665 9.07182L36.2978 7.17458ZM35.6781 63.0253C34.553 63.402 34.8885 65 36 65V63C37.0808 63 37.409 64.5549 36.3131 64.9218L35.6781 63.0253Z" style="stroke-width: 7.51445px;"/>
      </g>
      <g>
        <path fill="#6A462F" fill-rule="evenodd" d="M36 60.9996C36 60.9996 30 49.8067 30 35.9996C30 22.2397 35.9591 11.0761 35.9998 11C35.9711 11.0538 33 16.6294 33 23.4996C33 30.4032 36 35.9996 36 35.9996C36 35.9996 39 41.596 39 48.4996C39 55.4032 36 60.9996 36 60.9996Z" clip-rule="evenodd" style="stroke-width: 7.51445px;"/>
        <path fill="#6A462F" d="M36 60.9996L35.1186 61.4721C35.2928 61.7969 35.6314 61.9996 36 61.9996C36.3686 61.9996 36.7072 61.7969 36.8814 61.4721L36 60.9996ZM35.9998 11L36.8817 11.4713C37.142 10.9843 36.9583 10.3785 36.4713 10.1181C35.9843 9.85776 35.3785 10.0414 35.118 10.5283L35.9998 11ZM36 35.9996L36.8814 35.5271L36 35.9996ZM29 35.9996C29 43.0422 30.529 49.4021 32.0508 53.992C32.8126 56.2896 33.575 58.1509 34.1488 59.4413C34.4357 60.0866 34.6757 60.5897 34.8451 60.9336C34.9299 61.1056 34.997 61.2379 35.0435 61.3283C35.0668 61.3735 35.085 61.4083 35.0976 61.4323C35.1039 61.4443 35.1089 61.4537 35.1124 61.4603C35.1142 61.4636 35.1156 61.4663 35.1166 61.4682C35.1171 61.4692 35.1176 61.47 35.1179 61.4707C35.1181 61.471 35.1183 61.4713 35.1183 61.4715C35.1185 61.4718 35.1186 61.4721 36 60.9996C36.8814 60.5271 36.8815 60.5273 36.8815 60.5275C36.8815 60.5275 36.8816 60.5275 36.8816 60.5275C36.8815 60.5275 36.8814 60.5273 36.8812 60.5269C36.8808 60.5261 36.88 60.5247 36.8789 60.5226C36.8767 60.5183 36.873 60.5114 36.868 60.5018C36.8579 60.4827 36.8424 60.4529 36.8217 60.4128C36.7804 60.3325 36.7186 60.2108 36.6392 60.0498C36.4806 59.7277 36.2518 59.2484 35.9762 58.6287C35.425 57.3889 34.6874 55.589 33.9492 53.3626C32.471 48.9042 31 42.7641 31 35.9996L29 35.9996ZM35.118 10.5283C35.0545 10.6471 29 21.9887 29 35.9996L31 35.9996C31 22.4906 36.8636 11.5052 36.8816 11.4717L35.118 10.5283ZM34 23.4996C34 20.2029 34.714 17.201 35.4387 15.0073C36.1623 12.8167 36.8861 11.4631 36.8817 11.4713L35.1178 10.5286C35.0663 10.6251 32 16.3787 32 23.4996L34 23.4996ZM36 35.9996C36.8814 35.5271 36.8815 35.5273 36.8816 35.5275C36.8816 35.5276 36.8817 35.5277 36.8817 35.5278C36.8818 35.5279 36.8818 35.5279 36.8818 35.5279C36.8817 35.5278 36.8815 35.5274 36.8811 35.5266C36.8803 35.5251 36.8788 35.5223 36.8766 35.5181C36.8722 35.5097 36.8651 35.4961 36.8554 35.4773C36.836 35.4397 36.8065 35.3815 36.7681 35.3037C36.6915 35.1481 36.5799 34.9145 36.445 34.611C36.175 34.0037 35.8124 33.1192 35.4492 32.0237C34.721 29.8274 34 26.8124 34 23.4996L32 23.4996C32 27.0904 32.779 30.3253 33.5508 32.6531C33.9376 33.8198 34.325 34.7658 34.6175 35.4236C34.7638 35.7527 34.8866 36.0101 34.974 36.1876C35.0178 36.2763 35.0527 36.3451 35.0772 36.3928C35.0895 36.4167 35.0993 36.4353 35.1062 36.4486C35.1097 36.4552 35.1125 36.4605 35.1146 36.4644C35.1156 36.4664 35.1165 36.468 35.1172 36.4693C35.1175 36.4699 35.1178 36.4704 35.118 36.4709C35.1182 36.4711 35.1183 36.4714 35.1184 36.4716C35.1185 36.4718 35.1186 36.4721 36 35.9996ZM36 35.9996C35.1186 36.4721 35.1185 36.4719 35.1184 36.4717C35.1184 36.4716 35.1183 36.4715 35.1183 36.4714C35.1182 36.4713 35.1182 36.4713 35.1182 36.4713C35.1183 36.4714 35.1185 36.4718 35.1189 36.4726C35.1197 36.4741 35.1212 36.4769 35.1234 36.4811C35.1278 36.4895 35.1349 36.5031 35.1446 36.5219C35.164 36.5595 35.1935 36.6177 35.2319 36.6955C35.3085 36.8511 35.4201 37.0847 35.555 37.3882C35.825 37.9955 36.1876 38.88 36.5508 39.9755C37.279 42.1718 38 45.1868 38 48.4996L40 48.4996C40 44.9088 39.221 41.6739 38.4492 39.3461C38.0624 38.1795 37.675 37.2334 37.3825 36.5756C37.2362 36.2465 37.1134 35.9891 37.026 35.8116C36.9822 35.7229 36.9474 35.6541 36.9228 35.6064C36.9105 35.5825 36.9008 35.5639 36.8938 35.5506C36.8903 35.544 36.8875 35.5387 36.8854 35.5348C36.8844 35.5328 36.8835 35.5312 36.8829 35.5299C36.8825 35.5293 36.8822 35.5288 36.882 35.5283C36.8818 35.5281 36.8817 35.5278 36.8816 35.5277C36.8815 35.5274 36.8814 35.5271 36 35.9996ZM38 48.4996C38 51.8124 37.279 54.8274 36.5508 57.0237C36.1876 58.1192 35.825 59.0037 35.555 59.611C35.4201 59.9145 35.3085 60.1481 35.2319 60.3037C35.1935 60.3815 35.164 60.4397 35.1446 60.4773C35.1349 60.4961 35.1278 60.5097 35.1234 60.5181C35.1212 60.5223 35.1197 60.5251 35.1189 60.5266C35.1185 60.5274 35.1183 60.5278 35.1182 60.5279C35.1182 60.5279 35.1182 60.5279 35.1183 60.5278C35.1183 60.5277 35.1184 60.5276 35.1184 60.5275C35.1185 60.5273 35.1186 60.5271 36 60.9996C36.8814 61.4721 36.8815 61.4718 36.8816 61.4716C36.8817 61.4714 36.8818 61.4711 36.882 61.4709C36.8822 61.4704 36.8825 61.4699 36.8829 61.4693C36.8835 61.468 36.8844 61.4664 36.8854 61.4644C36.8875 61.4605 36.8903 61.4552 36.8938 61.4486C36.9007 61.4353 36.9105 61.4167 36.9228 61.3928C36.9473 61.3451 36.9822 61.2763 37.026 61.1876C37.1134 61.0101 37.2362 60.7527 37.3825 60.4236C37.675 59.7658 38.0624 58.8198 38.4492 57.6531C39.221 55.3253 40 52.0904 40 48.4996L38 48.4996Z" style="stroke-width: 7.51445px;"/>
      </g>
    </g>
    <g id="g-20" transform="matrix(1, 0, 0, 1, 13.667821, 12.347733)">
      <ellipse cx="36" cy="36" rx="19" ry="28" fill="none" stroke="#000" style="stroke-width: 7.51445px;"/>
      <path fill="none" stroke="#000" stroke-linecap="round" stroke-linejoin="round" d="M36 36C36 36 33 30.4036 33 23.5C33 16.5964 36 11 36 11" style="stroke-width: 7.51445px;"/>
      <path fill="none" stroke="#000" stroke-linecap="round" stroke-linejoin="round" d="M36 36C36 36 39 41.5964 39 48.5C39 55.4036 36 61 36 61" style="stroke-width: 7.51445px;"/>
    </g>
  </g>
  <g transform="matrix(0.030360000208, -0.131502956152, 0.131502956152, 0.030360000208, 7.479882187568, 10.468375624128)" style="transform-origin: 50.1678px 48.3477px;">
    <g id="g-21" transform="matrix(1, 0, 0, 1, 13.667821, 12.347733)">
      <ellipse cx="36" cy="36" rx="19" ry="28" fill="#A57939" style="stroke-width: 7.51445px;"/>
      <g>
        <path fill="#6A462F" fill-rule="evenodd" d="M36 64C35.9846 64 35.981 63.9785 35.9956 63.9736C44.4605 61.1397 50.792 49.7143 50.792 36.0508C50.792 22.3796 44.4534 10.9491 35.9814 8.1232C35.9134 8.10052 35.9283 8 36 8C46.4934 8 55 20.536 55 36C55 51.464 46.4934 64 36 64Z" clip-rule="evenodd" style="stroke-width: 7.51445px;"/>
        <path fill="#6A462F" d="M35.9956 63.9736L36.3131 64.9218L35.9956 63.9736ZM49.792 36.0508C49.792 42.734 48.2426 48.841 45.6871 53.6002C43.1261 58.3698 39.5986 61.7128 35.6781 63.0253L36.3131 64.9218C40.8575 63.4004 44.7282 59.6138 47.4492 54.5463C50.1758 49.4684 51.792 43.031 51.792 36.0508H49.792ZM35.665 9.07182C39.5885 10.3805 43.1193 13.7226 45.6829 18.4933C48.2408 23.2536 49.792 29.3638 49.792 36.0508H51.792C51.792 29.0666 50.174 22.6259 47.4446 17.5467C44.7209 12.4778 40.8463 8.69175 36.2978 7.17458L35.665 9.07182ZM36 9C40.8166 9 45.2921 11.8765 48.6076 16.7625C51.9193 21.643 54 28.4415 54 36H56C56 28.0945 53.8274 20.893 50.2625 15.6395C46.7013 10.3915 41.6769 7 36 7V9ZM54 36C54 43.5585 51.9193 50.357 48.6076 55.2375C45.2921 60.1235 40.8166 63 36 63V65C41.6769 65 46.7013 61.6085 50.2625 56.3605C53.8274 51.107 56 43.9055 56 36H54ZM36.2978 7.17458C36.7904 7.3389 36.9844 7.82089 36.9272 8.20152C36.8694 8.58686 36.5324 9 36 9V7C35.3959 7 35.0156 7.4634 34.9494 7.90467C34.8839 8.34123 35.1043 8.88483 35.665 9.07182L36.2978 7.17458ZM35.6781 63.0253C34.553 63.402 34.8885 65 36 65V63C37.0808 63 37.409 64.5549 36.3131 64.9218L35.6781 63.0253Z" style="stroke-width: 7.51445px;"/>
      </g>
      <g>
        <path fill="#6A462F" fill-rule="evenodd" d="M36 60.9996C36 60.9996 30 49.8067 30 35.9996C30 22.2397 35.9591 11.0761 35.9998 11C35.9711 11.0538 33 16.6294 33 23.4996C33 30.4032 36 35.9996 36 35.9996C36 35.9996 39 41.596 39 48.4996C39 55.4032 36 60.9996 36 60.9996Z" clip-rule="evenodd" style="stroke-width: 7.51445px;"/>
        <path fill="#6A462F" d="M36 60.9996L35.1186 61.4721C35.2928 61.7969 35.6314 61.9996 36 61.9996C36.3686 61.9996 36.7072 61.7969 36.8814 61.4721L36 60.9996ZM35.9998 11L36.8817 11.4713C37.142 10.9843 36.9583 10.3785 36.4713 10.1181C35.9843 9.85776 35.3785 10.0414 35.118 10.5283L35.9998 11ZM36 35.9996L36.8814 35.5271L36 35.9996ZM29 35.9996C29 43.0422 30.529 49.4021 32.0508 53.992C32.8126 56.2896 33.575 58.1509 34.1488 59.4413C34.4357 60.0866 34.6757 60.5897 34.8451 60.9336C34.9299 61.1056 34.997 61.2379 35.0435 61.3283C35.0668 61.3735 35.085 61.4083 35.0976 61.4323C35.1039 61.4443 35.1089 61.4537 35.1124 61.4603C35.1142 61.4636 35.1156 61.4663 35.1166 61.4682C35.1171 61.4692 35.1176 61.47 35.1179 61.4707C35.1181 61.471 35.1183 61.4713 35.1183 61.4715C35.1185 61.4718 35.1186 61.4721 36 60.9996C36.8814 60.5271 36.8815 60.5273 36.8815 60.5275C36.8815 60.5275 36.8816 60.5275 36.8816 60.5275C36.8815 60.5275 36.8814 60.5273 36.8812 60.5269C36.8808 60.5261 36.88 60.5247 36.8789 60.5226C36.8767 60.5183 36.873 60.5114 36.868 60.5018C36.8579 60.4827 36.8424 60.4529 36.8217 60.4128C36.7804 60.3325 36.7186 60.2108 36.6392 60.0498C36.4806 59.7277 36.2518 59.2484 35.9762 58.6287C35.425 57.3889 34.6874 55.589 33.9492 53.3626C32.471 48.9042 31 42.7641 31 35.9996L29 35.9996ZM35.118 10.5283C35.0545 10.6471 29 21.9887 29 35.9996L31 35.9996C31 22.4906 36.8636 11.5052 36.8816 11.4717L35.118 10.5283ZM34 23.4996C34 20.2029 34.714 17.201 35.4387 15.0073C36.1623 12.8167 36.8861 11.4631 36.8817 11.4713L35.1178 10.5286C35.0663 10.6251 32 16.3787 32 23.4996L34 23.4996ZM36 35.9996C36.8814 35.5271 36.8815 35.5273 36.8816 35.5275C36.8816 35.5276 36.8817 35.5277 36.8817 35.5278C36.8818 35.5279 36.8818 35.5279 36.8818 35.5279C36.8817 35.5278 36.8815 35.5274 36.8811 35.5266C36.8803 35.5251 36.8788 35.5223 36.8766 35.5181C36.8722 35.5097 36.8651 35.4961 36.8554 35.4773C36.836 35.4397 36.8065 35.3815 36.7681 35.3037C36.6915 35.1481 36.5799 34.9145 36.445 34.611C36.175 34.0037 35.8124 33.1192 35.4492 32.0237C34.721 29.8274 34 26.8124 34 23.4996L32 23.4996C32 27.0904 32.779 30.3253 33.5508 32.6531C33.9376 33.8198 34.325 34.7658 34.6175 35.4236C34.7638 35.7527 34.8866 36.0101 34.974 36.1876C35.0178 36.2763 35.0527 36.3451 35.0772 36.3928C35.0895 36.4167 35.0993 36.4353 35.1062 36.4486C35.1097 36.4552 35.1125 36.4605 35.1146 36.4644C35.1156 36.4664 35.1165 36.468 35.1172 36.4693C35.1175 36.4699 35.1178 36.4704 35.118 36.4709C35.1182 36.4711 35.1183 36.4714 35.1184 36.4716C35.1185 36.4718 35.1186 36.4721 36 35.9996ZM36 35.9996C35.1186 36.4721 35.1185 36.4719 35.1184 36.4717C35.1184 36.4716 35.1183 36.4715 35.1183 36.4714C35.1182 36.4713 35.1182 36.4713 35.1182 36.4713C35.1183 36.4714 35.1185 36.4718 35.1189 36.4726C35.1197 36.4741 35.1212 36.4769 35.1234 36.4811C35.1278 36.4895 35.1349 36.5031 35.1446 36.5219C35.164 36.5595 35.1935 36.6177 35.2319 36.6955C35.3085 36.8511 35.4201 37.0847 35.555 37.3882C35.825 37.9955 36.1876 38.88 36.5508 39.9755C37.279 42.1718 38 45.1868 38 48.4996L40 48.4996C40 44.9088 39.221 41.6739 38.4492 39.3461C38.0624 38.1795 37.675 37.2334 37.3825 36.5756C37.2362 36.2465 37.1134 35.9891 37.026 35.8116C36.9822 35.7229 36.9474 35.6541 36.9228 35.6064C36.9105 35.5825 36.9008 35.5639 36.8938 35.5506C36.8903 35.544 36.8875 35.5387 36.8854 35.5348C36.8844 35.5328 36.8835 35.5312 36.8829 35.5299C36.8825 35.5293 36.8822 35.5288 36.882 35.5283C36.8818 35.5281 36.8817 35.5278 36.8816 35.5277C36.8815 35.5274 36.8814 35.5271 36 35.9996ZM38 48.4996C38 51.8124 37.279 54.8274 36.5508 57.0237C36.1876 58.1192 35.825 59.0037 35.555 59.611C35.4201 59.9145 35.3085 60.1481 35.2319 60.3037C35.1935 60.3815 35.164 60.4397 35.1446 60.4773C35.1349 60.4961 35.1278 60.5097 35.1234 60.5181C35.1212 60.5223 35.1197 60.5251 35.1189 60.5266C35.1185 60.5274 35.1183 60.5278 35.1182 60.5279C35.1182 60.5279 35.1182 60.5279 35.1183 60.5278C35.1183 60.5277 35.1184 60.5276 35.1184 60.5275C35.1185 60.5273 35.1186 60.5271 36 60.9996C36.8814 61.4721 36.8815 61.4718 36.8816 61.4716C36.8817 61.4714 36.8818 61.4711 36.882 61.4709C36.8822 61.4704 36.8825 61.4699 36.8829 61.4693C36.8835 61.468 36.8844 61.4664 36.8854 61.4644C36.8875 61.4605 36.8903 61.4552 36.8938 61.4486C36.9007 61.4353 36.9105 61.4167 36.9228 61.3928C36.9473 61.3451 36.9822 61.2763 37.026 61.1876C37.1134 61.0101 37.2362 60.7527 37.3825 60.4236C37.675 59.7658 38.0624 58.8198 38.4492 57.6531C39.221 55.3253 40 52.0904 40 48.4996L38 48.4996Z" style="stroke-width: 7.51445px;"/>
      </g>
    </g>
    <g id="g-22" transform="matrix(1, 0, 0, 1, 13.667821, 12.347733)">
      <ellipse cx="36" cy="36" rx="19" ry="28" fill="none" stroke="#000" style="stroke-width: 7.51445px;"/>
      <path fill="none" stroke="#000" stroke-linecap="round" stroke-linejoin="round" d="M36 36C36 36 33 30.4036 33 23.5C33 16.5964 36 11 36 11" style="stroke-width: 7.51445px;"/>
      <path fill="none" stroke="#000" stroke-linecap="round" stroke-linejoin="round" d="M36 36C36 36 39 41.5964 39 48.5C39 55.4036 36 61 36 61" style="stroke-width: 7.51445px;"/>
    </g>
  </g>
  <g transform="matrix(0.107784986496, -0.081222012639, 0.081222012639, 0.107784986496, 1.944615676683, 11.413788624813)" style="transform-origin: 50.168px 48.348px;">
    <g id="g-3" transform="matrix(1, 0, 0, 1, 13.667821, 12.347733)">
      <ellipse cx="36" cy="36" rx="19" ry="28" fill="#A57939" style="stroke-width: 7.51445px;"/>
      <g>
        <path fill="#6A462F" fill-rule="evenodd" d="M36 64C35.9846 64 35.981 63.9785 35.9956 63.9736C44.4605 61.1397 50.792 49.7143 50.792 36.0508C50.792 22.3796 44.4534 10.9491 35.9814 8.1232C35.9134 8.10052 35.9283 8 36 8C46.4934 8 55 20.536 55 36C55 51.464 46.4934 64 36 64Z" clip-rule="evenodd" style="stroke-width: 7.51445px;"/>
        <path fill="#6A462F" d="M35.9956 63.9736L36.3131 64.9218L35.9956 63.9736ZM49.792 36.0508C49.792 42.734 48.2426 48.841 45.6871 53.6002C43.1261 58.3698 39.5986 61.7128 35.6781 63.0253L36.3131 64.9218C40.8575 63.4004 44.7282 59.6138 47.4492 54.5463C50.1758 49.4684 51.792 43.031 51.792 36.0508H49.792ZM35.665 9.07182C39.5885 10.3805 43.1193 13.7226 45.6829 18.4933C48.2408 23.2536 49.792 29.3638 49.792 36.0508H51.792C51.792 29.0666 50.174 22.6259 47.4446 17.5467C44.7209 12.4778 40.8463 8.69175 36.2978 7.17458L35.665 9.07182ZM36 9C40.8166 9 45.2921 11.8765 48.6076 16.7625C51.9193 21.643 54 28.4415 54 36H56C56 28.0945 53.8274 20.893 50.2625 15.6395C46.7013 10.3915 41.6769 7 36 7V9ZM54 36C54 43.5585 51.9193 50.357 48.6076 55.2375C45.2921 60.1235 40.8166 63 36 63V65C41.6769 65 46.7013 61.6085 50.2625 56.3605C53.8274 51.107 56 43.9055 56 36H54ZM36.2978 7.17458C36.7904 7.3389 36.9844 7.82089 36.9272 8.20152C36.8694 8.58686 36.5324 9 36 9V7C35.3959 7 35.0156 7.4634 34.9494 7.90467C34.8839 8.34123 35.1043 8.88483 35.665 9.07182L36.2978 7.17458ZM35.6781 63.0253C34.553 63.402 34.8885 65 36 65V63C37.0808 63 37.409 64.5549 36.3131 64.9218L35.6781 63.0253Z" style="stroke-width: 7.51445px;"/>
      </g>
      <g>
        <path fill="#6A462F" fill-rule="evenodd" d="M36 60.9996C36 60.9996 30 49.8067 30 35.9996C30 22.2397 35.9591 11.0761 35.9998 11C35.9711 11.0538 33 16.6294 33 23.4996C33 30.4032 36 35.9996 36 35.9996C36 35.9996 39 41.596 39 48.4996C39 55.4032 36 60.9996 36 60.9996Z" clip-rule="evenodd" style="stroke-width: 7.51445px;"/>
        <path fill="#6A462F" d="M36 60.9996L35.1186 61.4721C35.2928 61.7969 35.6314 61.9996 36 61.9996C36.3686 61.9996 36.7072 61.7969 36.8814 61.4721L36 60.9996ZM35.9998 11L36.8817 11.4713C37.142 10.9843 36.9583 10.3785 36.4713 10.1181C35.9843 9.85776 35.3785 10.0414 35.118 10.5283L35.9998 11ZM36 35.9996L36.8814 35.5271L36 35.9996ZM29 35.9996C29 43.0422 30.529 49.4021 32.0508 53.992C32.8126 56.2896 33.575 58.1509 34.1488 59.4413C34.4357 60.0866 34.6757 60.5897 34.8451 60.9336C34.9299 61.1056 34.997 61.2379 35.0435 61.3283C35.0668 61.3735 35.085 61.4083 35.0976 61.4323C35.1039 61.4443 35.1089 61.4537 35.1124 61.4603C35.1142 61.4636 35.1156 61.4663 35.1166 61.4682C35.1171 61.4692 35.1176 61.47 35.1179 61.4707C35.1181 61.471 35.1183 61.4713 35.1183 61.4715C35.1185 61.4718 35.1186 61.4721 36 60.9996C36.8814 60.5271 36.8815 60.5273 36.8815 60.5275C36.8815 60.5275 36.8816 60.5275 36.8816 60.5275C36.8815 60.5275 36.8814 60.5273 36.8812 60.5269C36.8808 60.5261 36.88 60.5247 36.8789 60.5226C36.8767 60.5183 36.873 60.5114 36.868 60.5018C36.8579 60.4827 36.8424 60.4529 36.8217 60.4128C36.7804 60.3325 36.7186 60.2108 36.6392 60.0498C36.4806 59.7277 36.2518 59.2484 35.9762 58.6287C35.425 57.3889 34.6874 55.589 33.9492 53.3626C32.471 48.9042 31 42.7641 31 35.9996L29 35.9996ZM35.118 10.5283C35.0545 10.6471 29 21.9887 29 35.9996L31 35.9996C31 22.4906 36.8636 11.5052 36.8816 11.4717L35.118 10.5283ZM34 23.4996C34 20.2029 34.714 17.201 35.4387 15.0073C36.1623 12.8167 36.8861 11.4631 36.8817 11.4713L35.1178 10.5286C35.0663 10.6251 32 16.3787 32 23.4996L34 23.4996ZM36 35.9996C36.8814 35.5271 36.8815 35.5273 36.8816 35.5275C36.8816 35.5276 36.8817 35.5277 36.8817 35.5278C36.8818 35.5279 36.8818 35.5279 36.8818 35.5279C36.8817 35.5278 36.8815 35.5274 36.8811 35.5266C36.8803 35.5251 36.8788 35.5223 36.8766 35.5181C36.8722 35.5097 36.8651 35.4961 36.8554 35.4773C36.836 35.4397 36.8065 35.3815 36.7681 35.3037C36.6915 35.1481 36.5799 34.9145 36.445 34.611C36.175 34.0037 35.8124 33.1192 35.4492 32.0237C34.721 29.8274 34 26.8124 34 23.4996L32 23.4996C32 27.0904 32.779 30.3253 33.5508 32.6531C33.9376 33.8198 34.325 34.7658 34.6175 35.4236C34.7638 35.7527 34.8866 36.0101 34.974 36.1876C35.0178 36.2763 35.0527 36.3451 35.0772 36.3928C35.0895 36.4167 35.0993 36.4353 35.1062 36.4486C35.1097 36.4552 35.1125 36.4605 35.1146 36.4644C35.1156 36.4664 35.1165 36.468 35.1172 36.4693C35.1175 36.4699 35.1178 36.4704 35.118 36.4709C35.1182 36.4711 35.1183 36.4714 35.1184 36.4716C35.1185 36.4718 35.1186 36.4721 36 35.9996ZM36 35.9996C35.1186 36.4721 35.1185 36.4719 35.1184 36.4717C35.1184 36.4716 35.1183 36.4715 35.1183 36.4714C35.1182 36.4713 35.1182 36.4713 35.1182 36.4713C35.1183 36.4714 35.1185 36.4718 35.1189 36.4726C35.1197 36.4741 35.1212 36.4769 35.1234 36.4811C35.1278 36.4895 35.1349 36.5031 35.1446 36.5219C35.164 36.5595 35.1935 36.6177 35.2319 36.6955C35.3085 36.8511 35.4201 37.0847 35.555 37.3882C35.825 37.9955 36.1876 38.88 36.5508 39.9755C37.279 42.1718 38 45.1868 38 48.4996L40 48.4996C40 44.9088 39.221 41.6739 38.4492 39.3461C38.0624 38.1795 37.675 37.2334 37.3825 36.5756C37.2362 36.2465 37.1134 35.9891 37.026 35.8116C36.9822 35.7229 36.9474 35.6541 36.9228 35.6064C36.9105 35.5825 36.9008 35.5639 36.8938 35.5506C36.8903 35.544 36.8875 35.5387 36.8854 35.5348C36.8844 35.5328 36.8835 35.5312 36.8829 35.5299C36.8825 35.5293 36.8822 35.5288 36.882 35.5283C36.8818 35.5281 36.8817 35.5278 36.8816 35.5277C36.8815 35.5274 36.8814 35.5271 36 35.9996ZM38 48.4996C38 51.8124 37.279 54.8274 36.5508 57.0237C36.1876 58.1192 35.825 59.0037 35.555 59.611C35.4201 59.9145 35.3085 60.1481 35.2319 60.3037C35.1935 60.3815 35.164 60.4397 35.1446 60.4773C35.1349 60.4961 35.1278 60.5097 35.1234 60.5181C35.1212 60.5223 35.1197 60.5251 35.1189 60.5266C35.1185 60.5274 35.1183 60.5278 35.1182 60.5279C35.1182 60.5279 35.1182 60.5279 35.1183 60.5278C35.1183 60.5277 35.1184 60.5276 35.1184 60.5275C35.1185 60.5273 35.1186 60.5271 36 60.9996C36.8814 61.4721 36.8815 61.4718 36.8816 61.4716C36.8817 61.4714 36.8818 61.4711 36.882 61.4709C36.8822 61.4704 36.8825 61.4699 36.8829 61.4693C36.8835 61.468 36.8844 61.4664 36.8854 61.4644C36.8875 61.4605 36.8903 61.4552 36.8938 61.4486C36.9007 61.4353 36.9105 61.4167 36.9228 61.3928C36.9473 61.3451 36.9822 61.2763 37.026 61.1876C37.1134 61.0101 37.2362 60.7527 37.3825 60.4236C37.675 59.7658 38.0624 58.8198 38.4492 57.6531C39.221 55.3253 40 52.0904 40 48.4996L38 48.4996Z" style="stroke-width: 7.51445px;"/>
      </g>
    </g>
    <g id="g-4" transform="matrix(1, 0, 0, 1, 13.667821, 12.347733)">
      <ellipse cx="36" cy="36" rx="19" ry="28" fill="none" stroke="#000" style="stroke-width: 7.51445px;"/>
      <path fill="none" stroke="#000" stroke-linecap="round" stroke-linejoin="round" d="M36 36C36 36 33 30.4036 33 23.5C33 16.5964 36 11 36 11" style="stroke-width: 7.51445px;"/>
      <path fill="none" stroke="#000" stroke-linecap="round" stroke-linejoin="round" d="M36 36C36 36 39 41.5964 39 48.5C39 55.4036 36 61 36 61" style="stroke-width: 7.51445px;"/>
    </g>
  </g>
</svg>