<?xml version="1.0" encoding="utf-8"?>
<svg viewBox="0 0 72 72" xmlns="http://www.w3.org/2000/svg">
  <g transform="matrix(0.947614133358, 0.441877007484, -0.441877007484, 0.947614133358, 0.378298539654, -1.280574091211)" style="transform-origin: 36.83px 37.1283px;">
    <g id="g-13">
      <path fill="#A57939" stroke="#A57939" stroke-linecap="round" stroke-linejoin="round" stroke-miterlimit="10" d="M37.17,65.34h-1.26c-6.6,0-12-5.4-12-12V41.67c0-6.6,5.4-12,12-12h0.82c0,0,7.35,3.41,7.35,8c0,4.58,0,18,0,18v2.31 C44.08,57.98,44.5,65.34,37.17,65.34z" style="stroke-width: 1.82904px;"/>
      <path fill="#6A462F" stroke="#6A462F" stroke-linecap="round" stroke-linejoin="round" stroke-miterlimit="10" d="M49.75,41.67v11.67c0,6.6-5.4,12-12,12h-0.58c7.33,0,6.91-7.36,6.91-7.36v-2.31c0,0,0-13.42,0-18c0-4.59-7.35-8-7.35-8h1.02 C44.35,29.67,49.75,35.07,49.75,41.67z" style="stroke-width: 1.82904px;"/>
      <path fill="#B1CC33" stroke="none" stroke-linejoin="round" stroke-miterlimit="10" d="M44.374,14.6787 c2.1344,0.044,3.8706,0.5836,3.8706,0.5836s-2.2161,2.2134-4.6058,5.5611c1.9403,0.0441,3.5029,0.5396,3.5029,0.5396 s-3.1148,3.1274-5.8109,7.4661c-1.8893,3.0393-4.5956,2.8191-4.5956,2.8191s-2.7063,0.2313-4.6058-2.8191 c-2.6961-4.3388-5.8109-7.4661-5.8109-7.4661s1.5625-0.4956,3.5029-0.5396c-2.3897-3.3476-4.6058-5.5611-4.6058-5.5611 s1.7361-0.5396,3.8706-0.5836c-2.2978-3.1275-4.3301-5.1536-4.3301-5.1536s7.9146-2.4337,10.9375,2.4336 c0.4391,0.7048,0.7762,1.3875,1.0417,2.0483c0.2553-0.6608,0.5923-1.3435,1.0315-2.0483 c3.0228-4.8673,10.9375-2.4336,10.9375-2.4336S46.6718,11.5513,44.374,14.6787z" style="stroke-width: 1.82904px;"/>
      <path fill="#B1CC33" stroke="none" stroke-linecap="round" stroke-linejoin="round" stroke-miterlimit="10" d="M43.6387,20.8234c-3.0513,1.236-3.5224,3.1594-4.3209,4.0898" style="stroke-width: 1.82904px;"/>
      <path fill="#B1CC33" stroke="none" stroke-linecap="round" stroke-linejoin="round" stroke-miterlimit="10" d="M44.374,14.6787c0,0-4.4382,1.5439-4.6699,4.3635" style="stroke-width: 1.82904px;"/>
      <path fill="#B1CC33" stroke="none" stroke-linecap="round" stroke-linejoin="round" stroke-miterlimit="10" d="M29.8562,20.8234c3.0513,1.236,3.5224,3.1594,4.3209,4.0898" style="stroke-width: 1.82904px;"/>
      <path fill="#B1CC33" stroke="none" stroke-linecap="round" stroke-linejoin="round" stroke-miterlimit="10" d="M29.1209,14.6787c0,0,4.4382,1.5439,4.6699,4.3635" style="stroke-width: 1.82904px;"/>
    </g>
    <g id="g-14">
      <path fill="none" stroke="#000000" stroke-linecap="round" stroke-linejoin="round" stroke-miterlimit="10" d="M45.3047,32.3685c2.7068,2.205,4.443,5.5616,4.443,9.3041v11.6667c0,6.6-5.4,12-12,12h-1.8343c-6.6,0-12-5.4-12-12V41.6725 c0-4.0844,2.0681-7.7093,5.2089-9.8792" style="stroke-width: 1.82904px;"/>
      <path fill="none" stroke="#000000" stroke-linejoin="round" stroke-miterlimit="10" d="M44.374,14.6787 c2.1344,0.044,3.8706,0.5836,3.8706,0.5836s-2.2161,2.2134-4.6058,5.5611c1.9403,0.0441,3.5029,0.5396,3.5029,0.5396 s-3.1148,3.1274-5.8109,7.4661c-1.8893,3.0393-4.5956,2.8191-4.5956,2.8191s-2.7063,0.2313-4.6058-2.8191 c-2.6961-4.3388-5.8109-7.4661-5.8109-7.4661s1.5625-0.4956,3.5029-0.5396c-2.3897-3.3476-4.6058-5.5611-4.6058-5.5611 s1.7361-0.5396,3.8706-0.5836c-2.2978-3.1275-4.3301-5.1536-4.3301-5.1536s7.9146-2.4337,10.9375,2.4336 c0.4391,0.7048,0.7762,1.3875,1.0417,2.0483c0.2553-0.6608,0.5923-1.3435,1.0315-2.0483 c3.0228-4.8673,10.9375-2.4336,10.9375-2.4336S46.6718,11.5513,44.374,14.6787z" style="stroke-width: 1.82904px;"/>
      <path fill="none" stroke="#000000" stroke-linecap="round" stroke-linejoin="round" stroke-miterlimit="10" d="M43.6387,20.8234c-3.0513,1.236-3.5224,3.1594-4.3209,4.0898" style="stroke-width: 1.82904px;"/>
      <path fill="none" stroke="#000000" stroke-linecap="round" stroke-linejoin="round" stroke-miterlimit="10" d="M44.374,14.6787c0,0-4.4382,1.5439-4.6699,4.3635" style="stroke-width: 1.82904px;"/>
      <path fill="none" stroke="#000000" stroke-linecap="round" stroke-linejoin="round" stroke-miterlimit="10" d="M29.8562,20.8234c3.0513,1.236,3.5224,3.1594,4.3209,4.0898" style="stroke-width: 1.82904px;"/>
      <path fill="none" stroke="#000000" stroke-linecap="round" stroke-linejoin="round" stroke-miterlimit="10" d="M29.1209,14.6787c0,0,4.4382,1.5439,4.6699,4.3635" style="stroke-width: 1.82904px;"/>
    </g>
  </g>
  <g transform="matrix(0.837346076965332, 0, 0, 0.837346076965332, 4.963748931884751, 6.852155208587643)" style="">
    <g id="g-1">
      <path fill="#B1CC33" stroke="none" stroke-linejoin="round" stroke-miterlimit="10" d="M55.2257,56.7807 c-10.9878,10.9766-28.7798,10.9766-39.7676,0c-10.9765-10.9878-10.9765-28.7797,0-39.7675l2.6542,2.6542 c-9.5258,9.5145-9.5258,24.9447,0,34.4592c9.5145,9.5258,24.9447,9.5258,34.4592,0L55.2257,56.7807z" style="stroke-width: 2.19365px;"/>
      <path fill="#EA5A47" stroke="#EA5A47" stroke-linecap="round" stroke-linejoin="round" stroke-miterlimit="10" d="M52.5715,54.1265c-9.5145,9.5258-24.9447,9.5258-34.4592,0c-9.5258-9.5145-9.5258-24.9447,0-34.4592L52.5715,54.1265" style="stroke-width: 2.19365px;"/>
      <path fill="#EA5A47" stroke="none" stroke-linecap="round" stroke-linejoin="round" stroke-miterlimit="10" d="M49.5241,56.7181c-9.5196,6.8373-22.857,5.9734-31.4119-2.5916c-8.6198-8.6097-9.4396-22.0632-2.4594-31.5942" style="stroke-width: 2.19365px;"/>
    </g>
    <g id="g-2">
      <path fill="none" stroke="#000000" stroke-linejoin="round" stroke-miterlimit="10" d="M55.2257,56.7807 c-10.9878,10.9766-28.7798,10.9766-39.7676,0c-10.9765-10.9878-10.9765-28.7797,0-39.7675l2.6542,2.6542 c-9.5258,9.5145-9.5258,24.9447,0,34.4592c9.5145,9.5258,24.9447,9.5258,34.4592,0L55.2257,56.7807z" style="stroke-width: 2.19365px;"/>
      <line x1="17.5157" x2="53.7223" y1="19.0707" y2="55.2773" fill="none" stroke="#000000" stroke-linecap="round" stroke-linejoin="round" stroke-miterlimit="10" style="stroke-width: 2.19365px;"/>
      <path fill="none" stroke="#000000" stroke-linecap="round" stroke-linejoin="round" stroke-miterlimit="10" d="M49.5241,56.7181c-9.5196,6.8373-22.857,5.9734-31.4119-2.5916c-8.6198-8.6097-9.4396-22.0632-2.4594-31.5942" style="stroke-width: 2.19365px;"/>
      <ellipse cx="31.8301" cy="46.9072" rx="1.687" ry="0.8435" transform="matrix(0.7071 -0.7071 0.7071 0.7071 -23.8456 36.2461)" fill="#000000" stroke="none" style="stroke-width: 2.19367px;"/>
      <ellipse cx="44.5541" cy="53.2691" rx="1.687" ry="0.8435" transform="matrix(0.7071 -0.7071 0.7071 0.7071 -24.6174 47.1066)" fill="#000000" stroke="none" style="stroke-width: 2.19367px;"/>
      <ellipse cx="31.8301" cy="54.8596" rx="1.687" ry="0.8435" transform="matrix(0.7071 -0.7071 0.7071 0.7071 -29.4688 38.5753)" fill="#000000" stroke="none" style="stroke-width: 2.19367px;"/>
      <ellipse cx="25.8167" cy="40.8938" rx="1.687" ry="0.8435" transform="matrix(0.7071 -0.7071 0.7071 0.7071 -21.3547 30.2327)" fill="#000000" stroke="none" style="stroke-width: 2.19367px;"/>
      <ellipse cx="19.4548" cy="28.1698" rx="1.687" ry="0.8435" transform="matrix(0.7071 -0.7071 0.7071 0.7071 -14.2209 22.0073)" fill="#000000" stroke="none" style="stroke-width: 2.19367px;"/>
      <ellipse cx="17.8643" cy="40.8938" rx="1.687" ry="0.8435" transform="matrix(0.7071 -0.7071 0.7071 0.7071 -23.684 24.6094)" fill="#000000" stroke="none" style="stroke-width: 2.19367px;"/>
      <ellipse cx="22.2812" cy="50.0862" rx="1.687" ry="0.8435" transform="matrix(0.7071 -0.7071 0.7071 0.7071 -28.8903 30.4251)" fill="#000000" stroke="none" style="stroke-width: 2.19367px;"/>
    </g>
  </g>
  <g transform="matrix(0.831105113029, 0.102047003806, -0.102047003806, 0.831105113029, 5.002678775847, 6.491187179212)" style="transform-origin: 36.0078px 36.1483px;">
    <g id="g-3">
      <path fill="#fcea2b" stroke="#fcea2b" stroke-linecap="round" stroke-linejoin="round" stroke-miterlimit="10" d="m50.46 50.44c-11.2 13.24-28.24 12.54-35.31 6.547l-0.4132-1.901c12.72-3.783 15.02-2.284 25.01-11.49 5.776-6.855 10.6-16.93 10.32-24.26 6.04-0.1879 0 0 4.682-0.1879 3.885 9.759 2.355 22.91-4.282 31.29z" style="stroke-width: 2.19365px;"/>
      <path fill="#f1b31c" stroke="#f1b31c" stroke-linecap="round" stroke-linejoin="round" stroke-miterlimit="10" d="m53.21 19.66c4.526-0.4236 5.228 22.66-1.408 31.04-11.8 11.01-24.25 12.1-36.84 5.362 25.96 5.489 39.47-15.38 38.25-36.4z" style="stroke-width: 2.19365px;"/>
    </g>
    <g id="g-4">
      <line x1="52.09" x2="51.52" y1="15.49" y2="11.2" fill="none" stroke="#000" stroke-linecap="round" stroke-linejoin="round" stroke-miterlimit="10" style="stroke-width: 2.19365px;"/>
      <path fill="none" stroke="#000" stroke-linecap="round" stroke-linejoin="round" stroke-miterlimit="10" d="m25.79 56.55c16.7-2.905 24.45-11.14 26.67-27.09" style="stroke-width: 2.19365px;"/>
      <path fill="none" stroke="#000" stroke-linecap="round" stroke-linejoin="round" stroke-miterlimit="10" d="m47.54 54.03c-8.106 7.212-23.05 9.45-32.43 2.757l-0.4132-1.901c18.42-2.206 32.78-13.96 35.36-35.55 1.105-0.0041 4.645-0.3957 4.645-0.3957 5.599 15.1 1.754 27.15-7.164 35.08z" style="stroke-width: 2.19365px;"/>
    </g>
  </g>
  <g transform="matrix(0.46211302280426025, 0, 0, 0.46211302280426025, 13.868960380554185, 39.57120132446289)" style="">
    <g id="g-5">
      <path fill="#B1CC33" stroke="#B1CC33" stroke-linecap="round" stroke-linejoin="round" stroke-miterlimit="10" d="M43.9805,22.748c3.2532-1.7664,6.7524-2.0682,9.8603-0.5143c6.7971,3.4098,9.1671,14.3768,5.3102,24.4942 c-3.8569,10.1286-12.4875,15.573-19.2735,12.1633c-0.4877-0.2459-0.953-0.5297-1.3942-0.849 c-1.2846-0.9296-3.0462-0.93-4.3311-0.0009c-0.4421,0.3197-0.9078,0.6038-1.396,0.8499 c-6.7971,3.4097-15.4276-2.0347-19.2846-12.1633c-3.8569-10.1174-1.4756-21.0845,5.3102-24.4942 c3.1079-1.5539,6.5959-1.2633,9.838,0.4919c0,0,0.0559,0.0336,0.1677,0.0895c0.7379,0.3913,3.9128,1.9564,7.0878,1.9564 c3.1637,0,7.043-1.5652,7.9598-1.9564C43.9022,22.7816,43.9469,22.7592,43.9805,22.748" style="stroke-width: 3.97488px;"/>
      <path fill="#f4aa41" stroke="none" d="M49.407,21.2342c-0.0849-0.0094-0.1605,0-0.2454,0.0094l0.0377-0.2266 C49.2749,21.0926,49.341,21.1587,49.407,21.2342z" style="stroke-width: 3.97488px;"/>
      <path fill="#5C9E31" stroke="#5C9E31" stroke-linejoin="round" stroke-miterlimit="10" d="M36.2186,57.324 l-0.223,0.0652c-0.6184,0.0559-1.2366,0.2328-1.7738,0.5493c-0.071,0.0373-0.1521,0.0838-0.223,0.1304 c-0.4764,0.3166-0.9731,0.5959-1.5001,0.838c-1.5103,0.6983-3.1118,1.0148-4.7336,1.0055c-0.0405,0-0.081,0-0.1216-0.0093 C27.9374,59.5399,29.9443,57.324,36.2186,57.324z" style="stroke-width: 3.97488px;"/>
      <path fill="#5C9E31" stroke="#5C9E31" stroke-linejoin="round" stroke-miterlimit="10" d="M59.1497,46.7238 c-3.3608,8.8364-11.2484,16.1269-21.3971,10.8559c8.2802,1.7898,28.8929-18.7766,11.6544-36.3455 c1.52-0.0283,3.021,0.2927,4.4371,1.0007C60.6414,25.643,63.011,36.6129,59.1497,46.7238z" style="stroke-width: 3.97488px;"/>
      <path fill="#B1CC33" stroke="none" stroke-linecap="round" stroke-linejoin="round" stroke-miterlimit="10" d="M48.4527,17.2241c3.9562,1.3292,6.8444,5.8193,6.8444,5.8193s-5.0134,1.8354-8.9696,0.5062 c-3.9508-1.3274-6.8444-5.8193-6.8444-5.8193S44.5019,15.8967,48.4527,17.2241z" style="stroke-width: 3.97488px;"/>
    </g>
    <g id="g-6">
      <polyline fill="none" stroke="#000000" stroke-linecap="round" stroke-linejoin="round" stroke-miterlimit="10" points="35.4541,20.5625 35.4541,15.1018 31.1106,10.7583" style="stroke-width: 3.97488px;"/>
      <path fill="none" stroke="#000000" stroke-linecap="round" stroke-linejoin="round" stroke-miterlimit="10" d="M57.7417,25.5951c3.6482,4.9493,4.3968,13.296,1.4093,21.1329c-3.8569,10.1286-12.4875,15.573-19.2735,12.1633 c-0.4877-0.2459-0.953-0.5297-1.3942-0.849c-1.2846-0.9296-3.0462-0.93-4.3311-0.0009c-0.4421,0.3197-0.9078,0.6038-1.396,0.8499 c-6.7971,3.4097-15.4276-2.0347-19.2846-12.1633c-3.8569-10.1174-1.4756-21.0845,5.3102-24.4942 c3.1079-1.5539,6.5959-1.2633,9.838,0.4919c0,0,0.0559,0.0336,0.1677,0.0895c0.7379,0.3913,3.9128,1.9564,7.0878,1.9564 c0.7267,0,1.4911-0.0826,2.2487-0.2145c0,0,1.1885-0.182,2.126-0.4632" style="stroke-width: 3.97488px;"/>
      <path fill="none" stroke="#000000" stroke-linecap="round" stroke-linejoin="round" stroke-miterlimit="10" d="M48.4527,17.2241c3.9562,1.3292,6.8444,5.8193,6.8444,5.8193s-5.0134,1.8354-8.9696,0.5062 c-3.9508-1.3274-6.8444-5.8193-6.8444-5.8193S44.5019,15.8967,48.4527,17.2241z" style="stroke-width: 3.97488px;"/>
    </g>
  </g>
  <g transform="matrix(0.289634019136, 0.370715051889, -0.370715051889, 0.289634019136, 2.344986700211, 20.313986674233)" style="transform-origin: 45.6759px 37.4729px;">
    <g id="g-7" transform="matrix(1, 0, 0, 1, 9.636604, 1.351972)">
      <path fill="#b399c8" d="m32.33 37.54a6.688 6.688 0 0 1-6.688 6.688 6.688 6.688 0 0 1-6.688-6.688 6.688 6.688 0 0 1 6.688-6.688 6.688 6.688 0 0 1 6.688 6.688" style="stroke-width: 3.90449px;"/>
      <path fill="#b399c8" d="m27.88 27.51a6.688 6.688 0 0 1-6.688 6.688 6.688 6.688 0 0 1-6.688-6.688 6.688 6.688 0 0 1 6.688-6.688 6.688 6.688 0 0 1 6.688 6.688" style="stroke-width: 3.90449px;"/>
      <path fill="#b399c8" d="m31.22 34.2a6.684 6.684 0 1 0-5.897-3.531" style="stroke-width: 3.90449px;"/>
      <path fill="#b399c8" d="m49.05 47.58a6.688 6.688 0 0 1-6.688 6.688 6.688 6.688 0 0 1-6.688-6.688 6.688 6.688 0 0 1 6.688-6.688 6.688 6.688 0 0 1 6.688 6.688" style="stroke-width: 3.90449px;"/>
      <path fill="#b399c8" d="m37.91 47.58a6.688 6.688 0 0 1-6.688 6.688 6.688 6.688 0 0 1-6.688-6.688 6.688 6.688 0 0 1 6.688-6.688 6.688 6.688 0 0 1 6.688 6.688" style="stroke-width: 3.90449px;"/>
      <path fill="#b399c8" d="m55.74 37.54a6.688 6.688 0 0 1-6.688 6.688 6.688 6.688 0 0 1-6.688-6.688 6.688 6.688 0 0 1 6.688-6.688 6.688 6.688 0 0 1 6.688 6.688" style="stroke-width: 3.90449px;"/>
      <path fill="#b399c8" d="m43.48 36.43a6.688 6.688 0 0 1-6.688 6.688 6.688 6.688 0 0 1-6.688-6.688 6.688 6.688 0 0 1 6.688-6.688 6.688 6.688 0 0 1 6.688 6.688" style="stroke-width: 3.90449px;"/>
      <path fill="#8967aa" d="m36.57 29.13a6.688 6.688 0 0 1 0 13.38" style="stroke-width: 3.90449px;"/>
      <path fill="#8967aa" d="m57.82 27.18c0 3.693-1.239 5.486-4.762 4.377-4.713-1.483-8.869 0.0912-8.613-4.377 0.2117-3.687 2.994-6.688 6.688-6.688s6.688 2.994 6.688 6.688" style="stroke-width: 3.90449px;"/>
      <path fill="#b399c8" d="m47.22 30.54a6.678 6.678 0 1 0-4.165 3.415" style="stroke-width: 3.90449px;"/>
      <path fill="#b399c8" d="m43.48 57.61a6.688 6.688 0 0 1-6.688 6.688 6.688 6.688 0 0 1-6.688-6.688 6.688 6.688 0 0 1 6.688-6.688 6.688 6.688 0 0 1 6.688 6.688" style="stroke-width: 3.90449px;"/>
      <path fill="#8967aa" d="m36.57 50.92a6.688 6.688 0 0 1 0 13.38" style="stroke-width: 3.90449px;"/>
      <path fill="#8967aa" d="m42.16 40.89a6.688 6.688 0 0 1 0 13.38" style="stroke-width: 3.90449px;"/>
      <path fill="#8967aa" d="m48.97 30.79a6.688 6.688 0 0 1 0 13.38" style="stroke-width: 3.90449px;"/>
      <path fill="#8967aa" d="m41.08 20.88a6.688 6.688 0 0 1 0 13.38" style="stroke-width: 3.90449px;"/>
    </g>
    <g id="g-8" transform="matrix(1, 0, 0, 1, 9.636604, 1.351972)">
      <path fill="none" stroke="#000" stroke-linecap="round" stroke-linejoin="round" d="m37.01 21.82c-1.343-7.331-6.229-22.43-22.85-7.574" style="stroke-width: 3.90449px;"/>
      <path fill="none" stroke="#000" stroke-miterlimit="10" d="m54.34 32.9a6.679 6.672 0 1 0-8.112-10.32" style="stroke-width: 3.90449px;"/>
      <path fill="none" stroke="#000" stroke-miterlimit="10" d="m30.48 40.42a6.625 6.619 0 0 1-0.949-3.418 6.706 6.699 0 0 1 5.462-6.562" style="stroke-width: 3.90449px;"/>
      <ellipse cx="36.57" cy="57.34" rx="6.721" ry="6.715" fill="none" stroke="#000" stroke-miterlimit="10" style="stroke-width: 3.90449px;"/>
      <path fill="none" stroke="#000" stroke-miterlimit="10" d="m36.57 50.62a6.721 6.715 0 0 0 0 13.43" style="stroke-width: 3.90449px;"/>
      <path fill="none" stroke="#000" stroke-miterlimit="10" d="m42.17 53.98q0.2552 0 0.5059-0.01869" style="stroke-width: 3.90449px;"/>
      <path fill="none" stroke="#000" stroke-miterlimit="10" d="m42.67 53.96a6.718 6.711 0 1 0-6.551-3.756" style="stroke-width: 3.90449px;"/>
      <path fill="none" stroke="#000" stroke-miterlimit="10" d="m36.37 43.28a6.721 6.715 0 1 0-6.042 10.67" style="stroke-width: 3.90449px;"/>
      <path fill="none" stroke="#000" stroke-miterlimit="10" d="m43.13 33.73a6.732 6.725 0 0 0-0.2801 6.416" style="stroke-width: 3.90449px;"/>
      <path fill="none" stroke="#000" stroke-miterlimit="10" d="m47.91 43.84a6.721 6.715 0 1 0-4.783-10.11" style="stroke-width: 3.90449px;"/>
      <path fill="none" stroke="#000" stroke-miterlimit="10" d="m30.41 32.75a6.721 6.715 0 1 0-6.157 11.06" style="stroke-width: 3.90449px;"/>
      <path fill="none" stroke="#000" stroke-miterlimit="10" d="m24.25 43.81a6.775 6.768 0 0 0 1.112 0.09143" style="stroke-width: 3.90449px;"/>
      <path fill="none" stroke="#000" stroke-miterlimit="10" d="m54.5 32.93a6.721 6.715 0 1 0-8.322-10.35" style="stroke-width: 3.90449px;"/>
      <path fill="none" stroke="#000" stroke-miterlimit="10" d="m46.68 30.78a6.708 6.701 0 1 0-3.669 2.765" style="stroke-width: 3.90449px;"/>
      <path fill="none" stroke="#000" stroke-miterlimit="10" d="m35.83 22.48a6.723 6.716 0 0 0-10.9 7.582" style="stroke-width: 3.90449px;"/>
      <path fill="none" stroke="#000" stroke-miterlimit="10" d="m25.64 22.37a6.721 6.715 0 1 0-6.216 11.3" style="stroke-width: 3.90449px;"/>
      <path fill="none" stroke="#000" stroke-linecap="round" stroke-linejoin="round" d="m50.57 9.212s-3.357 7.635-15.68 5.496" style="stroke-width: 3.90449px;"/>
    </g>
  </g>
  <g transform="matrix(0.197378024459, -0.113955996931, -0.113955996931, -0.197378024459, -20.6733989927, 23.330532619366)" style="transform-origin: 38.0717px 38.0717px;">
    <g id="color">
      <circle cx="31.0752" cy="31.0752" r="15.9318" fill="#1e50a0" style="stroke-width: 4.18672px;"/>
      <path fill="#92d3f5" d="M31.1391,25.3086a6.83,6.83,0,0,0-3.1626-.4173,6.8188,6.8188,0,0,0-1.3688-2.88l-.0962-.0884-.0962.0884a7.1959,7.1959,0,0,0-1.3688,2.88,6.83,6.83,0,0,0-3.1626.4173l-.1132.0651.0552.1183a7.1677,7.1677,0,0,0,2.3152,2.1859,6.8412,6.8412,0,0,0-.6005,3.1348l.0268.1278.13-.0158A7.2429,7.2429,0,0,0,26.5115,29.4a7.1092,7.1092,0,0,0,2.7793,1.5246l.13.0158.0269-.1278a6.8058,6.8058,0,0,0-.5654-3.1348,7.1688,7.1688,0,0,0,2.3152-2.1859l.0552-.1183Z" style="stroke-width: 4.18672px;"/>
      <circle cx="46" cy="46" r="15" fill="#1e50a0" style="stroke-width: 4.18672px;"/>
      <path fill="#92d3f5" d="M45.8609,40.3086a6.83,6.83,0,0,1,3.1626-.4173,6.8188,6.8188,0,0,1,1.3688-2.88l.0962-.0884.0962.0884a7.1959,7.1959,0,0,1,1.3688,2.88,6.83,6.83,0,0,1,3.1626.4173l.1132.0651-.0552.1183a7.1677,7.1677,0,0,1-2.3152,2.1859,6.8412,6.8412,0,0,1,.6005,3.1348l-.0268.1278-.13-.0158A7.2429,7.2429,0,0,1,50.4885,44.4a7.1092,7.1092,0,0,1-2.7793,1.5246l-.13.0158-.0269-.1278a6.8058,6.8058,0,0,1,.5654-3.1348,7.1688,7.1688,0,0,1-2.3152-2.1859l-.0552-.1183Z" style="stroke-width: 4.18672px;"/>
    </g>
    <g id="line">
      <path fill="none" stroke="#000" stroke-linecap="round" stroke-linejoin="round" d="M31.1391,25.3086a6.83,6.83,0,0,0-3.1626-.4173,6.8188,6.8188,0,0,0-1.3688-2.88l-.0962-.0884-.0962.0884a7.1959,7.1959,0,0,0-1.3688,2.88,6.83,6.83,0,0,0-3.1626.4173l-.1132.0651.0552.1183a7.1677,7.1677,0,0,0,2.3152,2.1859,6.8412,6.8412,0,0,0-.6005,3.1348l.0268.1278.13-.0158A7.2429,7.2429,0,0,0,26.5115,29.4a7.1092,7.1092,0,0,0,2.7793,1.5246l.13.0158.0269-.1278a6.8058,6.8058,0,0,0-.5654-3.1348,7.1688,7.1688,0,0,0,2.3152-2.1859l.0552-.1183Z" style="stroke-width: 4.18672px;"/>
      <path fill="none" stroke="#000" stroke-linecap="round" stroke-linejoin="round" d="M26.5114,45.3169A15.0024,15.0024,0,1,1,45.5271,27.2485" style="stroke-width: 4.18672px;"/>
      <path fill="none" stroke="#000" stroke-linecap="round" stroke-linejoin="round" d="M45.8609,40.3086a6.83,6.83,0,0,1,3.1626-.4173,6.8188,6.8188,0,0,1,1.3688-2.88l.0962-.0884.0962.0884a7.1959,7.1959,0,0,1,1.3688,2.88,6.83,6.83,0,0,1,3.1626.4173l.1132.0651-.0552.1183a7.1677,7.1677,0,0,1-2.3152,2.1859,6.8412,6.8412,0,0,1,.6005,3.1348l-.0268.1278-.13-.0158A7.2429,7.2429,0,0,1,50.4885,44.4a7.1092,7.1092,0,0,1-2.7793,1.5246l-.13.0158-.0269-.1278a6.8058,6.8058,0,0,1,.5654-3.1348,7.1688,7.1688,0,0,1-2.3152-2.1859l-.0552-.1183Z" style="stroke-width: 4.18672px;"/>
      <circle cx="46" cy="46" r="15" fill="none" stroke="#000" stroke-linecap="round" stroke-linejoin="round" style="stroke-width: 4.18672px;"/>
    </g>
  </g>
  <g transform="matrix(0.175359025598, 0.175359025598, -0.175359025598, 0.175359025598, -11.969636869828, 26.095171465662)" style="transform-origin: 36.1945px 36.9878px;">
    <g id="g-11">
      <path fill="#ea5a47" d="M36.153,60.1681h-.0274l-.0439-.0019c-3.9814-.1885-12.4863-4.3536-19.123-18.7686a14.5371,14.5371,0,0,1,.4423-14.6689c3.4786-5.4161,10.37-8.3526,18.8916-8.0166,8.4278-.2959,15.2793,2.6328,18.7442,8.0371,2.7558,4.3007,2.8877,9.6679.3623,14.7265C52.5026,47.7492,44.7565,59.77,36.2614,60.1662,36.238,60.1671,36.1881,60.1681,36.153,60.1681Z" style="stroke-width: 3.84768px;"/>
      <path fill="#d22f27" d="M55.0368,26.7491c-3.4649-5.4043-10.3164-8.333-18.7442-8.0371a31.649,31.649,0,0,0-3.5044.0584c6.8992.4828,12.4383,3.3011,15.4373,7.9787,2.7559,4.3008,2.8877,9.668.3623,14.7266-2.5024,5.42-8.6257,15.1239-15.7236,17.921a10.2708,10.2708,0,0,0,3.2175.7694l.0439.002h.0274c.0351,0,.085-.001.1084-.002,8.4951-.3964,16.2412-12.417,19.1377-18.69C57.9245,36.4171,57.7926,31.05,55.0368,26.7491Z" style="stroke-width: 3.84768px;"/>
      <path fill="#5c9e31" d="M26.9616,27.7258a1,1,0,0,1-.9219-.6153,5.4579,5.4579,0,0,1-.334-2.72c-6.9277.1084-8.4775-1.9932-8.7256-2.4385a1,1,0,0,1,.2159-1.2412,17.9743,17.9743,0,0,1,16.2324-3.9277v-.9316a2.0464,2.0464,0,0,1,2.0439-2.044h1.251a2.0463,2.0463,0,0,1,2.0439,2.044v.9794a17.9573,17.9573,0,0,1,16.4375,3.88,1,1,0,0,1,.2159,1.2412c-.2491.4473-1.8242,2.56-8.8467,2.4366a6.3533,6.3533,0,0,1-.5088,2.7744,1.0015,1.0015,0,0,1-.8994.5625c-3.5869,0-7.4912-1.9766-8.9268-2.7783-3.2646,2.0214-8.9013,2.7392-9.1533,2.77A1.075,1.075,0,0,1,26.9616,27.7258Z" style="stroke-width: 3.84768px;"/>
      <circle cx="25.1979" cy="33.736" r="2" fill="#d22f27" style="stroke-width: 3.84768px;"/>
      <circle cx="33.1979" cy="33.736" r="2" fill="#d22f27" style="stroke-width: 3.84768px;"/>
      <circle cx="40.1979" cy="33.736" r="2" fill="#d22f27" style="stroke-width: 3.84768px;"/>
      <circle cx="47.1979" cy="33.736" r="2" fill="#d22f27" style="stroke-width: 3.84768px;"/>
      <circle cx="44.1979" cy="42.1463" r="2" fill="#d22f27" style="stroke-width: 3.84768px;"/>
      <circle cx="36.1979" cy="42.1463" r="2" fill="#d22f27" style="stroke-width: 3.84768px;"/>
      <circle cx="28.1979" cy="42.1463" r="2" fill="#d22f27" style="stroke-width: 3.84768px;"/>
      <circle cx="32.1979" cy="51.7437" r="2" fill="#d22f27" style="stroke-width: 3.84768px;"/>
      <circle cx="40.1979" cy="51.7437" r="2" fill="#d22f27" style="stroke-width: 3.84768px;"/>
    </g>
    <g id="g-12">
      <line x1="24.9942" x2="24.9942" y1="34.7437" y2="32.7282" fill="none" stroke="#000" stroke-linecap="round" stroke-linejoin="round" style="stroke-width: 3.84768px;"/>
      <line x1="32.9942" x2="32.9942" y1="34.7437" y2="32.7282" fill="none" stroke="#000" stroke-linecap="round" stroke-linejoin="round" style="stroke-width: 3.84768px;"/>
      <line x1="39.9942" x2="39.9942" y1="34.7437" y2="32.7282" fill="none" stroke="#000" stroke-linecap="round" stroke-linejoin="round" style="stroke-width: 3.84768px;"/>
      <line x1="46.9942" x2="46.9942" y1="34.7437" y2="32.7282" fill="none" stroke="#000" stroke-linecap="round" stroke-linejoin="round" style="stroke-width: 3.84768px;"/>
      <line x1="43.9942" x2="43.9942" y1="43.154" y2="41.1385" fill="none" stroke="#000" stroke-linecap="round" stroke-linejoin="round" style="stroke-width: 3.84768px;"/>
      <line x1="35.9942" x2="35.9942" y1="43.154" y2="41.1385" fill="none" stroke="#000" stroke-linecap="round" stroke-linejoin="round" style="stroke-width: 3.84768px;"/>
      <line x1="27.9942" x2="27.9942" y1="43.154" y2="41.1385" fill="none" stroke="#000" stroke-linecap="round" stroke-linejoin="round" style="stroke-width: 3.84768px;"/>
      <line x1="31.9942" x2="31.9942" y1="52.7515" y2="50.736" fill="none" stroke="#000" stroke-linecap="round" stroke-linejoin="round" style="stroke-width: 3.84768px;"/>
      <line x1="39.9942" x2="39.9942" y1="52.7515" y2="50.736" fill="none" stroke="#000" stroke-linecap="round" stroke-linejoin="round" style="stroke-width: 3.84768px;"/>
      <path fill="none" stroke="#000" stroke-linecap="round" stroke-linejoin="round" d="M45.4354,23.349c7.8372.4,9.11-1.8828,9.11-1.8828a17.0606,17.0606,0,0,0-16.78-3.3117V15.8529a1.0439,1.0439,0,0,0-1.0439-1.0438H35.47a1.0439,1.0439,0,0,0-1.0439,1.0438V18.09a17.031,17.031,0,0,0-16.5755,3.3767s1.2725,2.2824,9.11,1.8828a5.0163,5.0163,0,0,0,0,3.3783s6.28-.7782,9.2376-2.9572c0,0,4.7944,2.9572,8.9651,2.9572A5.55,5.55,0,0,0,45.4354,23.349Z" style="stroke-width: 3.84768px;"/>
      <path fill="none" stroke="#000" stroke-linecap="round" stroke-linejoin="round" d="M53.0032,25.7021a13.6978,13.6978,0,0,1,1.19,1.5887c2.56,3.9955,2.6736,9.0035.31,13.74-2.8141,6.0928-10.2772,17.7635-18.2906,18.1381l-.0447.0019-.0446-.0019C28.1307,58.79,20.6853,47.106,17.8647,40.9806A13.5916,13.5916,0,0,1,18.24,27.27a13.8022,13.8022,0,0,1,1.1712-1.5664" style="stroke-width: 3.84768px;"/>
    </g>
  </g>
</svg>