<?xml version="1.0" encoding="utf-8"?>
<svg viewBox="0 0 72 72" xmlns="http://www.w3.org/2000/svg">
  <g transform="matrix(0.9536580443382263, 0, 0, 0.9536580443382263, -40.86177444458008, 6.148726940155029)" style="">
    <g transform="matrix(1, 0, 0, 1, 42.634361, -2.815789)">
      <g id="color">
        <path fill="#5C9E31" d="M47.8995,9.1325c0.0036-0.0902-0.0177-0.1854-0.02-0.277c-0.0012-0.1675-0.0161-0.3359-0.0366-0.5069 c-0.0126-0.0909-0.0187-0.1795-0.0366-0.2709c-0.0589-0.33-0.1401-0.6613-0.267-0.9896c-1.4448-3.7362-5.9587-4.9144-9.2682-2.8591 c-2.5414,1.5789-3.9725,4.4725-4.8703,7.2267c-0.8674,2.6562-1.3688,5.4905-1.5359,8.3c0.0057-0.0012,0.0123-0.002,0.0179-0.0032 c-0.0017,0.0278-0.0058,0.0557-0.0074,0.0834c0.8161-0.1688,1.7649-0.2942,2.8594-0.3484c0.0019-0.0265,0.006-0.053,0.0079-0.0795 c0.3639-0.0173,0.7436-0.0267,1.1403-0.0267c1.7114,0,3.1121,0.1713,4.2474,0.4241c-1.1245-2.8896-1.9282-6.282-1.0305-9.1633 c0.3867-1.2377,1.0952-2.5057,2.3122-3.1451c1.3619-0.7169,3.4476-0.1575,2.9586,1.75c-0.0953,0.373-0.4211,0.5609-0.616,0.8633 c-0.8978,1.3881,0.3412,2.3164,1.652,1.9849c1.6414-0.4139,2.4005-1.6262,2.4636-3.0253 C47.8793,9.0915,47.8909,9.1107,47.8995,9.1325z" style="stroke-width: 2.09719px;"/>
        <path fill="#F4AA41" d="M26.6422,19.7574c0.0035-0.0016,0.0068-0.0037,0.0103-0.0053c-0.1259-0.0449-0.25-0.0787-0.3753-0.1198 c-0.1509-0.0496-0.3019-0.1002-0.4519-0.1443c-0.1786-0.0525-0.3558-0.0975-0.533-0.1425 c-0.1506-0.0382-0.3013-0.0776-0.4509-0.1104c-0.1745-0.0383-0.3475-0.0692-0.5206-0.1003 c-0.1498-0.0269-0.2999-0.0552-0.4486-0.0767c-0.1706-0.0247-0.3394-0.0422-0.5086-0.0601 c-0.1487-0.0157-0.2977-0.0329-0.4453-0.0434c-0.1665-0.0119-0.3312-0.0167-0.4962-0.022c-0.147-0.0048-0.2944-0.011-0.4402-0.0107 c-0.1638,0.0004-0.3257,0.0078-0.4879,0.0145c-0.1439,0.006-0.288,0.0103-0.4306,0.0211c-0.161,0.0123-0.3202,0.0314-0.4795,0.0498 c-0.1407,0.0162-0.2819,0.0308-0.4213,0.0517c-0.1581,0.0237-0.3139,0.0543-0.4701,0.0839 c-0.1374,0.0261-0.2751,0.0503-0.411,0.0808c-0.1557,0.035-0.309,0.0767-0.4628,0.1175c-0.1331,0.0353-0.2668,0.0686-0.3984,0.1082 c-0.1534,0.0461-0.3042,0.0988-0.4555,0.1504c-0.1284,0.0438-0.2575,0.0856-0.3843,0.1334 c-0.1512,0.0569-0.2998,0.1205-0.4488,0.183c-0.1235,0.0518-0.2477,0.1014-0.3696,0.1569 c-0.1494,0.0679-0.2958,0.1423-0.4428,0.2157c-0.1176,0.0587-0.2362,0.1152-0.3523,0.1773 c-0.1473,0.0788-0.2915,0.1639-0.4362,0.248c-0.1122,0.0652-0.2254,0.1281-0.3361,0.1964 c-0.1448,0.0894-0.2864,0.1851-0.4285,0.2797c-0.1065,0.0709-0.2142,0.1396-0.3192,0.2134 c-0.1428,0.1003-0.2821,0.2067-0.4219,0.3123c-0.0999,0.0754-0.2012,0.1484-0.2996,0.2263 c-0.1401,0.1109-0.2764,0.2277-0.4134,0.3436c-0.0945,0.08-0.1905,0.1577-0.2835,0.24c-0.1364,0.1207-0.2689,0.2471-0.402,0.3727 c-0.0889,0.0839-0.1794,0.1655-0.2668,0.2515c-0.134,0.1318-0.2639,0.269-0.3943,0.4057c-0.082,0.0858-0.1656,0.1693-0.2461,0.257 c-0.1306,0.1422-0.2568,0.2896-0.3837,0.4365c-0.0761,0.0881-0.1541,0.1739-0.2287,0.2637 c-0.1258,0.1512-0.247,0.3074-0.3689,0.463c-0.071,0.0907-0.144,0.1792-0.2136,0.2714c-0.1213,0.1606-0.2376,0.3259-0.3546,0.4906 c-0.0653,0.0919-0.1328,0.1818-0.1967,0.2751c-0.1155,0.1685-0.226,0.3414-0.337,0.5138 c-0.0607,0.0942-0.1237,0.1865-0.1831,0.2819c-0.1089,0.175-0.2125,0.3542-0.3168,0.533 c-0.0565,0.0969-0.1155,0.1919-0.1706,0.2898c-0.1023,0.1816-0.1989,0.3669-0.2965,0.5518 c-0.0519,0.0984-0.1064,0.1952-0.1569,0.2946c-0.0964,0.1894-0.1867,0.3821-0.278,0.5746 c-0.0465,0.0981-0.0957,0.1948-0.1409,0.2936c-0.0875,0.1917-0.169,0.3862-0.2514,0.5805 c-0.0438,0.1032-0.0904,0.205-0.1327,0.3089c-0.0831,0.2042-0.16,0.411-0.2374,0.6177c-0.0357,0.0952-0.0742,0.189-0.1087,0.2847 c-0.0733,0.2036-0.1399,0.4095-0.2076,0.6152c-0.0338,0.1027-0.0707,0.2042-0.1031,0.3073 c-0.0641,0.2042-0.1213,0.4104-0.1798,0.6162c-0.0298,0.105-0.0629,0.209-0.0912,0.3145c-0.0581,0.2161-0.1092,0.4339-0.161,0.6514 c-0.023,0.0966-0.0494,0.1924-0.0711,0.2893c-0.0527,0.2349-0.098,0.4709-0.1432,0.7069 c-0.0154,0.0805-0.0342,0.1605-0.0487,0.2411c-0.051,0.2827-0.0947,0.5662-0.1347,0.8497 c-0.0048,0.0343-0.0116,0.0685-0.0163,0.1028c-0.3012,2.2099-0.2696,4.4514,0.076,6.6451 c0.1729,1.0981,0.4187,2.1852,0.7521,3.2487c0.4583,1.4606,1.0642,2.8831,1.7966,4.2331c0.6502,1.1984,1.3989,2.3402,2.2521,3.3903 c0.0835,0.1027,0.1737,0.1989,0.259,0.2999c0.1797,0.2126,0.3576,0.4269,0.5455,0.6316c0.0008,0.0009,0.0015,0.0016,0.0023,0.0024 c0.2523,0.2747,0.5026,0.5352,0.7516,0.787c0.0829,0.0839,0.165,0.1624,0.2476,0.2438c0.1679,0.1655,0.3353,0.3282,0.5015,0.4839 c0.0938,0.0877,0.1868,0.1724,0.28,0.257c0.1547,0.1404,0.3085,0.2768,0.4616,0.4089c0.0943,0.0813,0.1883,0.1623,0.2819,0.2404 c0.158,0.1319,0.3145,0.2576,0.4708,0.3809c0.083,0.0656,0.1665,0.1335,0.2491,0.1966c0.2084,0.1595,0.4152,0.3112,0.6203,0.4559 c0.0272,0.0192,0.055,0.0409,0.0822,0.0599c0.2303,0.1606,0.4578,0.3104,0.6835,0.4533c0.0784,0.0496,0.1554,0.0947,0.2332,0.1422 c0.1491,0.0911,0.2977,0.1804,0.4447,0.264c0.0888,0.0506,0.1768,0.0985,0.2649,0.1464c0.1353,0.0737,0.2697,0.1446,0.4031,0.2122 c0.0882,0.0447,0.1761,0.0889,0.2634,0.131c0.136,0.0656,0.2705,0.127,0.4043,0.1865c0.079,0.0352,0.1584,0.0719,0.2367,0.105 c0.1684,0.0712,0.3347,0.1367,0.4996,0.1988c0.0403,0.0152,0.0815,0.0329,0.1216,0.0475c0.2014,0.0737,0.3996,0.1396,0.5952,0.2003 c0.0689,0.0214,0.1362,0.0394,0.2044,0.0592c0.1293,0.0377,0.2579,0.0742,0.3846,0.1066c0.0772,0.0197,0.1531,0.0375,0.2293,0.0553 c0.1164,0.0272,0.2316,0.0527,0.3457,0.0757c0.0753,0.0152,0.1501,0.03,0.2243,0.0433c0.1163,0.021,0.2306,0.0392,0.3442,0.0561 c0.0658,0.0098,0.1322,0.0206,0.1972,0.0291c0.14,0.0182,0.2772,0.0324,0.4129,0.0447c0.0353,0.0032,0.0719,0.0081,0.1069,0.0109 c0.1683,0.0135,0.3325,0.0222,0.4938,0.0273c0.0517,0.0016,0.1014,0.0013,0.1524,0.0021c0.111,0.0019,0.2208,0.0028,0.3282,0.0012 c0.058-0.0009,0.1144-0.0029,0.1713-0.0048c0.0989-0.0033,0.1963-0.0076,0.2919-0.0136c0.0549-0.0034,0.1092-0.0071,0.1631-0.0114 c0.0978-0.0078,0.1932-0.0172,0.2873-0.0275c0.0454-0.0049,0.0914-0.0094,0.1358-0.015c0.1164-0.0145,0.2295-0.0309,0.3399-0.0487 c0.0189-0.0031,0.039-0.0054,0.0577-0.0086c0.1305-0.0219,0.2561-0.046,0.3778-0.0716c0.0274-0.0058,0.053-0.0122,0.08-0.0181 c0.0928-0.0204,0.1835-0.0415,0.2709-0.0636c0.0342-0.0087,0.067-0.0175,0.1003-0.0264c0.0787-0.0209,0.1552-0.0421,0.2292-0.064 c0.03-0.0089,0.0594-0.0175,0.0885-0.0265c0.0775-0.0237,0.1517-0.0477,0.2235-0.0719c0.0207-0.007,0.0419-0.0137,0.062-0.0208 c0.1862-0.0645,0.3523-0.129,0.4965-0.1904c0.0011-0.0005,0.002-0.0009,0.0031-0.0014c0.0535-0.0228,0.1055-0.0453,0.153-0.0669 c0,0-0.0007-0.0005-0.001-0.0007c0.3469-0.1577,0.5346-0.278,0.5346-0.278c1.4692,1.4635,7.6696,1.7152,8.0888,1.7307 c0.0154,0.0005,0.0293,0.0005,0.0447,0c0.4192-0.0154,6.6196-0.2672,8.0888-1.7307c0,0,6.8438,4.4366,15.5886-5.0859 c7.0378-7.0443,7.9-20.5231,2.0165-28.6674c-0.5543-0.7675-1.1686-1.4874-1.8432-2.1503 c-1.0616-1.0431-2.2445-1.9655-3.5286-2.7019c-3.6327-2.0837-7.8248-2.3765-11.7263-0.8917c0,0-2.0279-2.4888-8.6181-2.4888 s-8.6181,2.4888-8.6181,2.4888C26.8595,19.8278,26.7515,19.7963,26.6422,19.7574" style="stroke-width: 2.09719px;"/>
        <path fill="#E27022" d="M44.5882,59.6454c1.7503,0.8029,7.6702,2.5917,14.9042-5.3642c2.1951-2.4146,3.8261-5.4041,4.805-8.5551 c0.9897-3.1884,1.2669-6.5781,0.8197-9.8944c-1.3646-10.1149-9.7316-19.8646-20.2419-16.0795 c5.7584,2.7111,9.8136,9.4387,10.743,16.3279c0.4653,3.4475,0.176,6.9711-0.8522,10.2849 c-1.0174,3.2764-2.7123,6.3828-4.9942,8.8938C47.949,57.2634,46.207,58.6726,44.5882,59.6454z" style="stroke-width: 2.09719px;"/>
      </g>
      <g id="line">
        <path fill="none" stroke="#000000" stroke-linecap="round" stroke-linejoin="round" stroke-miterlimit="10" d="M39.4,17.6598c-0.68-2.34-0.98-4.83-0.3-7.02c0.39-1.24,1.1-2.5,2.31-3.14c1.36-0.72,3.45-0.16,2.96,1.75 c-0.09,0.37-0.42,0.56-0.62,0.86c-0.89,1.39,0.35,2.32,1.66,1.99c1.64-0.42,2.4-1.63,2.46-3.03c0.01,0.02,0.02,0.04,0.03,0.06 c0-0.09-0.02-0.18-0.02-0.27c0-0.17-0.02-0.34-0.04-0.51c-0.01-0.09-0.02-0.18-0.03-0.27c-0.06-0.33-0.14-0.66-0.27-0.99 c-1.45-3.74-5.96-4.92-9.27-2.86c-2.54,1.58-3.97,4.47-4.87,7.23c-0.66,2.01-1.11,4.13-1.36,6.26" style="stroke-width: 2.09719px;"/>
        <path fill="none" stroke="#000000" stroke-linecap="round" stroke-linejoin="round" stroke-miterlimit="10" d="M7.1349,33.9318c-0.0522,0.2349-0.097,0.4709-0.1418,0.7069c-0.0153,0.0805-0.0338,0.1605-0.0482,0.2411 c-0.0505,0.2827-0.0938,0.5662-0.1334,0.8497C6.8067,35.7638,6.8,35.798,6.7954,35.8323 c-0.2982,2.2099-0.2669,4.4514,0.0752,6.6451c0.1711,1.0981,0.4145,2.1852,0.7446,3.2487 c0.4537,1.4606,1.0535,2.8831,1.7787,4.2331c0.6437,1.1984,1.3849,2.3402,2.2296,3.3903c0.0826,0.1027,0.172,0.1989,0.2564,0.2999 c0.1779,0.2126,0.354,0.4269,0.54,0.6316c0.0008,0.0009,0.0015,0.0016,0.0023,0.0024c0.2498,0.2747,0.4976,0.5352,0.7441,0.787 c0.0821,0.0839,0.1634,0.1624,0.2451,0.2438c0.1662,0.1655,0.332,0.3282,0.4965,0.4839c0.0928,0.0877,0.1849,0.1724,0.2772,0.257 c0.1531,0.1404,0.3054,0.2768,0.457,0.4089c0.0933,0.0813,0.1864,0.1623,0.2791,0.2404c0.1564,0.1319,0.3114,0.2576,0.4661,0.3809 c0.0822,0.0656,0.1649,0.1335,0.2466,0.1966c0.2064,0.1595,0.4111,0.3112,0.6141,0.4559c0.027,0.0192,0.0544,0.0409,0.0814,0.0599 c0.228,0.1606,0.4532,0.3104,0.6767,0.4533c0.0776,0.0496,0.1539,0.0947,0.2309,0.1422c0.1476,0.0911,0.2947,0.1804,0.4402,0.264 c0.088,0.0506,0.175,0.0985,0.2622,0.1464c0.134,0.0737,0.267,0.1446,0.399,0.2122c0.0873,0.0447,0.1744,0.0889,0.2608,0.131 c0.1346,0.0656,0.2678,0.127,0.4003,0.1865c0.0782,0.0352,0.1569,0.0719,0.2343,0.105c0.1667,0.0712,0.3314,0.1367,0.4946,0.1988 c0.0399,0.0152,0.0807,0.0329,0.1204,0.0475c0.1994,0.0737,0.3956,0.1396,0.5893,0.2003c0.0682,0.0214,0.1348,0.0394,0.2023,0.0592 c0.1281,0.0377,0.2554,0.0742,0.3807,0.1066c0.0764,0.0197,0.1516,0.0375,0.2271,0.0553c0.1152,0.0272,0.2293,0.0527,0.3422,0.0757 c0.0745,0.0152,0.1486,0.03,0.222,0.0433c0.1151,0.021,0.2283,0.0392,0.3408,0.0561c0.0652,0.0098,0.1309,0.0206,0.1952,0.0291 c0.1386,0.0182,0.2744,0.0324,0.4088,0.0447c0.035,0.0032,0.0712,0.0081,0.1058,0.0109c0.1666,0.0135,0.3292,0.0222,0.4889,0.0273 c0.0511,0.0016,0.1004,0.0013,0.1509,0.0021c0.1099,0.0019,0.2186,0.0028,0.3249,0.0012c0.0574-0.0009,0.1133-0.0029,0.1696-0.0048 c0.0979-0.0033,0.1943-0.0076,0.289-0.0136c0.0543-0.0034,0.1082-0.0071,0.1614-0.0114c0.0968-0.0078,0.1912-0.0172,0.2844-0.0275 c0.0449-0.0049,0.0905-0.0094,0.1345-0.015c0.1152-0.0145,0.2272-0.0309,0.3365-0.0487c0.0187-0.0031,0.0386-0.0054,0.0571-0.0086 c0.1292-0.0219,0.2535-0.046,0.374-0.0716c0.0272-0.0058,0.0524-0.0122,0.0792-0.0181c0.0919-0.0204,0.1817-0.0415,0.2682-0.0636 c0.0338-0.0087,0.0663-0.0175,0.0993-0.0264c0.0779-0.0209,0.1536-0.0421,0.2269-0.064c0.0297-0.0089,0.0588-0.0175,0.0876-0.0265 c0.0767-0.0237,0.1502-0.0477,0.2213-0.0719c0.0204-0.007,0.0414-0.0137,0.0614-0.0208c0.1843-0.0645,0.3488-0.129,0.4916-0.1904 c0.0011-0.0005,0.002-0.0009,0.0031-0.0014c0.053-0.0228,0.1045-0.0453,0.1515-0.0669c-0.0003-0.0002-0.0007-0.0005-0.001-0.0007 c0.3434-0.1577,0.5293-0.278,0.5293-0.278c1.4545,1.4635,7.593,1.7152,8.0081,1.7307c0.0152,0.0005,0.0291,0.0005,0.0443,0 c0.415-0.0154,6.5535-0.2672,8.0081-1.7307c0,0,6.7755,4.4366,15.4329-5.0859c6.9675-7.0443,7.8211-20.5231,1.9964-28.6674 c-0.5488-0.7675-1.1569-1.4874-1.8248-2.1503c-1.051-1.0431-2.222-1.9655-3.4933-2.7019 c-3.5964-2.0837-7.7466-2.3765-11.6092-0.8917c0,0-2.0076-2.4888-8.532-2.4888s-8.532,2.4888-8.532,2.4888 c-0.1086-0.0417-0.2155-0.0732-0.3237-0.1121" style="stroke-width: 2.09719px;"/>
        <path fill="none" stroke="#000000" stroke-linecap="round" stroke-linejoin="round" stroke-miterlimit="10" d="M27.0273,19.7574c0.0035-0.0016,0.0067-0.0037,0.0102-0.0053c-0.1246-0.0449-0.2475-0.0787-0.3715-0.1198 c-0.1494-0.0496-0.2989-0.1002-0.4474-0.1443c-0.1768-0.0525-0.3522-0.0975-0.5277-0.1425 c-0.1491-0.0382-0.2983-0.0776-0.4464-0.1104c-0.1727-0.0383-0.344-0.0692-0.5154-0.1003 c-0.1483-0.0269-0.2969-0.0552-0.4442-0.0767c-0.1689-0.0247-0.3361-0.0422-0.5035-0.0601 c-0.1472-0.0157-0.2947-0.0329-0.4409-0.0434c-0.1648-0.0119-0.3279-0.0167-0.4912-0.022 c-0.1456-0.0048-0.2914-0.011-0.4358-0.0107c-0.1622,0.0004-0.3224,0.0078-0.483,0.0145c-0.1425,0.006-0.2852,0.0103-0.4263,0.0211 c-0.1594,0.0123-0.317,0.0314-0.4747,0.0498c-0.1393,0.0162-0.2791,0.0308-0.4171,0.0517 c-0.1565,0.0237-0.3108,0.0543-0.4655,0.0839c-0.136,0.0261-0.2724,0.0503-0.4069,0.0808 c-0.1541,0.035-0.3059,0.0767-0.4581,0.1175c-0.1318,0.0353-0.2641,0.0686-0.3945,0.1082 c-0.1519,0.0461-0.3011,0.0988-0.451,0.1504c-0.1271,0.0438-0.2549,0.0856-0.3805,0.1334 c-0.1497,0.0569-0.2968,0.1205-0.4443,0.183c-0.1223,0.0518-0.2452,0.1014-0.3659,0.1569 c-0.1479,0.0679-0.2928,0.1423-0.4384,0.2157c-0.1165,0.0587-0.2339,0.1152-0.3488,0.1773 c-0.1458,0.0788-0.2886,0.1639-0.4318,0.248c-0.1111,0.0652-0.2231,0.1281-0.3327,0.1964 c-0.1434,0.0894-0.2835,0.1851-0.4242,0.2797c-0.1055,0.0709-0.2121,0.1396-0.316,0.2134 c-0.1414,0.1003-0.2792,0.2067-0.4177,0.3123c-0.0989,0.0754-0.1992,0.1484-0.2966,0.2263 c-0.1387,0.1109-0.2736,0.2277-0.4092,0.3436c-0.0936,0.08-0.1886,0.1577-0.2807,0.24c-0.135,0.1207-0.2662,0.2471-0.3979,0.3727 c-0.088,0.0839-0.1776,0.1655-0.2642,0.2515c-0.1327,0.1318-0.2612,0.269-0.3904,0.4057c-0.0812,0.0858-0.1639,0.1693-0.2437,0.257 c-0.1293,0.1422-0.2543,0.2896-0.3798,0.4365c-0.0754,0.0881-0.1525,0.1739-0.2264,0.2637" style="stroke-width: 2.09719px;"/>
        <path fill="none" stroke="#000000" stroke-linecap="round" stroke-linejoin="round" stroke-miterlimit="10" d="M 41.687 34.558 C 41.695 34.556 41.7 34.551 41.706 34.549 C 41.472 34.464 41.24 34.399 41.005 34.322 C 40.724 34.228 40.441 34.133 40.161 34.05 C 39.827 33.95 39.494 33.865 39.164 33.78 C 38.882 33.708 38.601 33.634 38.319 33.572 C 37.994 33.5 37.669 33.442 37.346 33.383 C 37.067 33.332 36.785 33.277 36.508 33.238 C 36.188 33.19 35.873 33.158 35.556 33.124 C 35.278 33.094 35 33.062 34.723 33.041 C 34.413 33.019 34.105 33.011 33.795 33 C 33.521 32.992 33.245 32.979 32.972 32.981 C 32.666 32.981 32.363 32.994 32.059 33.007 C 31.791 33.019 31.521 33.026 31.255 33.047 C 30.954 33.071 30.656 33.107 30.357 33.141 C 30.095 33.172 29.83 33.2 29.57 33.24 C 29.275 33.283 28.984 33.342 28.691 33.398 C 28.434 33.447 28.175 33.493 27.922 33.549 C 27.631 33.616 27.344 33.695 27.057 33.772 C 26.808 33.838 26.559 33.903 26.311 33.976 C 26.024 34.063 25.743 34.163 25.459 34.262 C 25.219 34.343 24.977 34.422 24.741 34.513 C 24.458 34.62 24.18 34.739 23.903 34.858 C 23.67 34.957 23.438 35.049 23.211 35.155 C 22.932 35.283 22.658 35.423 22.382 35.563 C 22.163 35.673 21.94 35.78 21.723 35.897 C 21.449 36.047 21.179 36.207 20.909 36.366 C 20.699 36.489 20.487 36.608 20.28 36.736 C 20.01 36.906 19.743 37.086 19.479 37.265 C 19.278 37.399 19.078 37.529 18.882 37.667 C 18.614 37.858 18.355 38.058 18.092 38.259 C 17.905 38.4 17.716 38.538 17.531 38.685 C 17.271 38.895 17.016 39.116 16.759 39.335 C 16.583 39.486 16.403 39.632 16.23 39.789 C 15.975 40.015 15.725 40.255 15.478 40.491 C 15.312 40.65 15.142 40.805 14.977 40.967 C 14.728 41.217 14.484 41.475 14.241 41.732 C 14.088 41.895 13.931 42.053 13.78 42.218 C 13.536 42.488 13.3 42.766 13.064 43.043 C 12.92 43.21 12.775 43.372 12.635 43.542" style="transform-box: fill-box; transform-origin: 50% 50%; stroke-width: 2.09719px;" transform="matrix(0.358368, -0.93358, 0.93358, 0.358368, 0.000003, -0.000002)"/>
        <path fill="none" stroke="#000000" stroke-linecap="round" stroke-linejoin="round" stroke-miterlimit="10" d="M 58.239 42.533 C 58.247 42.535 58.252 42.54 58.258 42.542 C 58.024 42.627 57.792 42.692 57.557 42.769 C 57.276 42.863 56.993 42.958 56.713 43.041 C 56.379 43.141 56.046 43.226 55.716 43.311 C 55.434 43.383 55.153 43.457 54.871 43.519 C 54.546 43.591 54.221 43.649 53.898 43.708 C 53.619 43.759 53.337 43.814 53.06 43.853 C 52.74 43.901 52.425 43.933 52.108 43.967 C 51.83 43.997 51.552 44.029 51.275 44.05 C 50.965 44.072 50.657 44.08 50.347 44.091 C 50.073 44.099 49.797 44.112 49.524 44.11 C 49.218 44.11 48.915 44.097 48.611 44.084 C 48.343 44.072 48.073 44.065 47.807 44.044 C 47.506 44.02 47.208 43.984 46.909 43.95 C 46.647 43.919 46.382 43.891 46.122 43.851 C 45.827 43.808 45.536 43.749 45.243 43.693 C 44.986 43.644 44.727 43.598 44.474 43.542 C 44.183 43.475 43.896 43.396 43.609 43.319 C 43.36 43.253 43.111 43.188 42.863 43.115 C 42.576 43.028 42.295 42.928 42.011 42.829 C 41.771 42.748 41.529 42.669 41.293 42.578 C 41.01 42.471 40.732 42.352 40.455 42.233 C 40.222 42.134 39.99 42.042 39.763 41.936 C 39.484 41.808 39.21 41.668 38.934 41.528 C 38.715 41.418 38.492 41.311 38.275 41.194 C 38.001 41.044 37.731 40.884 37.461 40.725 C 37.251 40.602 37.039 40.483 36.832 40.355 C 36.562 40.185 36.295 40.005 36.031 39.826 C 35.83 39.692 35.63 39.562 35.434 39.424 C 35.166 39.233 34.907 39.033 34.644 38.832 C 34.457 38.691 34.268 38.553 34.083 38.406 C 33.823 38.196 33.568 37.975 33.311 37.756 C 33.135 37.605 32.955 37.459 32.782 37.302 C 32.527 37.076 32.277 36.836 32.03 36.6 C 31.864 36.441 31.694 36.286 31.529 36.124 C 31.28 35.874 31.036 35.616 30.793 35.359 C 30.64 35.196 30.483 35.038 30.332 34.873 C 30.088 34.603 29.852 34.325 29.616 34.048 C 29.472 33.881 29.327 33.719 29.187 33.549" style="transform-origin: 43.723px 38.83px; stroke-width: 2.09719px;" transform="matrix(-0.258819, -0.965926, 0.965926, -0.258819, 0.000002, 0.000001)"/>
      </g>
    </g>
  </g>
  <g transform="matrix(0.708203911781, 0.360847055912, -0.360847055912, 0.708203911781, 92.214481595633, -32.108981667298)" style="transform-origin: -52.2667px 82.8512px;">
    <g transform="matrix(1, 0, 0, 1, -91.424706, 49.823982)">
      <g id="g-3">
        <path d="M 17.316 60.994 C 16.654 60.997 15.996 60.899 15.363 60.703 C 11.858 59.626 9.864 55.937 10.882 52.414 C 11.283 50.441 12.28 48.64 13.738 47.252 C 16.298 44.912 18.864 42.68 21.58 40.316 L 22.317 39.675 C 22.316 39.653 22.316 39.633 22.316 39.611 C 22.318 38.068 23.568 36.818 25.111 36.816 C 25.252 36.816 25.392 36.827 25.531 36.848 C 26.69 35.783 29.322 33.303 32.544 29.872 C 32.469 29.617 32.43 29.352 32.431 29.086 C 32.432 27.543 33.682 26.293 35.225 26.292 C 35.4 26.291 35.575 26.309 35.747 26.343 C 37.504 24.34 36.65 21.993 38.138 20.062 L 40.167 11.428 C 43.334 7.952 47.907 6.507 52.893 5.387 C 54.705 4.945 56.823 11.02 58.336 12.11 C 59.784 13.311 60.635 15.085 60.666 16.966 C 60.691 17.897 60.627 18.828 60.476 19.747 C 62.026 21.231 61.388 23.837 59.327 24.437 C 59.216 24.469 59.103 24.494 58.989 24.513 C 58.732 25.069 58.449 25.627 58.142 26.182 C 59.26 28.013 57.976 30.368 55.832 30.42 C 55.806 30.421 55.781 30.421 55.755 30.421 C 55.628 30.421 55.502 30.412 55.376 30.394 C 54.52 31.551 53.629 32.674 52.764 33.764 C 52.4 34.223 52.038 34.678 51.685 35.129 C 49.02 38.219 46.337 41.123 43.676 43.803 C 43.713 43.985 43.732 44.17 43.733 44.355 C 43.731 45.898 42.48 47.148 40.938 47.15 C 40.727 47.15 40.517 47.126 40.313 47.077 C 39.682 47.67 39.042 48.258 38.395 48.841 C 38.408 48.953 38.415 49.065 38.415 49.177 C 38.413 50.72 37.163 51.97 35.621 51.971 C 35.368 51.971 35.116 51.935 34.874 51.866 C 28.886 56.762 23.597 59.759 19.147 60.777 C 18.547 60.918 17.933 60.991 17.316 60.994 Z" style="stroke-width: 2.63901px; fill: rgb(116, 158, 31);"/>
        <path d="M 58.694 32.596 C 58.693 32.086 62.139 32.485 61.873 32.051 C 62.179 31.496 63.366 30.736 63.622 30.179 C 65.741 29.84 67.498 26.853 66.145 25.188 C 66.072 25.098 67.278 20.038 67.195 19.958 C 67.346 19.039 65.758 12.791 65.733 11.86 C 65.702 9.979 58.802 7.292 57.355 6.09 C 57.032 5.843 52.948 5.697 52.579 5.528 C 52.654 5.632 61.207 17.019 48.146 31.953 C 41.776 39.235 19.566 61.579 13.697 57.286 C 13.778 58.162 14.044 59.011 14.479 59.775 L 17.226 60.988 C 17.256 60.988 17.286 60.994 17.316 60.994 C 17.933 60.991 18.547 60.918 19.148 60.777 C 23.598 59.76 28.887 56.763 34.874 51.866 C 35.117 51.936 35.368 51.971 35.621 51.972 C 37.164 51.97 38.414 50.72 38.415 49.178 C 38.415 49.065 38.409 48.953 38.395 48.842 C 39.044 48.26 39.683 47.672 40.313 47.077 C 40.518 47.126 40.728 47.151 40.938 47.15 C 42.481 47.149 43.731 45.898 43.733 44.356 C 43.733 44.17 43.714 43.985 43.676 43.804 C 46.337 41.124 49.02 38.22 51.685 35.13 C 52.039 34.679 52.4 34.224 52.764 33.765 C 53.629 32.675 54.563 34.615 55.42 33.458 C 55.545 33.476 58.692 34.139 58.694 32.596 Z" style="stroke-width: 2.63901px; fill: rgb(62, 106, 34);"/>
      </g>
      <g id="g-4">
        <path fill="none" stroke="#000" stroke-linecap="round" stroke-linejoin="round" d="M 62.121 32.125 C 65.716 30.815 69.505 21.678 66.759 13.552 C 65.019 8.401 58.166 5.005 53.548 5.061 C 45.305 5.161 42.031 8.414 39.169 12.809 C 37.382 15.128 37.811 25.523 36.056 27.505 C 35.801 27.367 35.515 27.294 35.225 27.292 C 33.846 27.29 32.981 28.782 33.67 29.977 C 33.688 30.009 33.707 30.04 33.727 30.07 C 29.879 34.206 26.744 37.103 25.801 37.955 C 24.545 37.411 23.171 38.431 23.328 39.79 C 23.339 39.886 23.358 39.98 23.384 40.072 C 20.325 42.736 17.33 45.324 14.413 47.99 C 13.108 49.245 12.216 50.867 11.855 52.641 C 10.974 55.652 12.668 58.814 15.663 59.749 C 16.726 60.055 17.852 60.073 18.925 59.802 C 23.893 58.666 29.451 55.066 34.703 50.711 C 35.882 51.422 37.389 50.59 37.415 49.214 C 37.42 48.968 37.374 48.724 37.28 48.497 C 38.231 47.652 39.165 46.79 40.079 45.922 C 40.341 46.07 40.637 46.148 40.938 46.15 C 41.929 46.15 42.732 45.347 42.732 44.356 C 42.73 44.071 42.66 43.791 42.527 43.539 C 45.796 40.274 46.269 39.607 48.478 37.047 C 49.141 36.2 51.345 34.881 54.102 34.102 C 56.863 33.322 59.92 32.927 62.121 32.125 Z" style="stroke-width: 2.63901px;"/>
      </g>
    </g>
  </g>
  <g id="hair"/>
  <g id="skin"/>
  <g id="skin-shadow"/>
  <g style="" transform="matrix(0.7132859826087952, 0, -0.0032510000746697187, 0.7132859826087952, 64.28829193115234, 15.7964506149292)">
    <g transform="matrix(-1, 0, 0, 1, -1.158081, 9.94115)" style="">
      <g id="g-1">
        <path stroke-linecap="round" stroke-linejoin="round" stroke-miterlimit="10" d="M60.62,23.81C60.85,35.44,57.21,45.79,51.5,51c-0.1,0.1-0.19,0.2-0.3,0.3c-0.2,0.21-0.4,0.42-0.62,0.62 c-0.3,0.29-0.61,0.58-0.93,0.86c-0.36,0.33-0.73,0.64-1.11,0.95c-0.18,0.15-0.37,0.29-0.56,0.44c-0.55,0.43-1.11,0.84-1.69,1.23 c-0.21,0.14-0.41,0.28-0.62,0.41c-6.09,3.93-13.56,5.84-21.26,5c-0.8-0.09-1.61-0.21-2.41-0.37c-1.18-0.27-2.28-0.68-3.31-1.2 c35.9-0.26,32.7225-32.51,32.6225-35.74L60.62,23.81z" style="fill: rgb(187, 149, 37); stroke: rgb(247, 199, 62); stroke-width: 2.80392px;"/>
        <path fill="#B399C8" stroke="#B399C8" stroke-linecap="round" stroke-linejoin="round" stroke-miterlimit="10" d="M43.34,22.61l-0.25-0.02C43.2,22.46,43.29,22.47,43.34,22.61z" style="stroke-width: 2.80392px;"/>
        <path stroke-linecap="round" stroke-linejoin="round" stroke-miterlimit="10" d="M 18.69 59.24 C 18.59 59.2 18.49 59.15 18.4 59.1 C 13.07 56.24 10.01 50.27 11.28 44.19 C 12.85 36.67 20.41 31.81 28.15 33.33 C 28.15 33.33 36.25 35.96 41.5 29.53 C 43.29 27.34 43.68 23.32 43.34 22.61 L 54.14 23.36 L 51.188 21.938 C 51.232 23.37 51.906 30.814 49.513 38.681 C 46.509 48.556 38.672 59.095 18.69 59.24 Z" style="fill: rgb(247, 199, 62); stroke: rgb(242, 218, 148); stroke-width: 2.80392px;"/>
        <path stroke="#5C9E31" stroke-linecap="round" stroke-linejoin="round" stroke-miterlimit="10" d="M61.69,26.22c0,0-3.72,0.53-6.8-1.81c-0.54,3.78-3.52,6.01-3.52,6.01s-2.97-2.23-3.51-6.01c-0.71,0.54-1.46,0.93-2.19,1.2 c-2.42,0.92-4.62,0.61-4.62,0.61s-0.63-4.47,2.55-7.66c0.65-0.66,1.36-1.15,2.07-1.52c2.76-1.44,10.28-1.68,13.48,1.52 C62.34,21.75,61.69,26.22,61.69,26.22z" style="fill: rgb(75, 135, 36); stroke-width: 2.80392px;"/>
        <path stroke="none" d="M51.37,30.42c0,0-2.97-2.23-3.51-6.01c-0.71,0.54-1.46,0.93-2.19,1.2c-2.42,0.92-4.62,0.61-4.62,0.61 s-0.63-4.47,2.55-7.66c0.65-0.66,1.36-1.15,2.07-1.52C48.43,15.6,51.26,16,51.26,16L51.37,30.42z" style="fill: rgb(143, 164, 49); stroke-width: 2.80392px;"/>
      </g>
      <g id="g-2">
        <path fill="none" stroke="#000000" stroke-linecap="round" stroke-linejoin="round" stroke-miterlimit="10" d="M60.2755,30.4183c-0.0991,1.8395-0.539,3.8125-0.9248,5.6459C56.0433,51.986,40.7433,62.5965,24.4143,60.8059 c-0.8085-0.0847-1.617-0.2057-2.4133-0.3629c-7.4724-1.718-12.2498-8.9046-10.7186-16.2485 c1.568-7.5253,9.1261-12.389,16.868-10.8646c0,0,7.7474,1.9693,12.8504-3.1818" style="stroke-width: 2.80392px;"/>
        <path fill="none" stroke="#000000" stroke-linecap="round" stroke-linejoin="round" stroke-miterlimit="10" d="M50.7929,11.9832C50.1897,10.9538,49.0717,10,47,10" style="stroke-width: 2.80392px;"/>
        <path fill="none" stroke="#000000" stroke-linecap="round" stroke-linejoin="round" stroke-miterlimit="10" d="M61.69,26.22c0,0-3.72,0.53-6.8-1.81c-0.54,3.78-3.52,6.01-3.52,6.01s-2.97-2.23-3.51-6.01c-0.71,0.54-1.46,0.93-2.19,1.2 c-2.42,0.92-4.62,0.61-4.62,0.61s-0.63-4.47,2.55-7.66c0.65-0.66,1.36-1.15,2.07-1.52c2.76-1.44,10.28-1.68,13.48,1.52 C62.34,21.75,61.69,26.22,61.69,26.22z" style="stroke-width: 2.80392px;"/>
        <path fill="none" stroke="#000000" stroke-linecap="round" stroke-linejoin="round" stroke-miterlimit="10" d="M41.0008,30.1481c0.1285-0.1297,0.2554-0.264,0.3803-0.4029" style="stroke-width: 2.80392px;"/>
      </g>
    </g>
  </g>
</svg>