<?xml version="1.0" encoding="utf-8"?>
<svg viewBox="0 0 72 72" xmlns="http://www.w3.org/2000/svg">
  <g transform="matrix(1.40560400486, -0.147734984756, 0.147734984756, 1.40560400486, -1.165533160429, -1.500794835762)" style="transform-origin: 37.1656px 37.5008px;">
    <g id="color">
      <path fill="#B1CC33" stroke="none" d="M36.8349,18.0781c1.7393,1.6583,1.6481,4.5775,1.6481,4.5775s-2.9114,0.2303-4.651-1.428 c-1.7396-1.6582-1.6481-4.5775-1.6481-4.5775S35.0958,16.4213,36.8349,18.0781z"/>
      <path fill="#5C9E31" stroke="none" d="M42.0884,54.3627c-4.6114,1.465-9.3345-1.6943-9.3345-1.6943s2.7546-5.5346,7.3663-7.0003 s9.3345,1.6943,9.3345,1.6943S46.6971,52.8966,42.0884,54.3627z"/>
      <path fill="#B1CC33" stroke="none" d="M49.0484,35.6919c-3.6542,1.0489-7.2941-1.5366-7.2941-1.5366s2.2856-4.2862,5.9401-5.3357 s7.2941,1.5366,7.2941,1.5366S52.7005,34.642,49.0484,35.6919z"/>
      <path fill="#5C9E31" stroke="none" d="M27.0179,32.1509c3.0883,2.3003,3.5096,6.9616,3.5096,6.9616s-4.5864,0.9311-7.6753-1.3691 c-3.0889-2.3002-3.5096-6.9616-3.5096-6.9616S23.9302,29.8529,27.0179,32.1509z"/>
    </g>
    <g id="line">
      <path fill="none" stroke="#000000" stroke-linecap="round" stroke-linejoin="round" stroke-width="2" d="M36.8349,18.0781 c1.7393,1.6583,1.6481,4.5775,1.6481,4.5775s-2.9114,0.2303-4.651-1.428c-1.7396-1.6582-1.6481-4.5775-1.6481-4.5775 S35.0958,16.4213,36.8349,18.0781z"/>
      <path fill="none" stroke="#000000" stroke-linecap="round" stroke-linejoin="round" stroke-width="2" d="M27.0179,32.1509 c3.0883,2.3003,3.5096,6.9616,3.5096,6.9616s-4.5864,0.9311-7.6753-1.3691c-3.0889-2.3002-3.5096-6.9616-3.5096-6.9616 S23.9302,29.8529,27.0179,32.1509z"/>
      <path fill="none" stroke="#000000" stroke-linecap="round" stroke-linejoin="round" stroke-width="2" d="M42.0884,54.3627 c-4.6114,1.465-9.3345-1.6943-9.3345-1.6943s2.7546-5.5346,7.3663-7.0003s9.3345,1.6943,9.3345,1.6943 S46.6971,52.8966,42.0884,54.3627z"/>
      <path fill="none" stroke="#000000" stroke-linecap="round" stroke-linejoin="round" stroke-width="2" d="M49.0484,35.6919 c-3.6542,1.0489-7.2941-1.5366-7.2941-1.5366s2.2856-4.2862,5.9401-5.3357s7.2941,1.5366,7.2941,1.5366 S52.7005,34.642,49.0484,35.6919z"/>
      <path fill="none" stroke="#000000" stroke-linecap="round" stroke-linejoin="round" stroke-width="2" d="M39.9046,25.7818 c0,4.7785-2.8879,10.0608-4.8815,13.1378c-0.8136,1.2558-1.7383,2.4273-2.7031,3.5711c-2.5753,3.0534-5.2237,8.2176-3.876,15.8715"/>
    </g>
  </g>
  <g id="hair"/>
  <g id="skin"/>
  <g id="skin-shadow"/>
  <g style="transform-origin: 37.0281px 49.2402px;"/>
  <g transform="matrix(-0.100734002888, 0.226251974702, -0.226251974702, -0.100734002888, -6.581353234856, -24.227744251504)" style="transform-origin: 37.0281px 49.2402px;">
    <g id="g-5" transform="matrix(1, 0, 0, 1, 0.592907, 13.462525)">
      <path fill="#a57939" d="M 25.686 27.918 L 47.794 26.979 C 47.794 26.979 51 52.614 45 52.614 L 36 57.614 L 28.21 52.845 C 24 40.614 25.686 27.918 25.686 27.918 Z"/>
      <path fill="#f1b31c" d="M17,23.6136s.4223-2.3167,4-5c4-3,16-5,16-5l-14,12Z"/>
      <path fill="#6a462f" d="M27,27.6136l-11.2506-4S3,42.6136,27,51.6136Z"/>
      <path fill="#6a462f" d="M47,27.6136l11.2506-4s10.4988,11.429-11.2506,28l1-13Z"/>
      <path fill="#f1b31c" d="M16.9266,23.4983l.0839.1938C34.5076,34.1845,57,23.6136,57,23.6136A23.8426,23.8426,0,0,0,37.6436,13.506"/>
    </g>
    <g id="g-6" transform="matrix(1, 0, 0, 1, 0.592907, 13.462525)">
      <path fill="none" stroke="#000000" stroke-miterlimit="10" stroke-width="2" d="M16.9266,23.4983l.0839.1938C34.5076,34.1845,57,23.6136,57,23.6136A23.8426,23.8426,0,0,0,37.6436,13.506"/>
      <path fill="none" stroke="#000000" stroke-miterlimit="10" d="M16,23.6136c17.4971,10.4924,41,0,41,0" style="stroke-width: 8.70603px;"/>
      <path fill="none" stroke="#000000" stroke-linecap="round" stroke-linejoin="round" d="M21.9774,17.807C15.82,21.79,11.7326,28.1967,12.1108,35.5487c.3892,7.5649,6.78,14.6806,13.5472,16.3619,4.101,1.0189,8.7043,4.8382,10.0172,5.9834a.625.625,0,0,0,.7731.0409A69.4328,69.4328,0,0,1,44.9966,52.95c8.5745-4.2024,13.5034-9.836,14.977-17.4009,2.291-11.7612-10.0847-22.0421-23.3016-22.0421a27.39,27.39,0,0,0-11.3832,2.4845" style="paint-order: fill; stroke-width: 8.70603px;"/>
    </g>
  </g>
  <g transform="matrix(0.104667015374, -0.22445897758, 0.22445897758, 0.104667015374, 2.782277188121, -9.908672697757)" style="transform-origin: 37.028px 49.24px;">
    <g id="g-1" transform="matrix(1, 0, 0, 1, 0.592907, 13.462525)">
      <path fill="#a57939" d="M 25.686 27.918 L 47.794 26.979 C 47.794 26.979 51 52.614 45 52.614 L 36 57.614 L 28.21 52.845 C 24 40.614 25.686 27.918 25.686 27.918 Z"/>
      <path fill="#f1b31c" d="M17,23.6136s.4223-2.3167,4-5c4-3,16-5,16-5l-14,12Z"/>
      <path fill="#6a462f" d="M27,27.6136l-11.2506-4S3,42.6136,27,51.6136Z"/>
      <path fill="#6a462f" d="M47,27.6136l11.2506-4s10.4988,11.429-11.2506,28l1-13Z"/>
      <path fill="#f1b31c" d="M16.9266,23.4983l.0839.1938C34.5076,34.1845,57,23.6136,57,23.6136A23.8426,23.8426,0,0,0,37.6436,13.506"/>
    </g>
    <g id="g-2" transform="matrix(1, 0, 0, 1, 0.592907, 13.462525)">
      <path fill="none" stroke="#000000" stroke-miterlimit="10" stroke-width="2" d="M16.9266,23.4983l.0839.1938C34.5076,34.1845,57,23.6136,57,23.6136A23.8426,23.8426,0,0,0,37.6436,13.506"/>
      <path fill="none" stroke="#000000" stroke-miterlimit="10" d="M16,23.6136c17.4971,10.4924,41,0,41,0" style="stroke-width: 8.70603px;"/>
      <path fill="none" stroke="#000000" stroke-linecap="round" stroke-linejoin="round" d="M21.9774,17.807C15.82,21.79,11.7326,28.1967,12.1108,35.5487c.3892,7.5649,6.78,14.6806,13.5472,16.3619,4.101,1.0189,8.7043,4.8382,10.0172,5.9834a.625.625,0,0,0,.7731.0409A69.4328,69.4328,0,0,1,44.9966,52.95c8.5745-4.2024,13.5034-9.836,14.977-17.4009,2.291-11.7612-10.0847-22.0421-23.3016-22.0421a27.39,27.39,0,0,0-11.3832,2.4845" style="paint-order: fill; stroke-width: 8.70603px;"/>
    </g>
  </g>
  <g transform="matrix(-0.06410100311, 0.239225029945, -0.239225029945, -0.06410100311, -17.15043222301, -0.062331948281)" style="transform-origin: 37.028px 49.24px;">
    <g id="g-3" transform="matrix(1, 0, 0, 1, 0.592907, 13.462525)">
      <path fill="#a57939" d="M 25.686 27.918 L 47.794 26.979 C 47.794 26.979 51 52.614 45 52.614 L 36 57.614 L 28.21 52.845 C 24 40.614 25.686 27.918 25.686 27.918 Z"/>
      <path fill="#f1b31c" d="M17,23.6136s.4223-2.3167,4-5c4-3,16-5,16-5l-14,12Z"/>
      <path fill="#6a462f" d="M27,27.6136l-11.2506-4S3,42.6136,27,51.6136Z"/>
      <path fill="#6a462f" d="M47,27.6136l11.2506-4s10.4988,11.429-11.2506,28l1-13Z"/>
      <path fill="#f1b31c" d="M16.9266,23.4983l.0839.1938C34.5076,34.1845,57,23.6136,57,23.6136A23.8426,23.8426,0,0,0,37.6436,13.506"/>
    </g>
    <g id="g-4" transform="matrix(1, 0, 0, 1, 0.592907, 13.462525)">
      <path fill="none" stroke="#000000" stroke-miterlimit="10" stroke-width="2" d="M16.9266,23.4983l.0839.1938C34.5076,34.1845,57,23.6136,57,23.6136A23.8426,23.8426,0,0,0,37.6436,13.506"/>
      <path fill="none" stroke="#000000" stroke-miterlimit="10" d="M16,23.6136c17.4971,10.4924,41,0,41,0" style="stroke-width: 8.70603px;"/>
      <path fill="none" stroke="#000000" stroke-linecap="round" stroke-linejoin="round" d="M21.9774,17.807C15.82,21.79,11.7326,28.1967,12.1108,35.5487c.3892,7.5649,6.78,14.6806,13.5472,16.3619,4.101,1.0189,8.7043,4.8382,10.0172,5.9834a.625.625,0,0,0,.7731.0409A69.4328,69.4328,0,0,1,44.9966,52.95c8.5745-4.2024,13.5034-9.836,14.977-17.4009,2.291-11.7612-10.0847-22.0421-23.3016-22.0421a27.39,27.39,0,0,0-11.3832,2.4845" style="paint-order: fill; stroke-width: 8.70603px;"/>
    </g>
  </g>
</svg>