<?xml version="1.0" encoding="utf-8"?>
<svg viewBox="0 0 72 72" xmlns="http://www.w3.org/2000/svg">
  <g transform="matrix(1.0774580240249634, 0, 0, 1.0774580240249634, -51.11785888671875, 25.430448532104492)" style="">
    <g id="line-supplement" transform="matrix(1, 0, 0, 1, 41.793533, -27.077225)">
      <rect x="19" y="30" rx="5" width="34" height="26" fill="none" stroke="#000" stroke-width="2"/>
    </g>
    <g id="g-3" transform="matrix(1, 0, 0, 1, 41.793533, -27.077225)">
      <path fill="#fff" fill-rule="evenodd" d="M19 19C18.4477 19 18 19.4477 18 20V22.5C18 23.8836 17.7705 24.8394 17.4571 25.564C17.1415 26.2941 16.7182 26.8447 16.2351 27.4184C16.1702 27.4954 16.1029 27.5742 16.0339 27.6551L16.0337 27.6553C15.6101 28.1515 15.1237 28.7214 14.7494 29.3997C14.2913 30.2301 14 31.2092 14 32.5V51C14 56.5228 18.4772 61 24 61H36H48C53.5228 61 58 56.5228 58 51V32.5C58 31.2092 57.7087 30.2301 57.2506 29.3997C56.8763 28.7214 56.3899 28.1515 55.9663 27.6553C55.8973 27.5744 55.8299 27.4955 55.7649 27.4184C55.2818 26.8447 54.8585 26.2941 54.5429 25.564C54.2295 24.8394 54 23.8836 54 22.5V20C54 19.4477 53.5523 19 53 19H36H19Z" clip-rule="evenodd"/>
      <path fill="#D0CFCE" d="M54 12H18C17.4477 12 17 12.4477 17 13V19C17 19.5523 17.4477 20 18 20H53.5H54C54.5523 20 55 19.5523 55 19V13C55 12.4477 54.5523 12 54 12Z"/>
      <path fill="#6A462F" fill-rule="evenodd" d="M24 29H48C51.3137 29 54 31.6863 54 35V51C54 54.3137 51.3137 57 48 57H24C20.6863 57 18 54.3137 18 51V35C18 31.6863 20.6863 29 24 29Z" clip-rule="evenodd"/>
      <path fill="#A57939" fill-rule="evenodd" d="M24 57H41C44.3137 57 47 54.3137 47 51V35C47 31.6863 44.3137 29 41 29H24C20.6863 29 18 31.6863 18 35V51C18 54.3137 20.6863 57 24 57Z" clip-rule="evenodd"/>
      <path fill="none" stroke="#fff" stroke-linecap="round" stroke-linejoin="round" stroke-width="2" d="M24 51C24 51 24 37.2456 24 32.8246C24 28.4035 26 28.8947 26 23"/>
    </g>
    <g id="g-4" transform="matrix(1, 0, 0, 1, 41.793533, -27.077225)">
      <path fill="none" stroke="#000" stroke-linecap="round" stroke-linejoin="round" stroke-width="2" d="M36 60H48C52.9706 60 57 55.9706 57 51C57 51 57 37 57 32.5C57 28 53 28.5 53 22.5"/>
      <path fill="none" stroke="#000" stroke-linecap="round" stroke-linejoin="round" stroke-width="2" d="M36 60H24C19.0294 60 15 55.9706 15 51C15 51 15 37 15 32.5C15 28 19 28.5 19 22.5"/>
      <path fill="none" stroke="#000" stroke-linecap="round" stroke-linejoin="round" stroke-width="2" d="M54 12H18C17.4477 12 17 12.4477 17 13V19C17 19.5523 17.4477 20 18 20H53.5H54C54.5523 20 55 19.5523 55 19V13C55 12.4477 54.5523 12 54 12Z"/>
    </g>
  </g>
  <g transform="matrix(0.981296956539, -0.262937992811, 0.262937992811, 0.981296956539, -2.790402452954, 11.482817168118)" style="transform-origin: 61.6964px 24.7499px;">
    <g id="g-5" transform="matrix(1, 0, 0, 1, 24.071407, -11.746505)">
      <path fill="#D0CFCE" stroke="none" stroke-linecap="round" stroke-linejoin="round" stroke-miterlimit="10" stroke-width="2" d="M43.4573,21.3227c0-5.0582-2.6112-9.1586-5.8323-9.1586s-5.8323,4.1004-5.8323,9.1586c0,4.6982,1.3551,8.5665,4.257,9.0938l0,0 l-0.8108,28.4123c0,1.1046,0.8954,2,2,2s2-0.8954,2-2l-0.0285-28.4181l0,0C42.1071,29.876,43.4573,26.0153,43.4573,21.3227z"/>
    </g>
    <g id="g-6" transform="matrix(1, 0, 0, 1, 24.071407, -11.746505)">
      <path fill="none" stroke="#000000" stroke-linecap="round" stroke-linejoin="round" stroke-miterlimit="10" stroke-width="2" d="M43.4573,21.3227c0-5.0582-2.6112-9.1586-5.8323-9.1586s-5.8323,4.1004-5.8323,9.1586c0,4.6982,1.3551,8.5665,4.257,9.0938l0,0 l-0.8108,28.4123c0,1.1046,0.8954,2,2,2s2-0.8954,2-2l-0.0285-28.4181l0,0C42.1071,29.876,43.4573,26.0153,43.4573,21.3227z"/>
    </g>
  </g>
  <g style="transform-origin: 36.4352px 35.7777px;" transform="matrix(-0.533026099205, 0, 0, -0.533026099205, 13.32474673662, 16.376059421277)">
    <g id="color">
      <path fill="#a57939" d="M28,28.6136l18-1s5,25-1,25l-9,5-7.79-4.7685C24,40.6136,28,28.6136,28,28.6136Z" style="stroke-width: 4.0428px;"/>
      <path fill="#f1b31c" d="M17,23.6136s.4223-2.3167,4-5c4-3,16-5,16-5l-14,12Z" style="stroke-width: 4.0428px;"/>
      <path fill="#6a462f" d="M27,27.6136l-11.2506-4S3,42.6136,27,51.6136Z" style="stroke-width: 4.0428px;"/>
      <path fill="#6a462f" d="M47,27.6136l11.2506-4s10.4988,11.429-11.2506,28l1-13Z" style="stroke-width: 4.0428px;"/>
      <path fill="#f1b31c" d="M16.9266,23.4983l.0839.1938C34.5076,34.1845,57,23.6136,57,23.6136A23.8426,23.8426,0,0,0,37.6436,13.506" style="stroke-width: 4.0428px;"/>
    </g>
    <g id="line">
      <path fill="none" stroke="#000000" stroke-miterlimit="10" d="M16.9266,23.4983l.0839.1938C34.5076,34.1845,57,23.6136,57,23.6136A23.8426,23.8426,0,0,0,37.6436,13.506" style="stroke-width: 4.0428px;"/>
      <path fill="none" stroke="#000000" stroke-miterlimit="10" d="M16,23.6136c17.4971,10.4924,41,0,41,0" style="stroke-width: 4.0428px;"/>
      <path fill="none" stroke="#000000" stroke-miterlimit="10" d="M46.4732,27.5435s4.6059,13.5332-1.1843,25.3016" style="stroke-width: 4.0428px;"/>
      <path fill="none" stroke="#000000" stroke-miterlimit="10" d="M46.4732,27.5435s4.6059,13.5332-1.1843,25.3016" style="stroke-width: 4.0428px;"/>
      <path fill="none" stroke="#000000" stroke-linecap="round" stroke-linejoin="round" d="M21.9774,17.807C15.82,21.79,11.7326,28.1967,12.1108,35.5487c.3892,7.5649,6.78,14.6806,13.5472,16.3619,4.101,1.0189,8.7043,4.8382,10.0172,5.9834a.625.625,0,0,0,.7731.0409A69.4328,69.4328,0,0,1,44.9966,52.95c8.5745-4.2024,13.5034-9.836,14.977-17.4009,2.291-11.7612-10.0847-22.0421-23.3016-22.0421a27.39,27.39,0,0,0-11.3832,2.4845" style="stroke-width: 4.0428px;"/>
      <path fill="none" stroke="#000000" stroke-miterlimit="10" d="M27.0255,27.5435A113.7564,113.7564,0,0,0,28.21,52.8451" style="stroke-width: 4.0428px;"/>
    </g>
  </g>
  <g transform="matrix(0.617007017136, 0.053982008249, -0.053982008249, 0.617007017136, -24.726895149086, 31.757113146467)" style="transform-origin: 55.38px 18.9723px;">
    <g id="g-1" transform="matrix(1, 0, 0, 1, 18.29933, -18.273338)">
      <path fill="#6A462F" stroke="#6A462F" stroke-linecap="round" stroke-linejoin="round" stroke-miterlimit="10" d="M57.41,33.18c-0.11,0.11-0.23,0.23-0.36,0.34c-0.12,0.11-0.24,0.21-0.37,0.33c-0.13,0.09-0.25,0.2-0.39,0.3 c-0.58,0.44-1.2,0.82-1.86,1.18c-1.66,0.91-3.54,1.64-5.45,2.51c-0.01,0-0.01,0.01-0.01,0.01c-0.3,0.13-0.59,0.26-0.89,0.41 c-0.62,0.3-1.25,0.62-1.86,0.96c-0.27,0.15-0.53,0.3-0.79,0.47c-0.29,0.17-0.58,0.36-0.86,0.56c-0.2,0.13-0.4,0.27-0.59,0.43 c-0.65,0.47-1.27,1-1.87,1.6c-0.7,0.7-1.31,1.44-1.84,2.2c-0.16,0.22-0.31,0.44-0.45,0.67c-0.01,0.01-0.02,0.02-0.02,0.03 c-2.3,3.57-3.19,7.48-5.32,10.6c-0.21,0.31-0.44,0.62-0.68,0.93c-0.25,0.3-0.51,0.59-0.79,0.87c-3.24,3.2401-7.92,4.14-11.97,2.72 c-0.0099,0-0.0099,0-0.0099,0c-0.65-0.23-1.29-0.53-1.9-0.89c-0.21-0.12-0.42-0.25-0.63-0.39c-0.15-0.1-0.3-0.2-0.44-0.31 c-0.12-0.08-0.23-0.17-0.34-0.2599c-0.17-0.13-0.34-0.27-0.5-0.42c-0.16-0.14-0.3199-0.29-0.48-0.45c0,0,12.14-3.83,18.14-12.83 s13.24-12.13,13.24-12.13s9.67-4.53,6.96-17.51c0.83,0.49,1.62,1.09,2.33,1.8C61.91,21.41,61.9,28.69,57.41,33.18z" style="stroke-width: 3.47924px;"/>
      <path fill="#A57939" stroke="#A57939" stroke-linecap="round" stroke-linejoin="round" stroke-miterlimit="10" d="M48.12,32.62c0,0-8.3558,2.4789-13.24,12.13c-5.2239,10.3225-17.6877,13.6008-18.14,12.83c-4.48-4.49-4.48-11.78,0-16.27 c0.12-0.11,0.24-0.23,0.36-0.34s0.25-0.21,0.38-0.33c0.13-0.09,0.25-0.2,0.39-0.3c0.57-0.44,1.2-0.82,1.86-1.18 c1.14-0.62,2.38-1.16,3.66-1.71c2.92-1.27,6.05-2.6201,8.66-5.23c4.21-4.21,4.9-9.52,7.62-13.51c0.21-0.31,0.44-0.62,0.69-0.93 c0.25-0.3,0.51-0.59,0.78-0.87c0.34-0.34,0.7-0.66,1.07-0.95c0.7-0.54,1.44-0.99,2.22-1.35c0,0,0,0,0.01-0.01 c0.34-0.15,0.68-0.29,1.03-0.41c0.28-0.1,0.5601-0.19,0.84-0.26c0.98-0.26,2-0.39,3.01-0.39c0.21,0,0.42,0.01,0.63,0.02 c1.78,0.1,3.54,0.62,5.13,1.55C57.79,28.09,48.12,32.62,48.12,32.62z" style="stroke-width: 3.47924px;"/>
    </g>
    <g id="g-2" transform="matrix(1, 0, 0, 1, 18.29933, -18.273338)">
      <path fill="none" stroke="#000000" stroke-linecap="round" stroke-linejoin="round" stroke-miterlimit="10" d="M57.41,33.18c-0.11,0.11-0.23,0.23-0.36,0.34c-0.12,0.11-0.24,0.21-0.37,0.33c-0.13,0.09-0.25,0.2-0.39,0.3 c-0.58,0.44-1.2,0.82-1.86,1.18c-1.66,0.91-3.54,1.64-5.45,2.51c-0.01,0-0.01,0.01-0.01,0.01c-0.3,0.13-0.59,0.26-0.89,0.41 c-0.62,0.3-1.25,0.62-1.86,0.96c-0.27,0.15-0.53,0.3-0.79,0.47c-0.29,0.17-0.58,0.36-0.86,0.56c-0.2,0.13-0.4,0.27-0.59,0.43 c-0.65,0.47-1.27,1-1.87,1.6c-0.7,0.7-1.31,1.44-1.84,2.2c-0.16,0.22-0.31,0.44-0.45,0.67c-0.01,0.01-0.02,0.02-0.02,0.03 c-2.3,3.57-3.19,7.48-5.32,10.6c-0.21,0.31-0.44,0.62-0.68,0.93c-0.25,0.3-0.51,0.59-0.79,0.87c-3.24,3.2401-7.92,4.14-11.97,2.72 c-0.0099,0-0.0099,0-0.0099,0c-0.65-0.23-1.29-0.53-1.9-0.89c-0.21-0.12-0.42-0.25-0.63-0.39c-0.15-0.1-0.3-0.2-0.44-0.31 c-0.12-0.08-0.23-0.17-0.34-0.2599c-0.17-0.13-0.34-0.27-0.5-0.42c-0.16-0.14-0.3199-0.29-0.48-0.45c-4.48-4.49-4.48-11.78,0-16.27 c0.12-0.11,0.24-0.23,0.36-0.34s0.25-0.21,0.38-0.33c0.13-0.09,0.25-0.2,0.39-0.3c0.57-0.44,1.2-0.82,1.86-1.18 c1.14-0.62,2.38-1.16,3.66-1.71c2.92-1.27,6.05-2.6201,8.66-5.23c4.21-4.21,4.9-9.52,7.62-13.51c0.21-0.31,0.44-0.62,0.69-0.93 c0.25-0.3,0.51-0.59,0.78-0.87c0.34-0.34,0.7-0.66,1.07-0.95c0.7-0.54,1.44-0.99,2.22-1.35c0,0,0,0,0.01-0.01 c0.34-0.15,0.68-0.29,1.03-0.41c0.28-0.1,0.5601-0.19,0.84-0.26c0.98-0.26,2-0.39,3.01-0.39c0.21,0,0.42,0.01,0.63,0.02 c2.72,0.16,5.39,1.28,7.46,3.35C61.91,21.41,61.9,28.69,57.41,33.18z" style="stroke-width: 3.47924px;"/>
    </g>
  </g>
</svg>