<?xml version="1.0" encoding="utf-8"?>
<svg viewBox="0 0 72 72" xmlns="http://www.w3.org/2000/svg">
  <g transform="matrix(1.0096800327301025, 0, 0, 1.0096800327301025, 5.488519191741943, -2.0121819972991943)" style="">
    <g id="color">
      <g>
        <path fill="#fff" d="M26.3,33.1H45.6a1.6855,1.6855,0,0,1,1.7,1.7V48.9a1.6855,1.6855,0,0,1-1.7,1.7H26.3a1.6855,1.6855,0,0,1-1.7-1.7V34.8A1.8276,1.8276,0,0,1,26.3,33.1Z"/>
        <path fill="#fff" d="M53,29.5V59.7A3.1349,3.1349,0,0,1,50.1,63H21.9A3.1349,3.1349,0,0,1,19,59.7V29.5a15.0381,15.0381,0,0,1,2.2-7.8l1.8-3V14.5h-.9a1.58,1.58,0,0,1-1.6-1.6V10.5a1.58,1.58,0,0,1,1.6-1.6H49.9a1.58,1.58,0,0,1,1.6,1.6v2.4a1.58,1.58,0,0,1-1.6,1.6H49v4.2l1.8,3A14.7745,14.7745,0,0,1,53,29.5Zm-3.4-15H23"/>
      </g>
      <polygon fill="#9b9b9a" points="49.6 14.7 22.4 14.7 20.9 13.4 20.2 11.1 21.2 9.1 50.3 9.1 51.8 10 51.5 13.7 49.6 14.7"/>
      <path fill="#d0cfce" d="M53,28.1V61.3L50.5,63H47.3V36c0-11.3-11.9-17-24.9-17l.3-4.5H49v2.6l.6,2.5,2.2,3.9Z"/>
      <polygon fill="#3f3f3f" points="51.8 10 51.8 13.4 50.7 14.3 50.7 14.5 46.2 14.5 46.2 9.1 50.8 9.1 50.8 9.2 51.8 10"/>
    </g>
    <g id="line">
      <path fill="none" stroke="#000" stroke-miterlimit="10" stroke-width="2" d="M26.3,33.1H45.6a1.6855,1.6855,0,0,1,1.7,1.7V48.9a1.6855,1.6855,0,0,1-1.7,1.7H26.3a1.6855,1.6855,0,0,1-1.7-1.7V34.8A1.8276,1.8276,0,0,1,26.3,33.1Z"/>
      <path fill="none" stroke="#000" stroke-linejoin="round" stroke-width="2" d="M53,29.5V59.7A3.1349,3.1349,0,0,1,50.1,63H21.9A3.1349,3.1349,0,0,1,19,59.7V29.5a15.0381,15.0381,0,0,1,2.2-7.8l1.8-3V14.5h-.9a1.58,1.58,0,0,1-1.6-1.6V10.5a1.58,1.58,0,0,1,1.6-1.6H49.9a1.58,1.58,0,0,1,1.6,1.6v2.4a1.58,1.58,0,0,1-1.6,1.6H49v4.2l1.8,3A14.7745,14.7745,0,0,1,53,29.5Z"/>
      <line x1="49.6" x2="23" y1="14.5" y2="14.5" fill="none" stroke="#000" stroke-linejoin="round" stroke-width="2"/>
    </g>
  </g>
  <g transform="matrix(0.42631703615188604, 0, 0, 0.42631703615188604, 9.984770774841323, 39.19484710693361)" style="">
    <g id="g-1">
      <g transform="matrix(1, 0, 0, 1, 17.872139, 55.723907)" style="transform-origin: 16.279px -17.708px;">
        <path fill="#781e32" d="M 23.164 -5.304 C 24.377 -6.015 25.344 -7.081 25.936 -8.357 C 26.551 -9.654 26.836 -11.083 26.765 -12.517 C 26.717 -14.327 26.34 -16.112 25.652 -17.786 C 24.811 -20.354 23.595 -22.784 22.042 -24.995 C 20.977 -26.746 19.559 -28.257 17.879 -29.43 C 16.524 -30.471 14.872 -31.053 13.163 -31.091 C 11.41 -31.028 9.737 -30.338 8.45 -29.147 C 7.248 -28.177 6.456 -26.79 6.233 -25.262 C 6.128 -23.809 6.852 -23.372 8.733 -19.717 C 9.659 -17.911 10.494 -16.061 11.233 -14.171 C 11.777 -12.908 12.241 -11.611 12.623 -10.289 C 13.086 -8.535 12.968 -8.162 13.457 -7.239 C 14.097 -5.971 15.185 -4.984 16.509 -4.468 C 17.691 -4.158 18.933 -4.159 20.115 -4.47 C 21.176 -4.543 22.213 -4.827 23.164 -5.304 Z" style="stroke-width: 4.73675px;"/>
        <path fill="#d22f27" d="M 20.236 -26.721 C 16.28 -29.681 11.439 -28.707 9.888 -26.429 C 7.877 -23.472 11.368 -21.064 11.864 -17.426 C 12.345 -13.903 12.288 -9.182 12.288 -9.182 L 10.316 -16.352 L 6.491 -23.029 L 6.253 -27.285 L 11.049 -30.468 L 15.238 -30.628 L 18.301 -29.501 L 20.236 -26.721 Z" style="stroke-width: 4.73675px;"/>
        <path fill="none" stroke="#000" stroke-linecap="round" stroke-miterlimit="10" d="M 21.802 -4.957 C 22.401 -5.256 22.959 -5.629 23.466 -6.067 C 24.269 -6.764 24.928 -7.613 25.406 -8.564 C 26.004 -9.867 26.289 -11.292 26.235 -12.725 C 26.269 -14.223 26.081 -15.718 25.677 -17.162 C 25.226 -18.807 24.573 -20.391 23.733 -21.876 C 22.766 -24.017 21.453 -25.984 19.846 -27.698 C 18.605 -29.023 17.09 -30.064 15.406 -30.746 C 14.529 -31.117 13.585 -31.305 12.632 -31.298 C 11.23 -31.224 9.903 -30.601 8.75 -29.909 C 7.465 -29.099 6.506 -28.174 5.98 -26.857 C 5.24 -24.495 6.807 -22.036 7.092 -21.588 C 7.096 -21.583 7.28 -21.307 7.648 -20.756 C 9.16 -18.492 9.236 -18.398 9.313 -18.261 C 9.96 -17.04 10.427 -15.733 10.703 -14.379 C 11.746 -10.378 12.268 -8.378 12.926 -7.447 C 14.134 -5.737 16.381 -4.033 18.752 -4.122 C 19.812 -4.21 20.846 -4.493 21.802 -4.957 Z" style="stroke-width: 4.73675px;"/>
      </g>
      <g transform="matrix(0, 1, -1, 0, -6.028076, 62.269913)" style="transform-origin: 16.2795px -17.7084px;">
        <path fill="#781e32" d="M 23.164 -5.304 C 24.377 -6.015 25.344 -7.081 25.936 -8.357 C 26.551 -9.654 26.836 -11.083 26.765 -12.517 C 26.717 -14.327 26.34 -16.112 25.652 -17.786 C 24.811 -20.354 23.595 -22.784 22.042 -24.995 C 20.977 -26.746 19.559 -28.257 17.879 -29.43 C 16.524 -30.471 14.872 -31.053 13.163 -31.091 C 11.41 -31.028 9.737 -30.338 8.45 -29.147 C 7.248 -28.177 6.456 -26.79 6.233 -25.262 C 6.128 -23.809 6.852 -23.372 8.733 -19.717 C 9.659 -17.911 10.494 -16.061 11.233 -14.171 C 11.777 -12.908 12.241 -11.611 12.623 -10.289 C 13.086 -8.535 12.968 -8.162 13.457 -7.239 C 14.097 -5.971 15.185 -4.984 16.509 -4.468 C 17.691 -4.158 18.933 -4.159 20.115 -4.47 C 21.176 -4.543 22.213 -4.827 23.164 -5.304 Z" style="stroke-width: 4.73675px;"/>
        <path fill="#d22f27" d="M 20.236 -26.721 C 16.28 -29.681 11.439 -28.707 9.888 -26.429 C 7.877 -23.472 11.368 -21.064 11.864 -17.426 C 12.345 -13.903 12.288 -9.182 12.288 -9.182 L 10.316 -16.352 L 6.491 -23.029 L 6.253 -27.285 L 11.049 -30.468 L 15.238 -30.628 L 18.301 -29.501 L 20.236 -26.721 Z" style="stroke-width: 4.73675px;"/>
        <path fill="none" stroke="#000" stroke-linecap="round" stroke-miterlimit="10" d="M 21.802 -4.957 C 22.401 -5.256 22.959 -5.629 23.466 -6.067 C 24.269 -6.764 24.928 -7.613 25.406 -8.564 C 26.004 -9.867 26.289 -11.292 26.235 -12.725 C 26.269 -14.223 26.081 -15.718 25.677 -17.162 C 25.226 -18.807 24.573 -20.391 23.733 -21.876 C 22.766 -24.017 21.453 -25.984 19.846 -27.698 C 18.605 -29.023 17.09 -30.064 15.406 -30.746 C 14.529 -31.117 13.585 -31.305 12.632 -31.298 C 11.23 -31.224 9.903 -30.601 8.75 -29.909 C 7.465 -29.099 6.506 -28.174 5.98 -26.857 C 5.24 -24.495 6.807 -22.036 7.092 -21.588 C 7.096 -21.583 7.28 -21.307 7.648 -20.756 C 9.16 -18.492 9.236 -18.398 9.313 -18.261 C 9.96 -17.04 10.427 -15.733 10.703 -14.379 C 11.746 -10.378 12.268 -8.378 12.926 -7.447 C 14.134 -5.737 16.381 -4.033 18.752 -4.122 C 19.812 -4.21 20.846 -4.493 21.802 -4.957 Z" style="stroke-width: 4.73675px;"/>
      </g>
      <path fill="#781e32" d="M17.7119,48.208c-.0306,1.3988,.3147,2.7802,1,4,.7372,1.2322,1.7678,2.2628,3,3,1.5312,.9652,3.2256,1.643,5,2,2.5846,.8127,5.2949,1.1514,8,1,1.8202-.0875,3.6105-.4964,5.2881-1.208,1.5442-.6728,3.782-1.6478,5-4,.6662-1.1446,.9176-2.4837,.7119-3.792-.5246-2.6911-3.1853-3.9574-3.7119-4.208-.7106-.3382-.9245-.2982-4.2881-.792-2.7243-.4-4.1609-.6074-6-1-1.353-.249-2.689-.583-4-1-.9741-.4066-1.9768-.7408-3-1-.8729-.2923-1.8046-.3638-2.7119-.208-1.49,.397-2.2889,1.7738-3,3-.7977,1.2624-1.2425,2.7154-1.2881,4.208Z" style="stroke-width: 4.73675px;"/>
      <path fill="#781e32" d="M58.1643,45.4029c1.213-.7118,2.18-1.7769,2.7716-3.0529,.6154-1.2973,.9003-2.7267,.8294-4.1608-.0475-1.8094-.4246-3.5949-1.1128-5.2689-.8408-2.568-2.0573-4.9973-3.61-7.2088-1.065-1.7511-2.4828-3.2615-4.1631-4.435-1.3555-1.0409-3.0074-1.6227-4.716-1.661-1.7533,.0628-3.4258,.7528-4.7134,1.9445-1.2017,.9694-1.9932,2.3566-2.2163,3.8844-.1052,1.4528,.6187,1.89,2.5,5.5454,.9259,1.8053,1.7603,3.6561,2.5,5.5454,.5441,1.2635,1.0081,2.5601,1.3892,3.882,.4633,1.7546,.3452,2.1271,.834,3.05,.6409,1.2687,1.7281,2.2558,3.0527,2.7715,1.182,.3096,2.4239,.3088,3.6055-.0023,1.0615-.0733,2.098-.3566,3.0492-.8335Z" style="stroke-width: 4.73675px;"/>
      <path fill="#781e32" d="M13.9843,34.9863c.9717,1.0167,2.2306,1.7126,3.6084,1.9948,1.4041,.3005,2.8607,.249,4.24-.15,1.7499-.4625,3.4008-1.2403,4.8715-2.2953,2.3057-1.4091,4.3899-3.152,6.1847-5.1719,1.4591-1.4394,2.6027-3.1666,3.3581-5.0719,.7012-1.5586,.8873-3.3001,.5314-4.9717-.4645-1.692-1.5208-3.161-2.9769-4.14-1.2198-.9464-2.7519-1.3975-4.29-1.2631-1.438,.2319-1.6972,1.037-4.8214,3.7086-1.5439,1.3164-3.1531,2.5542-4.8215,3.7086-1.1046,.8204-2.2598,1.5704-3.4586,2.2456-1.6009,.8546-1.9906,.8253-2.7766,1.5135-1.0872,.9156-1.7977,2.2007-1.9947,3.6084-.0294,1.2215,.2571,2.43,.8318,3.5083,.3158,1.0165,.8304,1.9601,1.5138,2.7761Z" style="stroke-width: 4.73675px;"/>
      <path fill="#d22f27" d="M13.9843,34.9863c-1.5113-3.8625-.2316-6.8323,3.5832-8.2759s5.8352-3.2611,7.9876-6.0193c3.5972-4.6093,6.7562-5.251,11.4449-2.6911l-4.6097-3.8192-4.1127,.3393-6.8732,5.7156-8.9921,6.2895,.0582,5.685,1.5138,2.7761Z" style="stroke-width: 4.73675px;"/>
      <path fill="#d22f27" d="M54.9684,23.7033c-3.9558-2.96-8.7968-1.9867-10.3472,.2917-2.0118,2.9566,1.4798,5.3651,1.9761,9.0029,.4806,3.5228,.4233,8.2438,.4233,8.2438l-1.9719-7.1699-3.8249-6.6764-.238-4.2562,4.796-3.1834,4.1895-.1601,3.0629,1.1272,1.9342,2.7804Z" style="stroke-width: 4.73675px;"/>
      <path fill="#d22f27" d="M44.8063,53.35c-2.5538-8.0277-8.8171-5.4663-13.746-6.9135-5.9141-1.7364-6.7646-4.289-13.4928,.4081l3.9915-5.9249h5.2243l4.7483,3.499,8.7614-.2987,4.707,2.888-.1937,6.342Z" style="stroke-width: 4.73675px;"/>
    </g>
    <g id="g-2">
      <path fill="none" stroke="#000" stroke-linecap="round" stroke-miterlimit="10" d="M56.8025,45.75c.5985-.2993,1.1573-.6722,1.6634-1.11,.8038-.6976,1.4629-1.5461,1.94-2.4974,.5989-1.3027,.883-2.7279,.8294-4.1607,.034-1.4985-.1539-2.9938-.5576-4.4373-.4512-1.6454-1.1043-3.2287-1.9444-4.7137-.9668-2.1411-2.2799-4.1081-3.8867-5.8219-1.2415-1.3259-2.7565-2.366-4.44-3.048-.8772-.3717-1.8212-.5599-2.7739-.5529-1.4019,.0742-2.7291,.697-3.882,1.3893-1.2849,.81-2.2444,1.7349-2.7707,3.0526-.7395,2.3618,.8273,4.8208,1.1128,5.2689,.0032,.005,.1872,.2806,.5553,.8317,1.512,2.2643,1.5885,2.3577,1.6657,2.4951,.6462,1.221,1.114,2.5283,1.3892,3.882,1.0433,4.0005,1.565,6.0008,2.2232,6.9323,1.2081,1.71,3.4553,3.4136,5.8265,3.3245,1.0593-.0879,2.0933-.3708,3.0498-.8345Z" style="stroke-width: 4.73675px;"/>
      <path fill="none" stroke="#000" stroke-linecap="round" stroke-miterlimit="10" d="M22,41c-1.5401,.5536-2.8303,1.6417-3.6357,3.0664-.7139,1.3652-.9574,2.9278-.6928,4.4455,.1779,1.247,.6317,2.4387,1.3285,3.4881,2.0319,3.2278,5.3827,4.4231,7,5,1.6129,.561,3.2954,.8975,5,1,2.3868,.2048,6.9232,.5352,11-2,1.2867-.665,2.335-1.7133,3-3,.6609-1.6012,.6609-3.3988,0-5-.389-1.1558-1.1211-2.1654-2.0988-2.8943-.9191-.599-1.9745-.9562-3.0685-1.0386-2.0572-.3135-2.7555,.1392-5.0143,.0571-1.2715-.0193-2.5342-.2136-3.7527-.5774-3.0361-.95-3.33-2.4569-5.8888-2.8289-1.0664-.1578-2.155-.0611-3.1769,.2821Z" style="stroke-width: 4.73675px;"/>
      <path fill="none" stroke="#000" stroke-linecap="round" stroke-miterlimit="10" d="M12.7,26.9745c1.7582-3.6039,5.3112-3.1906,9.58-7.0912,2.7013-2.4686,2.8583-4.0782,5.6126-5.2025,1.407-.644,2.9836-.8193,4.4977-.5,2.0527,.4753,3.761,1.8907,4.6097,3.8192,1.1162,2.7423-.3137,5.4373-1.3984,7.4819-.9506,1.6893-2.1667,3.2149-3.6016,4.5181-1.4793,1.552-3.1611,2.8975-5,4-2.6292,1.5406-6.3325,3.7106-9.989,2.43-1.4813-.548-2.7681-1.5207-3.6993-2.7964-1.4958-1.9062-1.7352-4.5123-.6117-6.6591Z" style="stroke-width: 4.73675px;"/>
    </g>
  </g>
  <g transform="matrix(0.10611599683761598, 0, 0, 0.10611599683761598, 49.777526855468764, 56.05611038208009)" style="">
    <g id="g-5">
      <circle cx="36" cy="36" r="28" fill="#b1cc33" style="stroke-width: 13.599px;"/>
    </g>
    <g id="g-6">
      <circle cx="36" cy="36" r="28" fill="none" stroke="#000" stroke-linejoin="round" style="stroke-width: 13.599px;"/>
    </g>
  </g>
  <g transform="matrix(0.10611599683761598, 0, 0, 0.10611599683761598, 54.50837707519533, 56.13617324829103)" style="">
    <g id="g-7">
      <circle cx="36" cy="36" r="28" fill="#b1cc33" style="stroke-width: 13.599px;"/>
    </g>
    <g id="g-8">
      <circle cx="36" cy="36" r="28" fill="none" stroke="#000" stroke-linejoin="round" style="stroke-width: 13.599px;"/>
    </g>
  </g>
  <g transform="matrix(0.10611599683761598, 0, 0, 0.10611599683761598, 51.519130706787124, 52.90037536621095)" style="">
    <g id="g-9">
      <circle cx="36" cy="36" r="28" fill="#b1cc33" style="stroke-width: 13.599px;"/>
    </g>
    <g id="g-10">
      <circle cx="36" cy="36" r="28" fill="none" stroke="#000" stroke-linejoin="round" style="stroke-width: 13.599px;"/>
    </g>
  </g>
  <g transform="matrix(0.10611599683761598, 0, 0, 0.10611599683761598, 46.07795333862306, 53.132472991943374)" style="">
    <g id="g-11">
      <circle cx="36" cy="36" r="28" fill="#b1cc33" style="stroke-width: 13.599px;"/>
    </g>
    <g id="g-12">
      <circle cx="36" cy="36" r="28" fill="none" stroke="#000" stroke-linejoin="round" style="stroke-width: 13.599px;"/>
    </g>
  </g>
  <g transform="matrix(0.10611599683761598, 0, 0, 0.10611599683761598, 45.497280120849624, 57.21845626831056)" style="">
    <g id="g-13">
      <circle cx="36" cy="36" r="28" fill="#b1cc33" style="stroke-width: 13.599px;"/>
    </g>
    <g id="g-14">
      <circle cx="36" cy="36" r="28" fill="none" stroke="#000" stroke-linejoin="round" style="stroke-width: 13.599px;"/>
    </g>
  </g>
  <g transform="matrix(0.10611599683761598, 0, 0, 0.10611599683761598, 42.36264801025392, 51.11286544799806)" style="">
    <g id="g-15">
      <circle cx="36" cy="36" r="28" fill="#b1cc33" style="stroke-width: 13.599px;"/>
    </g>
    <g id="g-16">
      <circle cx="36" cy="36" r="28" fill="none" stroke="#000" stroke-linejoin="round" style="stroke-width: 13.599px;"/>
    </g>
  </g>
  <g transform="matrix(0.10611599683761598, 0, 0, 0.10611599683761598, 41.345832824707045, 55.03731155395509)" style="">
    <g id="g-17">
      <circle cx="36" cy="36" r="28" fill="#b1cc33" style="stroke-width: 13.599px;"/>
    </g>
    <g id="g-18">
      <circle cx="36" cy="36" r="28" fill="none" stroke="#000" stroke-linejoin="round" style="stroke-width: 13.599px;"/>
    </g>
  </g>
  <g transform="matrix(0.10611599683761598, 0, 0, 0.10611599683761598, 46.58763885498048, 49.68455505371095)" style="">
    <g id="g-19">
      <circle cx="36" cy="36" r="28" fill="#b1cc33" style="stroke-width: 13.599px;"/>
    </g>
    <g id="g-20">
      <circle cx="36" cy="36" r="28" fill="none" stroke="#000" stroke-linejoin="round" style="stroke-width: 13.599px;"/>
    </g>
  </g>
  <g transform="matrix(0.10611599683761598, 0, 0, 0.10611599683761598, 38.94151306152345, 49.115783691406264)" style="">
    <g id="g-21">
      <circle cx="36" cy="36" r="28" fill="#b1cc33" style="stroke-width: 13.599px;"/>
    </g>
    <g id="g-22">
      <circle cx="36" cy="36" r="28" fill="none" stroke="#000" stroke-linejoin="round" style="stroke-width: 13.599px;"/>
    </g>
  </g>
  <g transform="matrix(0.10611599683761598, 0, 0, 0.10611599683761598, 42.74778747558595, 47.937847137451186)" style="">
    <g id="g-23">
      <circle cx="36" cy="36" r="28" fill="#b1cc33" style="stroke-width: 13.599px;"/>
    </g>
    <g id="g-24">
      <circle cx="36" cy="36" r="28" fill="none" stroke="#000" stroke-linejoin="round" style="stroke-width: 13.599px;"/>
    </g>
  </g>
  <g transform="matrix(-0.42631703615188604, 0, 0, 0.42631703615188604, 46.075717926025405, 39.424072265625014)" style="">
    <g id="g-3">
      <g transform="matrix(1, 0, 0, 1, 17.872139, 55.723907)" style="transform-origin: 16.279px -17.708px;">
        <path fill="#781e32" d="M 23.164 -5.304 C 24.377 -6.015 25.344 -7.081 25.936 -8.357 C 26.551 -9.654 26.836 -11.083 26.765 -12.517 C 26.717 -14.327 26.34 -16.112 25.652 -17.786 C 24.811 -20.354 23.595 -22.784 22.042 -24.995 C 20.977 -26.746 19.559 -28.257 17.879 -29.43 C 16.524 -30.471 14.872 -31.053 13.163 -31.091 C 11.41 -31.028 9.737 -30.338 8.45 -29.147 C 7.248 -28.177 6.456 -26.79 6.233 -25.262 C 6.128 -23.809 6.852 -23.372 8.733 -19.717 C 9.659 -17.911 10.494 -16.061 11.233 -14.171 C 11.777 -12.908 12.241 -11.611 12.623 -10.289 C 13.086 -8.535 12.968 -8.162 13.457 -7.239 C 14.097 -5.971 15.185 -4.984 16.509 -4.468 C 17.691 -4.158 18.933 -4.159 20.115 -4.47 C 21.176 -4.543 22.213 -4.827 23.164 -5.304 Z" style="stroke-width: 4.73675px;"/>
        <path fill="#d22f27" d="M 20.236 -26.721 C 16.28 -29.681 11.439 -28.707 9.888 -26.429 C 7.877 -23.472 11.368 -21.064 11.864 -17.426 C 12.345 -13.903 12.288 -9.182 12.288 -9.182 L 10.316 -16.352 L 6.491 -23.029 L 6.253 -27.285 L 11.049 -30.468 L 15.238 -30.628 L 18.301 -29.501 L 20.236 -26.721 Z" style="stroke-width: 4.73675px;"/>
        <path fill="none" stroke="#000" stroke-linecap="round" stroke-miterlimit="10" d="M 21.802 -4.957 C 22.401 -5.256 22.959 -5.629 23.466 -6.067 C 24.269 -6.764 24.928 -7.613 25.406 -8.564 C 26.004 -9.867 26.289 -11.292 26.235 -12.725 C 26.269 -14.223 26.081 -15.718 25.677 -17.162 C 25.226 -18.807 24.573 -20.391 23.733 -21.876 C 22.766 -24.017 21.453 -25.984 19.846 -27.698 C 18.605 -29.023 17.09 -30.064 15.406 -30.746 C 14.529 -31.117 13.585 -31.305 12.632 -31.298 C 11.23 -31.224 9.903 -30.601 8.75 -29.909 C 7.465 -29.099 6.506 -28.174 5.98 -26.857 C 5.24 -24.495 6.807 -22.036 7.092 -21.588 C 7.096 -21.583 7.28 -21.307 7.648 -20.756 C 9.16 -18.492 9.236 -18.398 9.313 -18.261 C 9.96 -17.04 10.427 -15.733 10.703 -14.379 C 11.746 -10.378 12.268 -8.378 12.926 -7.447 C 14.134 -5.737 16.381 -4.033 18.752 -4.122 C 19.812 -4.21 20.846 -4.493 21.802 -4.957 Z" style="stroke-width: 4.73675px;"/>
      </g>
      <g transform="matrix(0, 1, -1, 0, -6.028076, 62.269913)" style="transform-origin: 16.2795px -17.7084px;">
        <path fill="#781e32" d="M 23.164 -5.304 C 24.377 -6.015 25.344 -7.081 25.936 -8.357 C 26.551 -9.654 26.836 -11.083 26.765 -12.517 C 26.717 -14.327 26.34 -16.112 25.652 -17.786 C 24.811 -20.354 23.595 -22.784 22.042 -24.995 C 20.977 -26.746 19.559 -28.257 17.879 -29.43 C 16.524 -30.471 14.872 -31.053 13.163 -31.091 C 11.41 -31.028 9.737 -30.338 8.45 -29.147 C 7.248 -28.177 6.456 -26.79 6.233 -25.262 C 6.128 -23.809 6.852 -23.372 8.733 -19.717 C 9.659 -17.911 10.494 -16.061 11.233 -14.171 C 11.777 -12.908 12.241 -11.611 12.623 -10.289 C 13.086 -8.535 12.968 -8.162 13.457 -7.239 C 14.097 -5.971 15.185 -4.984 16.509 -4.468 C 17.691 -4.158 18.933 -4.159 20.115 -4.47 C 21.176 -4.543 22.213 -4.827 23.164 -5.304 Z" style="stroke-width: 4.73675px;"/>
        <path fill="#d22f27" d="M 20.236 -26.721 C 16.28 -29.681 11.439 -28.707 9.888 -26.429 C 7.877 -23.472 11.368 -21.064 11.864 -17.426 C 12.345 -13.903 12.288 -9.182 12.288 -9.182 L 10.316 -16.352 L 6.491 -23.029 L 6.253 -27.285 L 11.049 -30.468 L 15.238 -30.628 L 18.301 -29.501 L 20.236 -26.721 Z" style="stroke-width: 4.73675px;"/>
        <path fill="none" stroke="#000" stroke-linecap="round" stroke-miterlimit="10" d="M 21.802 -4.957 C 22.401 -5.256 22.959 -5.629 23.466 -6.067 C 24.269 -6.764 24.928 -7.613 25.406 -8.564 C 26.004 -9.867 26.289 -11.292 26.235 -12.725 C 26.269 -14.223 26.081 -15.718 25.677 -17.162 C 25.226 -18.807 24.573 -20.391 23.733 -21.876 C 22.766 -24.017 21.453 -25.984 19.846 -27.698 C 18.605 -29.023 17.09 -30.064 15.406 -30.746 C 14.529 -31.117 13.585 -31.305 12.632 -31.298 C 11.23 -31.224 9.903 -30.601 8.75 -29.909 C 7.465 -29.099 6.506 -28.174 5.98 -26.857 C 5.24 -24.495 6.807 -22.036 7.092 -21.588 C 7.096 -21.583 7.28 -21.307 7.648 -20.756 C 9.16 -18.492 9.236 -18.398 9.313 -18.261 C 9.96 -17.04 10.427 -15.733 10.703 -14.379 C 11.746 -10.378 12.268 -8.378 12.926 -7.447 C 14.134 -5.737 16.381 -4.033 18.752 -4.122 C 19.812 -4.21 20.846 -4.493 21.802 -4.957 Z" style="stroke-width: 4.73675px;"/>
      </g>
      <path fill="#781e32" d="M17.7119,48.208c-.0306,1.3988,.3147,2.7802,1,4,.7372,1.2322,1.7678,2.2628,3,3,1.5312,.9652,3.2256,1.643,5,2,2.5846,.8127,5.2949,1.1514,8,1,1.8202-.0875,3.6105-.4964,5.2881-1.208,1.5442-.6728,3.782-1.6478,5-4,.6662-1.1446,.9176-2.4837,.7119-3.792-.5246-2.6911-3.1853-3.9574-3.7119-4.208-.7106-.3382-.9245-.2982-4.2881-.792-2.7243-.4-4.1609-.6074-6-1-1.353-.249-2.689-.583-4-1-.9741-.4066-1.9768-.7408-3-1-.8729-.2923-1.8046-.3638-2.7119-.208-1.49,.397-2.2889,1.7738-3,3-.7977,1.2624-1.2425,2.7154-1.2881,4.208Z" style="stroke-width: 4.73675px;"/>
      <path fill="#781e32" d="M58.1643,45.4029c1.213-.7118,2.18-1.7769,2.7716-3.0529,.6154-1.2973,.9003-2.7267,.8294-4.1608-.0475-1.8094-.4246-3.5949-1.1128-5.2689-.8408-2.568-2.0573-4.9973-3.61-7.2088-1.065-1.7511-2.4828-3.2615-4.1631-4.435-1.3555-1.0409-3.0074-1.6227-4.716-1.661-1.7533,.0628-3.4258,.7528-4.7134,1.9445-1.2017,.9694-1.9932,2.3566-2.2163,3.8844-.1052,1.4528,.6187,1.89,2.5,5.5454,.9259,1.8053,1.7603,3.6561,2.5,5.5454,.5441,1.2635,1.0081,2.5601,1.3892,3.882,.4633,1.7546,.3452,2.1271,.834,3.05,.6409,1.2687,1.7281,2.2558,3.0527,2.7715,1.182,.3096,2.4239,.3088,3.6055-.0023,1.0615-.0733,2.098-.3566,3.0492-.8335Z" style="stroke-width: 4.73675px;"/>
      <path fill="#781e32" d="M13.9843,34.9863c.9717,1.0167,2.2306,1.7126,3.6084,1.9948,1.4041,.3005,2.8607,.249,4.24-.15,1.7499-.4625,3.4008-1.2403,4.8715-2.2953,2.3057-1.4091,4.3899-3.152,6.1847-5.1719,1.4591-1.4394,2.6027-3.1666,3.3581-5.0719,.7012-1.5586,.8873-3.3001,.5314-4.9717-.4645-1.692-1.5208-3.161-2.9769-4.14-1.2198-.9464-2.7519-1.3975-4.29-1.2631-1.438,.2319-1.6972,1.037-4.8214,3.7086-1.5439,1.3164-3.1531,2.5542-4.8215,3.7086-1.1046,.8204-2.2598,1.5704-3.4586,2.2456-1.6009,.8546-1.9906,.8253-2.7766,1.5135-1.0872,.9156-1.7977,2.2007-1.9947,3.6084-.0294,1.2215,.2571,2.43,.8318,3.5083,.3158,1.0165,.8304,1.9601,1.5138,2.7761Z" style="stroke-width: 4.73675px;"/>
      <path fill="#d22f27" d="M13.9843,34.9863c-1.5113-3.8625-.2316-6.8323,3.5832-8.2759s5.8352-3.2611,7.9876-6.0193c3.5972-4.6093,6.7562-5.251,11.4449-2.6911l-4.6097-3.8192-4.1127,.3393-6.8732,5.7156-8.9921,6.2895,.0582,5.685,1.5138,2.7761Z" style="stroke-width: 4.73675px;"/>
      <path fill="#d22f27" d="M54.9684,23.7033c-3.9558-2.96-8.7968-1.9867-10.3472,.2917-2.0118,2.9566,1.4798,5.3651,1.9761,9.0029,.4806,3.5228,.4233,8.2438,.4233,8.2438l-1.9719-7.1699-3.8249-6.6764-.238-4.2562,4.796-3.1834,4.1895-.1601,3.0629,1.1272,1.9342,2.7804Z" style="stroke-width: 4.73675px;"/>
      <path fill="#d22f27" d="M44.8063,53.35c-2.5538-8.0277-8.8171-5.4663-13.746-6.9135-5.9141-1.7364-6.7646-4.289-13.4928,.4081l3.9915-5.9249h5.2243l4.7483,3.499,8.7614-.2987,4.707,2.888-.1937,6.342Z" style="stroke-width: 4.73675px;"/>
    </g>
    <g id="g-4">
      <path fill="none" stroke="#000" stroke-linecap="round" stroke-miterlimit="10" d="M56.8025,45.75c.5985-.2993,1.1573-.6722,1.6634-1.11,.8038-.6976,1.4629-1.5461,1.94-2.4974,.5989-1.3027,.883-2.7279,.8294-4.1607,.034-1.4985-.1539-2.9938-.5576-4.4373-.4512-1.6454-1.1043-3.2287-1.9444-4.7137-.9668-2.1411-2.2799-4.1081-3.8867-5.8219-1.2415-1.3259-2.7565-2.366-4.44-3.048-.8772-.3717-1.8212-.5599-2.7739-.5529-1.4019,.0742-2.7291,.697-3.882,1.3893-1.2849,.81-2.2444,1.7349-2.7707,3.0526-.7395,2.3618,.8273,4.8208,1.1128,5.2689,.0032,.005,.1872,.2806,.5553,.8317,1.512,2.2643,1.5885,2.3577,1.6657,2.4951,.6462,1.221,1.114,2.5283,1.3892,3.882,1.0433,4.0005,1.565,6.0008,2.2232,6.9323,1.2081,1.71,3.4553,3.4136,5.8265,3.3245,1.0593-.0879,2.0933-.3708,3.0498-.8345Z" style="stroke-width: 4.73675px;"/>
      <path fill="none" stroke="#000" stroke-linecap="round" stroke-miterlimit="10" d="M22,41c-1.5401,.5536-2.8303,1.6417-3.6357,3.0664-.7139,1.3652-.9574,2.9278-.6928,4.4455,.1779,1.247,.6317,2.4387,1.3285,3.4881,2.0319,3.2278,5.3827,4.4231,7,5,1.6129,.561,3.2954,.8975,5,1,2.3868,.2048,6.9232,.5352,11-2,1.2867-.665,2.335-1.7133,3-3,.6609-1.6012,.6609-3.3988,0-5-.389-1.1558-1.1211-2.1654-2.0988-2.8943-.9191-.599-1.9745-.9562-3.0685-1.0386-2.0572-.3135-2.7555,.1392-5.0143,.0571-1.2715-.0193-2.5342-.2136-3.7527-.5774-3.0361-.95-3.33-2.4569-5.8888-2.8289-1.0664-.1578-2.155-.0611-3.1769,.2821Z" style="stroke-width: 4.73675px;"/>
      <path fill="none" stroke="#000" stroke-linecap="round" stroke-miterlimit="10" d="M12.7,26.9745c1.7582-3.6039,5.3112-3.1906,9.58-7.0912,2.7013-2.4686,2.8583-4.0782,5.6126-5.2025,1.407-.644,2.9836-.8193,4.4977-.5,2.0527,.4753,3.761,1.8907,4.6097,3.8192,1.1162,2.7423-.3137,5.4373-1.3984,7.4819-.9506,1.6893-2.1667,3.2149-3.6016,4.5181-1.4793,1.552-3.1611,2.8975-5,4-2.6292,1.5406-6.3325,3.7106-9.989,2.43-1.4813-.548-2.7681-1.5207-3.6993-2.7964-1.4958-1.9062-1.7352-4.5123-.6117-6.6591Z" style="stroke-width: 4.73675px;"/>
    </g>
  </g>
  <g transform="matrix(0.10611599683761598, 0, 0, 0.10611599683761598, 58.70105361938478, 55.87559509277345)" style="">
    <g id="g-25">
      <circle cx="36" cy="36" r="28" fill="#b1cc33" style="stroke-width: 13.599px;"/>
    </g>
    <g id="g-26">
      <circle cx="36" cy="36" r="28" fill="none" stroke="#000" stroke-linejoin="round" style="stroke-width: 13.599px;"/>
    </g>
  </g>
  <g transform="matrix(0.7348180413246156, 0, 0, 0.7348180413246156, -34.779502868652344, 4.684116840362549)" style="">
    <g id="line-supplement" transform="matrix(0.113087, 0, 0, 0.113087, 64.903336, 73.649956)" style="">
      <path fill="#000" d="M36 64.0001C51.464 64.0001 64 51.4641 64 36.0001C64 20.5361 51.464 8.00012 36 8.00012C20.536 8.00012 8 20.5361 8 36.0001C8 51.4641 20.536 64.0001 36 64.0001Z" style="stroke-width: 18.2256px;"/>
    </g>
    <g id="g-27" transform="matrix(0.113087, 0, 0, 0.113087, 64.903336, 73.649956)" style="">
      <path fill="#3F3F3F" d="M36 64.0001C51.464 64.0001 64 51.4641 64 36.0001C64 20.5361 51.464 8.00012 36 8.00012C20.536 8.00012 8 20.5361 8 36.0001C8 51.4641 20.536 64.0001 36 64.0001Z" style="stroke-width: 18.2256px;"/>
    </g>
    <g id="g-28" transform="matrix(0.113087, 0, 0, 0.113087, 64.903336, 73.649956)" style="">
      <path fill="none" stroke="#000" stroke-linejoin="round" d="M36 64.0001C51.464 64.0001 64 51.4641 64 36.0001C64 20.5361 51.464 8.00012 36 8.00012C20.536 8.00012 8 20.5361 8 36.0001C8 51.4641 20.536 64.0001 36 64.0001Z" style="stroke-width: 18.2256px;"/>
    </g>
  </g>
  <g transform="matrix(0.7348180413246156, 0, 0, 0.7348180413246156, -31.9204158782959, 2.584881067276001)" style="">
    <g id="g-32" transform="matrix(0.113087, 0, 0, 0.113087, 64.903336, 73.649956)" style="">
      <path fill="#000" d="M36 64.0001C51.464 64.0001 64 51.4641 64 36.0001C64 20.5361 51.464 8.00012 36 8.00012C20.536 8.00012 8 20.5361 8 36.0001C8 51.4641 20.536 64.0001 36 64.0001Z" style="stroke-width: 18.2256px;"/>
    </g>
    <g id="g-33" transform="matrix(0.113087, 0, 0, 0.113087, 64.903336, 73.649956)" style="">
      <path fill="#3F3F3F" d="M36 64.0001C51.464 64.0001 64 51.4641 64 36.0001C64 20.5361 51.464 8.00012 36 8.00012C20.536 8.00012 8 20.5361 8 36.0001C8 51.4641 20.536 64.0001 36 64.0001Z" style="stroke-width: 18.2256px;"/>
    </g>
    <g id="g-34" transform="matrix(0.113087, 0, 0, 0.113087, 64.903336, 73.649956)" style="">
      <path fill="none" stroke="#000" stroke-linejoin="round" d="M36 64.0001C51.464 64.0001 64 51.4641 64 36.0001C64 20.5361 51.464 8.00012 36 8.00012C20.536 8.00012 8 20.5361 8 36.0001C8 51.4641 20.536 64.0001 36 64.0001Z" style="stroke-width: 18.2256px;"/>
    </g>
  </g>
  <g transform="matrix(0.7348180413246156, 0, 0, 0.7348180413246156, -35.89873504638672, 3.0012130737304688)" style="">
    <g id="g-47" transform="matrix(0.113087, 0, 0, 0.113087, 64.903336, 73.649956)" style="">
      <path fill="#000" d="M36 64.0001C51.464 64.0001 64 51.4641 64 36.0001C64 20.5361 51.464 8.00012 36 8.00012C20.536 8.00012 8 20.5361 8 36.0001C8 51.4641 20.536 64.0001 36 64.0001Z" style="stroke-width: 18.2256px;"/>
    </g>
    <g id="g-48" transform="matrix(0.113087, 0, 0, 0.113087, 64.903336, 73.649956)" style="">
      <path fill="#3F3F3F" d="M36 64.0001C51.464 64.0001 64 51.4641 64 36.0001C64 20.5361 51.464 8.00012 36 8.00012C20.536 8.00012 8 20.5361 8 36.0001C8 51.4641 20.536 64.0001 36 64.0001Z" style="stroke-width: 18.2256px;"/>
    </g>
    <g id="g-49" transform="matrix(0.113087, 0, 0, 0.113087, 64.903336, 73.649956)" style="">
      <path fill="none" stroke="#000" stroke-linejoin="round" d="M36 64.0001C51.464 64.0001 64 51.4641 64 36.0001C64 20.5361 51.464 8.00012 36 8.00012C20.536 8.00012 8 20.5361 8 36.0001C8 51.4641 20.536 64.0001 36 64.0001Z" style="stroke-width: 18.2256px;"/>
    </g>
  </g>
  <g transform="matrix(0.7348180413246156, 0, 0, 0.7348180413246156, -37.68976593017578, 5.9971022605896)" style="">
    <g id="g-35" transform="matrix(0.113087, 0, 0, 0.113087, 64.903336, 73.649956)" style="">
      <path fill="#000" d="M36 64.0001C51.464 64.0001 64 51.4641 64 36.0001C64 20.5361 51.464 8.00012 36 8.00012C20.536 8.00012 8 20.5361 8 36.0001C8 51.4641 20.536 64.0001 36 64.0001Z" style="stroke-width: 18.2256px;"/>
    </g>
    <g id="g-36" transform="matrix(0.113087, 0, 0, 0.113087, 64.903336, 73.649956)" style="">
      <path fill="#3F3F3F" d="M36 64.0001C51.464 64.0001 64 51.4641 64 36.0001C64 20.5361 51.464 8.00012 36 8.00012C20.536 8.00012 8 20.5361 8 36.0001C8 51.4641 20.536 64.0001 36 64.0001Z" style="stroke-width: 18.2256px;"/>
    </g>
    <g id="g-37" transform="matrix(0.113087, 0, 0, 0.113087, 64.903336, 73.649956)" style="">
      <path fill="none" stroke="#000" stroke-linejoin="round" d="M36 64.0001C51.464 64.0001 64 51.4641 64 36.0001C64 20.5361 51.464 8.00012 36 8.00012C20.536 8.00012 8 20.5361 8 36.0001C8 51.4641 20.536 64.0001 36 64.0001Z" style="stroke-width: 18.2256px;"/>
    </g>
  </g>
  <g transform="matrix(0.7348180413246156, 0, 0, 0.7348180413246156, -21.285886764526367, 6.923932075500488)" style="">
    <g id="g-53" transform="matrix(0.113087, 0, 0, 0.113087, 64.903336, 73.649956)" style="">
      <path fill="#000" d="M36 64.0001C51.464 64.0001 64 51.4641 64 36.0001C64 20.5361 51.464 8.00012 36 8.00012C20.536 8.00012 8 20.5361 8 36.0001C8 51.4641 20.536 64.0001 36 64.0001Z" style="stroke-width: 18.2256px;"/>
    </g>
    <g id="g-54" transform="matrix(0.113087, 0, 0, 0.113087, 64.903336, 73.649956)" style="">
      <path fill="#3F3F3F" d="M36 64.0001C51.464 64.0001 64 51.4641 64 36.0001C64 20.5361 51.464 8.00012 36 8.00012C20.536 8.00012 8 20.5361 8 36.0001C8 51.4641 20.536 64.0001 36 64.0001Z" style="stroke-width: 18.2256px;"/>
    </g>
    <g id="g-55" transform="matrix(0.113087, 0, 0, 0.113087, 64.903336, 73.649956)" style="">
      <path fill="none" stroke="#000" stroke-linejoin="round" d="M36 64.0001C51.464 64.0001 64 51.4641 64 36.0001C64 20.5361 51.464 8.00012 36 8.00012C20.536 8.00012 8 20.5361 8 36.0001C8 51.4641 20.536 64.0001 36 64.0001Z" style="stroke-width: 18.2256px;"/>
    </g>
  </g>
  <g transform="matrix(0.7348180413246156, 0, 0, 0.7348180413246156, -25.699254989624023, 6.3296308517456055)" style="">
    <g id="g-38" transform="matrix(0.113087, 0, 0, 0.113087, 64.903336, 73.649956)" style="">
      <path fill="#000" d="M36 64.0001C51.464 64.0001 64 51.4641 64 36.0001C64 20.5361 51.464 8.00012 36 8.00012C20.536 8.00012 8 20.5361 8 36.0001C8 51.4641 20.536 64.0001 36 64.0001Z" style="stroke-width: 18.2256px;"/>
    </g>
    <g id="g-39" transform="matrix(0.113087, 0, 0, 0.113087, 64.903336, 73.649956)" style="">
      <path fill="#3F3F3F" d="M36 64.0001C51.464 64.0001 64 51.4641 64 36.0001C64 20.5361 51.464 8.00012 36 8.00012C20.536 8.00012 8 20.5361 8 36.0001C8 51.4641 20.536 64.0001 36 64.0001Z" style="stroke-width: 18.2256px;"/>
    </g>
    <g id="g-40" transform="matrix(0.113087, 0, 0, 0.113087, 64.903336, 73.649956)" style="">
      <path fill="none" stroke="#000" stroke-linejoin="round" d="M36 64.0001C51.464 64.0001 64 51.4641 64 36.0001C64 20.5361 51.464 8.00012 36 8.00012C20.536 8.00012 8 20.5361 8 36.0001C8 51.4641 20.536 64.0001 36 64.0001Z" style="stroke-width: 18.2256px;"/>
    </g>
  </g>
  <g transform="matrix(0.7348180413246156, 0, 0, 0.7348180413246156, -30.69504737854004, 6.165149211883545)" style="">
    <g id="g-29" transform="matrix(0.113087, 0, 0, 0.113087, 64.903336, 73.649956)" style="">
      <path fill="#000" d="M36 64.0001C51.464 64.0001 64 51.4641 64 36.0001C64 20.5361 51.464 8.00012 36 8.00012C20.536 8.00012 8 20.5361 8 36.0001C8 51.4641 20.536 64.0001 36 64.0001Z" style="stroke-width: 18.2256px;"/>
    </g>
    <g id="g-30" transform="matrix(0.113087, 0, 0, 0.113087, 64.903336, 73.649956)" style="">
      <path fill="#3F3F3F" d="M36 64.0001C51.464 64.0001 64 51.4641 64 36.0001C64 20.5361 51.464 8.00012 36 8.00012C20.536 8.00012 8 20.5361 8 36.0001C8 51.4641 20.536 64.0001 36 64.0001Z" style="stroke-width: 18.2256px;"/>
    </g>
    <g id="g-31" transform="matrix(0.113087, 0, 0, 0.113087, 64.903336, 73.649956)" style="">
      <path fill="none" stroke="#000" stroke-linejoin="round" d="M36 64.0001C51.464 64.0001 64 51.4641 64 36.0001C64 20.5361 51.464 8.00012 36 8.00012C20.536 8.00012 8 20.5361 8 36.0001C8 51.4641 20.536 64.0001 36 64.0001Z" style="stroke-width: 18.2256px;"/>
    </g>
  </g>
  <g transform="matrix(0.7348180413246156, 0, 0, 0.7348180413246156, -28.98810577392578, 4.12143087387085)" style="">
    <g id="g-50" transform="matrix(0.113087, 0, 0, 0.113087, 64.903336, 73.649956)" style="">
      <path fill="#000" d="M36 64.0001C51.464 64.0001 64 51.4641 64 36.0001C64 20.5361 51.464 8.00012 36 8.00012C20.536 8.00012 8 20.5361 8 36.0001C8 51.4641 20.536 64.0001 36 64.0001Z" style="stroke-width: 18.2256px;"/>
    </g>
    <g id="g-51" transform="matrix(0.113087, 0, 0, 0.113087, 64.903336, 73.649956)" style="">
      <path fill="#3F3F3F" d="M36 64.0001C51.464 64.0001 64 51.4641 64 36.0001C64 20.5361 51.464 8.00012 36 8.00012C20.536 8.00012 8 20.5361 8 36.0001C8 51.4641 20.536 64.0001 36 64.0001Z" style="stroke-width: 18.2256px;"/>
    </g>
    <g id="g-52" transform="matrix(0.113087, 0, 0, 0.113087, 64.903336, 73.649956)" style="">
      <path fill="none" stroke="#000" stroke-linejoin="round" d="M36 64.0001C51.464 64.0001 64 51.4641 64 36.0001C64 20.5361 51.464 8.00012 36 8.00012C20.536 8.00012 8 20.5361 8 36.0001C8 51.4641 20.536 64.0001 36 64.0001Z" style="stroke-width: 18.2256px;"/>
    </g>
  </g>
  <g transform="matrix(0.7348180413246156, 0, 0, 0.7348180413246156, -33.14177322387695, 6.654582977294922)" style="">
    <g id="g-41" transform="matrix(0.113087, 0, 0, 0.113087, 64.903336, 73.649956)" style="">
      <path fill="#000" d="M36 64.0001C51.464 64.0001 64 51.4641 64 36.0001C64 20.5361 51.464 8.00012 36 8.00012C20.536 8.00012 8 20.5361 8 36.0001C8 51.4641 20.536 64.0001 36 64.0001Z" style="stroke-width: 18.2256px;"/>
    </g>
    <g id="g-42" transform="matrix(0.113087, 0, 0, 0.113087, 64.903336, 73.649956)" style="">
      <path fill="#3F3F3F" d="M36 64.0001C51.464 64.0001 64 51.4641 64 36.0001C64 20.5361 51.464 8.00012 36 8.00012C20.536 8.00012 8 20.5361 8 36.0001C8 51.4641 20.536 64.0001 36 64.0001Z" style="stroke-width: 18.2256px;"/>
    </g>
    <g id="g-43" transform="matrix(0.113087, 0, 0, 0.113087, 64.903336, 73.649956)" style="">
      <path fill="none" stroke="#000" stroke-linejoin="round" d="M36 64.0001C51.464 64.0001 64 51.4641 64 36.0001C64 20.5361 51.464 8.00012 36 8.00012C20.536 8.00012 8 20.5361 8 36.0001C8 51.4641 20.536 64.0001 36 64.0001Z" style="stroke-width: 18.2256px;"/>
    </g>
  </g>
  <g transform="matrix(0.7348180413246156, 0, 0, 0.7348180413246156, -41.336891174316406, 5.8357391357421875)" style="">
    <g id="g-44" transform="matrix(0.113087, 0, 0, 0.113087, 64.903336, 73.649956)" style="">
      <path fill="#000" d="M36 64.0001C51.464 64.0001 64 51.4641 64 36.0001C64 20.5361 51.464 8.00012 36 8.00012C20.536 8.00012 8 20.5361 8 36.0001C8 51.4641 20.536 64.0001 36 64.0001Z" style="stroke-width: 18.2256px;"/>
    </g>
    <g id="g-45" transform="matrix(0.113087, 0, 0, 0.113087, 64.903336, 73.649956)" style="">
      <path fill="#3F3F3F" d="M36 64.0001C51.464 64.0001 64 51.4641 64 36.0001C64 20.5361 51.464 8.00012 36 8.00012C20.536 8.00012 8 20.5361 8 36.0001C8 51.4641 20.536 64.0001 36 64.0001Z" style="stroke-width: 18.2256px;"/>
    </g>
    <g id="g-46" transform="matrix(0.113087, 0, 0, 0.113087, 64.903336, 73.649956)" style="">
      <path fill="none" stroke="#000" stroke-linejoin="round" d="M36 64.0001C51.464 64.0001 64 51.4641 64 36.0001C64 20.5361 51.464 8.00012 36 8.00012C20.536 8.00012 8 20.5361 8 36.0001C8 51.4641 20.536 64.0001 36 64.0001Z" style="stroke-width: 18.2256px;"/>
    </g>
  </g>
</svg>