<?xml version="1.0" encoding="utf-8"?>
<svg viewBox="0 0 72 72" xmlns="http://www.w3.org/2000/svg">
  <g transform="matrix(0.809017002583, -0.587785005569, 0.587785005569, 0.809017002583, 2.354746893739, -6.874112722401)" style="transform-origin: 33.6143px 38.0661px;">
    <g id="g-1">
      <path fill="#fff" fill-rule="evenodd" stroke-width="0" d="m34.46 20.63 8.395 0.1609 9.035 4.037c-2.104 3.297-19.32 7.674-26.09 0.1106z"/>
      <path fill="#fff" fill-rule="evenodd" stroke-width="0" d="m11.44 27.59 7.677 5.663-1.251 11.29c-5.338-7.938-2.193-7.998-10.62-16.39z"/>
      <path fill="#fff" fill-rule="evenodd" stroke-width="0" d="m19.61 29.12 24.84 2.985 2.639 23.31c-11.72 1.044-22.89 1.456-29.79-2.95z"/>
      <path fill="#d0cfce" d="m60.08 50.35c-1.663-7.488-1.856-16.36-2.695-23.85-0.8992-2.183-4.368-3.677-13.11-3.85 6.846 0.1808 7.639 1.312 7.639 3.042 0 1.853-6.112 2.406-13.65 2.406s-12.67-0.815-12.67-2.668c0-1.731 0.3384-2.647 7.184-2.827-10.44 0.2063-13.66 2.564-13.66 5.461 0 3.033 8.017 5.258 19.15 5.258 1.926 0 3.559-0.09773 5.286-0.2347l2.626 22v0.0039l1e-3 0.0068c0.05638 0.5061 0.4838 0.8892 0.9931 0.89 3.785-0.6651 7.676-1.066 11.15-2.782 1.284-0.648 1.914-1.425 1.763-2.855z"/>
    </g>
    <g id="g-2" fill="none" stroke="#000" stroke-linecap="round" stroke-linejoin="round" stroke-width="2">
      <path d="m26.91 31.33a56.83 56.83 0 0 0 11.38 1.055c2.161 0 4.236-0.1 6.165-0.2836l2.299 19.29"/>
      <path d="m32.29 22.65c-7.285 0.6737-12.52 2.539-12.52 4.735l-2.545 22.98a2.426 2.426 0 0 0 1.106 2.319c2.148 1.368 7.571 3.575 19.97 3.252 11.94-0.3118 17.41-2.133 19.72-3.298a2.442 2.442 0 0 0 1.339-2.451l-2.538-22.8c0-2.155-5.043-3.992-12.12-4.696"/>
      <path d="m44.72 22.74c4.001 0.5136 6.723 1.525 6.723 2.69 0 1.684-5.693 3.049-12.72 3.049s-12.71-1.365-12.71-3.049c0-1.123 2.532-2.104 6.302-2.633"/>
      <path d="m32.62 25.12v-1.476a3.614 3.614 0 0 1 3.614-3.614h4.987a3.614 3.614 0 0 1 3.614 3.614v1.782"/>
      <path d="m17.86 44.54-6.463-11.59a14.77 14.77 0 0 0-1.062-1.787l-3.14-2.687a0.1893 0.1893 0 0 1 0.0475-0.3287l4.192-0.5607 7.677 5.663"/>
    </g>
  </g>
  <g transform="matrix(-0.329570055008, -0.205937981606, -0.205937981606, 0.329570055008, -25.797792161089, -40.538178920319)" style="transform-origin: 63.6422px 87.2833px;">
    <g transform="matrix(1, 0, 0, 1, 29.440519, 50.912766)">
      <g id="g-5">
        <path fill="#b1cc33" d="M28.919,27.91c8.1523-6.8285,20.7734-4.925,20.7734-4.925S49.0929,35.8214,41.0678,42.44s-20.7734,4.9249-20.7734,4.9249S20.7668,34.738,28.919,27.91Z" style="stroke-width: 5.14639px;"/>
      </g>
      <g id="g-6">
        <path fill="none" stroke="#000" stroke-linecap="round" stroke-linejoin="round" d="M29.63,27.91c8.1523-6.8285,20.7734-4.925,20.7734-4.925S49.804,35.8214,41.7789,42.44s-20.7734,4.9249-20.7734,4.9249S21.4778,34.738,29.63,27.91Z" style="stroke-width: 5.14639px;"/>
        <line x1="18" x2="20.901" y1="50" y2="47.024" fill="none" stroke="#000" stroke-linecap="round" stroke-linejoin="round" style="stroke-width: 5.14639px;"/>
      </g>
    </g>
  </g>
  <g style="transform-origin: 63.6422px 87.2833px;" transform="matrix(0.772947788239, 0, 0, 0.772947788239, -13.492462270364, -37.249705477781)">
    <g transform="matrix(1, 0, 0, 1, 29.440519, 50.912766)">
      <g id="color">
        <path fill="#b1cc33" d="M28.919,27.91c8.1523-6.8285,20.7734-4.925,20.7734-4.925S49.0929,35.8214,41.0678,42.44s-20.7734,4.9249-20.7734,4.9249S20.7668,34.738,28.919,27.91Z" style="stroke-width: 2.5875px;"/>
      </g>
      <g id="line">
        <path fill="none" stroke="#000" stroke-linecap="round" stroke-linejoin="round" d="M29.63,27.91c8.1523-6.8285,20.7734-4.925,20.7734-4.925S49.804,35.8214,41.7789,42.44s-20.7734,4.9249-20.7734,4.9249S21.4778,34.738,29.63,27.91Z" style="stroke-width: 2.5875px;"/>
        <line x1="18" x2="20.901" y1="50" y2="47.024" fill="none" stroke="#000" stroke-linecap="round" stroke-linejoin="round" style="stroke-width: 2.5875px;"/>
      </g>
    </g>
  </g>
  <g transform="matrix(0.3726250231266022, 0, 0, 0.3726250231266022, 4.704039096832275, 39.80789184570312)" style="">
    <g id="g-3">
      <path fill="#FFFFFF" stroke="none" d="M19.9055,55.7995h32.1874C62.8891,49.3081,68,36.2917,68,20.7519H4 C4,36.2917,9.1109,49.3081,19.9055,55.7995z" style="stroke-width: 5.36733px;"/>
      <rect x="18.3238" y="29.4186" width="14.019" height="17.5238" fill="#b1cc33" stroke="none" style="stroke-width: 5.36733px;"/>
      <polygon fill="#5c9e31" stroke="none" points="31,30 21,47 23,46.9424 32.3429,46.9424 32,30" style="stroke-width: 5.36733px;"/>
    </g>
    <g id="g-4">
      <path fill="none" stroke="#000000" stroke-linecap="round" stroke-linejoin="round" stroke-miterlimit="10" d="M19.5,20.3161H4c0,15.5398,5.1109,28.5562,15.9055,35.0476h32.1874C62.8891,48.8723,68,35.8559,68,20.3161H31.5" style="stroke-width: 5.36733px;"/>
      <line x1="25.5" x2="25.3334" y1="20.5" y2="31.4186" fill="none" stroke="#000000" stroke-linecap="round" stroke-miterlimit="10" style="stroke-width: 5.36733px;"/>
      <rect x="18.3238" y="29.4186" width="14.019" height="17.5238" fill="none" stroke="#000000" stroke-linejoin="round" stroke-miterlimit="10" style="stroke-width: 5.36733px;"/>
    </g>
  </g>
</svg>