<?xml version="1.0" encoding="utf-8"?>
<!-- Generator: Adobe Illustrator 24.0.0, SVG Export Plug-In . SVG Version: 6.00 Build 0)  -->
<svg version="1.1" xmlns="http://www.w3.org/2000/svg" xmlns:xlink="http://www.w3.org/1999/xlink" x="0px" y="0px"
	 viewBox="0 0 256 256" enable-background="new 0 0 256 256" xml:space="preserve">
<g id="Layer_2">
</g>
<g id="Layer_1">
	<g>
	</g>
	<g>
		<path fill="#72C2E9" d="M240.515,23.047H15.485c-5.523,0-10,4.477-10,10v142.06c0,5.523,4.477,10,10,10h225.03
			c5.523,0,10-4.477,10-10V33.047C250.515,27.524,246.038,23.047,240.515,23.047z"/>
		
			<rect x="62.873" y="-2.535" transform="matrix(-1.836970e-16 1 -1 -1.836970e-16 232.0771 -23.9229)" fill="#EFEFEF" width="130.254" height="213.225"/>
		<polygon fill="#72C2E9" points="152.72,216.45 103.28,216.45 112.1,185.107 143.9,185.107 		"/>
		<polygon fill="#4BA5C8" points="146.48,194.28 109.52,194.28 112.1,185.107 143.9,185.107 		"/>
		<path fill="#F0C020" d="M171.167,97.641c0,14.735-7.397,27.774-18.699,35.554c-6.956,4.797-15.383,7.613-24.468,7.613
			s-17.512-2.806-24.468-7.603c-11.292-7.78-18.699-20.799-18.699-35.563c0-23.84,19.327-43.167,43.167-43.167
			S171.167,73.801,171.167,97.641z"/>
		<path fill="#7C7B7A" d="M140.823,82.088H115.56l0.006-7.31c0.002-2.459,1.996-4.452,4.455-4.452h13.035
			c1.581,0,3.139-0.382,4.54-1.114l5.445-2.843C145.795,71.867,144.645,78.016,140.823,82.088z"/>
		<path fill="#FFB69F" d="M128.189,104.018L128.189,104.018c-6.975,0-12.628-5.654-12.628-12.628v-9.302h25.257v9.302
			C140.817,98.364,135.163,104.018,128.189,104.018z"/>
		<path fill="#FC5D3D" d="M152.468,118.733v14.461c-6.956,4.797-15.383,7.613-24.468,7.613s-17.512-2.806-24.468-7.603v-14.471
			c0-8.123,6.593-14.716,14.716-14.716h19.503C145.875,104.018,152.468,110.61,152.468,118.733z"/>
		<path fill="#72C2E9" d="M175.75,226.45v6.5h-95.5v-6.5c0-5.52,4.48-10,10-10h75.5C171.27,216.45,175.75,220.93,175.75,226.45z"/>
		<g>
			<path fill="#F8E5B0" d="M150.662,124.825c-0.955-0.998-0.92-2.58,0.077-3.535c6.403-6.131,10.075-14.768,10.075-23.698
				c0-7.991-2.935-15.699-8.264-21.704c-0.916-1.033-0.822-2.613,0.211-3.529c1.033-0.917,2.613-0.822,3.529,0.211
				c6.142,6.921,9.524,15.808,9.524,25.022c0,10.287-4.234,20.24-11.617,27.309C153.2,125.857,151.617,125.822,150.662,124.825z"/>
		</g>
		<g>
			<path fill="#FFCBC3" d="M126.542,133.023c-0.042-1.38,1.043-2.533,2.423-2.575c8.171-0.247,15.902-3.498,21.768-9.152
				c0.996-0.958,2.578-0.929,3.535,0.064c0.958,0.994,0.929,2.577-0.064,3.535c-6.762,6.519-15.671,10.266-25.087,10.551
				C127.668,135.474,126.582,134.353,126.542,133.023z M118.51,134.259c-1.031-0.267-2.065-0.582-3.074-0.937
				c-1.302-0.458-1.986-1.886-1.527-3.188c0.458-1.302,1.885-1.986,3.188-1.527c0.875,0.308,1.771,0.581,2.664,0.812
				c1.337,0.346,2.141,1.709,1.795,3.046C121.209,133.806,119.841,134.603,118.51,134.259z"/>
		</g>
		<g>
			<path fill="#F8E5B0" d="M150.662,124.825c-0.955-0.998-0.92-2.58,0.077-3.535c6.403-6.131,10.075-14.768,10.075-23.698
				c0-7.991-2.935-15.699-8.264-21.704c-0.916-1.033-0.822-2.613,0.211-3.529c1.033-0.917,2.613-0.822,3.529,0.211
				c6.142,6.921,9.524,15.808,9.524,25.022c0,10.287-4.234,20.24-11.617,27.309C153.2,125.857,151.617,125.822,150.662,124.825z"/>
		</g>
		<g>
			<path fill="#FFCBC3" d="M126.542,133.023c-0.042-1.38,1.043-2.533,2.423-2.575c8.171-0.247,15.902-3.498,21.768-9.152
				c0.996-0.958,2.578-0.929,3.535,0.064c0.958,0.994,0.929,2.577-0.064,3.535c-6.762,6.519-15.671,10.266-25.087,10.551
				C127.668,135.474,126.582,134.353,126.542,133.023z M118.51,134.259c-1.031-0.267-2.065-0.582-3.074-0.937
				c-1.302-0.458-1.986-1.886-1.527-3.188c0.458-1.302,1.885-1.986,3.188-1.527c0.875,0.308,1.771,0.581,2.664,0.812
				c1.337,0.346,2.141,1.709,1.795,3.046C121.209,133.806,119.841,134.603,118.51,134.259z"/>
		</g>
		<path d="M128,143.31c24.939,0,45.67-20.197,45.67-45.67c0-25.256-20.482-45.67-45.67-45.67c-15.706,0-30.247,8.065-38.59,21.24
			c-0.74,1.16-0.39,2.71,0.77,3.45c1.14,0.72,2.74,0.35,3.45-0.77C101.15,64.04,114,56.97,128,56.97
			c22.483,0,40.67,18.197,40.67,40.67c0,11.71-5.048,22.761-13.702,30.432v-9.338c0-8.963-6.887-16.34-15.646-17.136
			c2.472-2.694,3.996-6.272,3.996-10.208v-8.373c4.13-5.006,4.928-11.835,1.962-17.766c-0.63-1.261-2.163-1.729-3.4-1.1L136.44,67
			c-1.04,0.54-2.21,0.83-3.38,0.83h-13.04c-3.83,0-6.95,3.12-6.95,6.95v16.609c0,3.927,1.507,7.498,3.97,10.19
			c-8.929,0.625-16.007,8.07-16.007,17.155v9.345C92.378,120.402,87.33,109.35,87.33,97.64c0-1.39,0.07-2.77,0.21-4.11
			c0.127-1.404-0.88-2.598-2.24-2.74c-1.37-0.13-2.6,0.88-2.74,2.24c-0.15,1.52-0.23,3.07-0.23,4.61
			C82.33,122.848,102.789,143.31,128,143.31z M118.061,91.389V84.59h20.257v6.799c0,5.585-4.543,10.129-10.128,10.129
			S118.061,96.974,118.061,91.389z M120.02,72.82h13.04c1.97,0,3.94-0.48,5.69-1.39l2.95-1.54c0.905,3.428,0.063,7.021-2.028,9.697
			H118.06l0.01-4.807C118.07,73.7,118.94,72.83,120.02,72.82z M118.248,106.518h19.504c6.736,0,12.216,5.48,12.216,12.216v13.123
			c-0.001,0-0.001,0.001-0.002,0.001c-6.406,4.126-13.983,6.45-21.966,6.45c-7.487,0-15.067-2.033-21.968-6.442v-13.132
			C106.032,111.998,111.512,106.518,118.248,106.518z"/>
		<path d="M86.37,85.9c1.399,0.468,2.762-0.306,3.18-1.55c0.01,0,0.01-0.01,0.01-0.01c0.44-1.3-0.25-2.72-1.55-3.17
			c-1.28-0.44-2.74,0.28-3.18,1.55C84.38,84.009,85.047,85.438,86.37,85.9z"/>
		<path d="M144.593,150.7h-50c-1.381,0-2.5,1.119-2.5,2.5s1.119,2.5,2.5,2.5h50c1.381,0,2.5-1.119,2.5-2.5
			S145.974,150.7,144.593,150.7z"/>
		<path d="M161.407,150.7h-6.814c-1.381,0-2.5,1.119-2.5,2.5s1.119,2.5,2.5,2.5h6.814c1.381,0,2.5-1.119,2.5-2.5
			S162.788,150.7,161.407,150.7z"/>
		<path d="M21.388,36.45c-1.381,0-2.5,1.119-2.5,2.5v130.254c0,1.381,1.119,2.5,2.5,2.5h213.225c1.381,0,2.5-1.119,2.5-2.5V38.95
			c0-1.381-1.119-2.5-2.5-2.5H21.388z M232.112,166.704H23.888V41.45h208.225V166.704z"/>
		<path d="M240.52,20.55H15.49c-6.9,0-12.5,5.61-12.51,12.5v142.06c0.01,6.89,5.61,12.5,12.51,12.5h93.309l-7.412,26.34H90.25
			c-6.89,0-12.5,5.61-12.5,12.5v6.5c0,1.366,1.111,2.5,2.5,2.5h12c1.38,0,2.5-1.12,2.5-2.5c0-1.38-1.12-2.5-2.5-2.5h-9.5v-4
			c0.01-4.13,3.37-7.49,7.5-7.5c15.783,0,57.621,0,75.5,0c4.13,0.01,7.49,3.37,7.5,7.5v4h-61c-1.38,0-2.5,1.12-2.5,2.5
			c0,1.38,1.12,2.5,2.5,2.5h63.5c1.402,0,2.5-1.132,2.5-2.5v-6.5c0-6.89-5.61-12.5-12.5-12.5h-11.136l-7.412-26.34h93.319
			c6.89,0,12.49-5.61,12.49-12.5v-40.74c0-1.38-1.12-2.5-2.49-2.5c-1.38,0-2.5,1.12-2.5,2.5v40.74c-0.01,4.13-3.38,7.49-7.5,7.5
			c-14.07,0-222.148,0-225.03,0c-4.13-0.01-7.5-3.37-7.51-7.5V33.05c0.01-4.13,3.38-7.5,7.51-7.5h225.03c4.12,0,7.49,3.37,7.5,7.5
			v81.32c0,1.38,1.12,2.5,2.5,2.5c1.37,0,2.5-1.12,2.5-2.5c0,0,0-0.01-0.01-0.01V33.05C253.01,26.16,247.41,20.55,240.52,20.55z
			 M149.419,213.95h-42.838l7.412-26.34h28.014L149.419,213.95z"/>
		<path d="M250.52,121.87c-1.38,0-2.5,1.12-2.5,2.5s1.12,2.5,2.5,2.5c1.37,0,2.49-1.12,2.49-2.5S251.89,121.87,250.52,121.87z"/>
		<circle cx="102.25" cy="232.95" r="2.5"/>
	</g>
</g>
</svg>
