<?xml version="1.0" encoding="utf-8"?>
<svg viewBox="0 0 72 72" xmlns="http://www.w3.org/2000/svg">
  <g id="hair"/>
  <g id="skin"/>
  <g id="skin-shadow"/>
  <g transform="matrix(0.918013095856, -0.178444027901, 0.178444027901, 0.918013095856, 66.408858216368, -28.744943097002)" style="transform-origin: -23.3758px 52.4411px;">
    <g id="color" transform="matrix(1, 0, 0, 1, -59.108082, 16.460758)">
      <path fill="#186648" d="M27.037,53.4838a16.0022,16.0022,0,0,1-5.4986-6.1161,22.0193,22.0193,0,0,0-3.0177-4.7918,22.81,22.81,0,0,1-3.6337-4.884,8.6843,8.6843,0,0,1-.5067-6.3365c1.4818-4.5742,6.846-4.2015,9.41-7.6226.8955-1.1949,1.5355-2.5609,2.3746-3.7961a9.4526,9.4526,0,0,1,3.67-3.329,5.7439,5.7439,0,0,1,4.85-.1308c.8966.4286,1.6411,1.1316,2.5417,1.5515,1.5467.7212,2.841.1193,4.3856-.1813a10.5144,10.5144,0,0,1,5.1505.1624,6.5606,6.5606,0,0,1,4.6453,5.0269c.1549,1.101-.0431,2.2232.0433,3.3322.2619,3.3584,3.6647,4.6279,5.1839,7.3053a7.6378,7.6378,0,0,1,.5229,5.5734c-.4983,2.004-1.8063,3.665-2.4351,5.6156-.5354,1.6607.1015,3.2129-.1266,4.8834a5.4242,5.4242,0,0,1-1.25,2.6141,9.4833,9.4833,0,0,1-9.4873,3.1522c-1.5994-.4068-3.1893-1.2892-4.8818-1.2041-1.4705.0739-2.77,1.0833-4.2687,1.3172a9.5436,9.5436,0,0,1-4.9014-.7116A15.28,15.28,0,0,1,27.037,53.4838Z"/>
      <path fill="#5c9e31" d="M26.8756,54.2283a10.1828,10.1828,0,0,1-3.6827-4.7245,15.2339,15.2339,0,0,0-1.93-3.7836,15.1262,15.1262,0,0,1-2.38-3.8209,7.8454,7.8454,0,0,1,.0275-5.2247c1.3878-3.8889,5.3361-3.9206,7.4521-6.9218.7391-1.0482,1.3-2.2221,2-3.3a9.3115,9.3115,0,0,1,2.9288-2.995,3.95,3.95,0,0,1,3.5993-.4168c.6366.2986,1.1431.8345,1.7833,1.1257,1.0994.5,2.096-.0816,3.2589-.4291a6.9765,6.9765,0,0,1,3.8033-.1926,4.2278,4.2278,0,0,1,3.12,3.8751c.0447.9036-.1732,1.8472-.18,2.7617-.02,2.77,2.4195,3.6065,3.3742,5.7312a6.8515,6.8515,0,0,1,.033,4.59c-.4964,1.6942-1.57,3.1553-2.16,4.8135-.502,1.4118-.129,2.6591-.4041,4.0594a5.6666,5.6666,0,0,1-1.0917,2.2481c-1.813,2.4111-4.7545,3.7212-7.2252,3.2181-1.1584-.2359-2.2795-.8669-3.5382-.6888-1.0935.1548-2.12,1.0748-3.2444,1.3641a6.0141,6.0141,0,0,1-3.584-.2789A8.8759,8.8759,0,0,1,26.8756,54.2283Z"/>
      <path fill="#b1cc33" d="M22.4273,48.5436c.6659-1.1209,3.6558.55,4.3767.8332a1.8664,1.8664,0,0,0,.7679.1814,1.7769,1.7769,0,0,0,1.1119-.6813,27.4586,27.4586,0,0,0,3.046-4.138A128.562,128.562,0,0,0,38.24,33.204,3.1273,3.1273,0,0,1,39.32,31.7927c2.6713-1.551-.3944,5.5186-.6993,6.1674-1.2658,2.6943-2.6557,5.3278-4.0929,7.9341-1.0574,1.9176-3.6009,4.6059-2.0948,6.8366a7.7554,7.7554,0,0,0,2.2092,1.9425c.4249.2867.82.4833,1.013.9023-1.5271.9373-4.5053-.0723-6.0293-.66C25.235,53.22,21.9,49.4383,22.4273,48.5436Z"/>
      <path fill="none" stroke="#b1cc33" stroke-linecap="round" stroke-linejoin="round" stroke-width="2" d="M33.43,34.0271a22.19,22.19,0,0,0,2.3317,5.8291"/>
      <path fill="none" stroke="#b1cc33" stroke-linecap="round" stroke-linejoin="round" stroke-width="2" d="M29.9324,38.69A22.1993,22.1993,0,0,0,32.2641,44.52"/>
      <path fill="none" stroke="#b1cc33" stroke-linecap="round" stroke-linejoin="round" stroke-width="2" d="M43.2706,40.172a22.197,22.197,0,0,1-6.2764.1482"/>
      <path fill="none" stroke="#b1cc33" stroke-linecap="round" stroke-linejoin="round" stroke-width="2" d="M40.3581,45.2214a22.197,22.197,0,0,1-6.2764.1482"/>
    </g>
    <g id="line" transform="matrix(1, 0, 0, 1, -59.108082, 16.460758)">
      <path fill="none" stroke="#000" stroke-linecap="round" stroke-linejoin="round" stroke-width="2" d="M27.037,53.4838a16.0022,16.0022,0,0,1-5.4986-6.1161,22.0193,22.0193,0,0,0-3.0177-4.7918,22.81,22.81,0,0,1-3.6337-4.884,8.6843,8.6843,0,0,1-.5067-6.3365c1.4818-4.5742,6.846-4.2015,9.41-7.6226.8955-1.1949,1.5355-2.5609,2.3746-3.7961a9.4526,9.4526,0,0,1,3.67-3.329,5.7439,5.7439,0,0,1,4.85-.1308c.8966.4286,1.6411,1.1316,2.5417,1.5515,1.5467.7212,2.841.1193,4.3856-.1813a10.5144,10.5144,0,0,1,5.1505.1624,6.5606,6.5606,0,0,1,4.6453,5.0269c.1549,1.101-.0431,2.2232.0433,3.3322.2619,3.3584,3.6647,4.6279,5.1839,7.3053a7.6378,7.6378,0,0,1,.5229,5.5734c-.4983,2.004-1.8063,3.665-2.4351,5.6156-.5354,1.6607.1015,3.2129-.1266,4.8834a5.4242,5.4242,0,0,1-1.25,2.6141,9.4833,9.4833,0,0,1-9.4873,3.1522c-1.5994-.4068-3.1893-1.2892-4.8818-1.2041-1.4705.0739-2.77,1.0833-4.2687,1.3172a9.5436,9.5436,0,0,1-4.9014-.7116A15.28,15.28,0,0,1,27.037,53.4838Z"/>
    </g>
  </g>
  <g transform="matrix(-0.930073022842, -0.097754001617, -0.097754001617, 0.930073022842, -4.651144039338, -75.876078438618)" style="transform-origin: 33.1245px 107.853px;">
    <g id="g-7" transform="matrix(1, 0, 0, 1, -3.244608, 72.350739)">
      <path fill="#8967AA" stroke="#8967AA" stroke-linecap="round" stroke-linejoin="round" stroke-miterlimit="10" stroke-width="2" d="M60.62,23.81C60.85,35.44,57.21,45.79,51.5,51c-0.1,0.1-0.19,0.2-0.3,0.3c-0.2,0.21-0.4,0.42-0.62,0.62 c-0.3,0.29-0.61,0.58-0.93,0.86c-0.36,0.33-0.73,0.64-1.11,0.95c-0.18,0.15-0.37,0.29-0.56,0.44c-0.55,0.43-1.11,0.84-1.69,1.23 c-0.21,0.14-0.41,0.28-0.62,0.41c-6.09,3.93-13.56,5.84-21.26,5c-0.8-0.09-1.61-0.21-2.41-0.37c-1.18-0.27-2.28-0.68-3.31-1.2 c35.9-0.26,32.7225-32.51,32.6225-35.74L60.62,23.81z"/>
      <path fill="#B399C8" stroke="#B399C8" stroke-linecap="round" stroke-linejoin="round" stroke-miterlimit="10" stroke-width="2" d="M43.34,22.61l-0.25-0.02C43.2,22.46,43.29,22.47,43.34,22.61z"/>
      <path fill="#B399C8" stroke="#B399C8" stroke-linecap="round" stroke-linejoin="round" stroke-miterlimit="10" stroke-width="2" d="M18.69,59.24c-0.1-0.04-0.2-0.09-0.29-0.14c-5.33-2.86-8.39-8.83-7.12-14.91C12.85,36.67,20.41,31.81,28.15,33.33 c0,0,8.1,2.63,13.35-3.8c1.79-2.19,2.18-6.21,1.84-6.92l10.8,0.75l-2.9525-1.4225C51.2875,25.1675,54.59,58.98,18.69,59.24z"/>
      <path fill="#5C9E31" stroke="#5C9E31" stroke-linecap="round" stroke-linejoin="round" stroke-miterlimit="10" stroke-width="2" d="M61.69,26.22c0,0-3.72,0.53-6.8-1.81c-0.54,3.78-3.52,6.01-3.52,6.01s-2.97-2.23-3.51-6.01c-0.71,0.54-1.46,0.93-2.19,1.2 c-2.42,0.92-4.62,0.61-4.62,0.61s-0.63-4.47,2.55-7.66c0.65-0.66,1.36-1.15,2.07-1.52c2.76-1.44,10.28-1.68,13.48,1.52 C62.34,21.75,61.69,26.22,61.69,26.22z"/>
      <path fill="#B1CC33" stroke="none" d="M51.37,30.42c0,0-2.97-2.23-3.51-6.01c-0.71,0.54-1.46,0.93-2.19,1.2c-2.42,0.92-4.62,0.61-4.62,0.61 s-0.63-4.47,2.55-7.66c0.65-0.66,1.36-1.15,2.07-1.52C48.43,15.6,51.26,16,51.26,16L51.37,30.42z"/>
    </g>
    <g id="g-8" transform="matrix(1, 0, 0, 1, -3.244608, 72.350739)">
      <path fill="none" stroke="#000000" stroke-linecap="round" stroke-linejoin="round" stroke-miterlimit="10" stroke-width="2" d="M60.2755,30.4183c-0.0991,1.8395-0.539,3.8125-0.9248,5.6459C56.0433,51.986,40.7433,62.5965,24.4143,60.8059 c-0.8085-0.0847-1.617-0.2057-2.4133-0.3629c-7.4724-1.718-12.2498-8.9046-10.7186-16.2485 c1.568-7.5253,9.1261-12.389,16.868-10.8646c0,0,7.7474,1.9693,12.8504-3.1818"/>
      <path fill="none" stroke="#000000" stroke-linecap="round" stroke-linejoin="round" stroke-miterlimit="10" stroke-width="2" d="M50.7929,11.9832C50.1897,10.9538,49.0717,10,47,10"/>
      <path fill="none" stroke="#000000" stroke-linecap="round" stroke-linejoin="round" stroke-miterlimit="10" stroke-width="2" d="M61.69,26.22c0,0-3.72,0.53-6.8-1.81c-0.54,3.78-3.52,6.01-3.52,6.01s-2.97-2.23-3.51-6.01c-0.71,0.54-1.46,0.93-2.19,1.2 c-2.42,0.92-4.62,0.61-4.62,0.61s-0.63-4.47,2.55-7.66c0.65-0.66,1.36-1.15,2.07-1.52c2.76-1.44,10.28-1.68,13.48,1.52 C62.34,21.75,61.69,26.22,61.69,26.22z"/>
      <path fill="none" stroke="#000000" stroke-linecap="round" stroke-linejoin="round" stroke-miterlimit="10" stroke-width="2" d="M41.0008,30.1481c0.1285-0.1297,0.2554-0.264,0.3803-0.4029"/>
    </g>
  </g>
  <g transform="matrix(0.908659100533, 0, 0, 0.908659100533, 34.251272244949, 42.407125309105)" style="transform-origin: 18.8128px 3.85035px;">
    <g id="g-1" transform="matrix(1, 0, 0, 1, -17.12991, -34.617302)">
      <path fill="#d22f27" d="M53.9507,31.1549c-.3554-1.9814-2.1-5.7285-6.1552-5.7285a8.6992,8.6992,0,0,0-5.9731,2.572,8.0125,8.0125,0,0,0-6.0064-2.571A7.0467,7.0467,0,0,0,30.51,28.4456a8.911,8.911,0,0,0-6.4169-3.0192c-4.0566,0-5.8008,3.7471-6.165,5.7871-.0821.6856-1.9307,16.916,4.626,26.2656,2.0908,2.9825,4.1464,4.4893,6.1181,4.4893a3.9652,3.9652,0,0,0,.5576-.04,4.7914,4.7914,0,0,0,2.9529-1.846,6.4133,6.4133,0,0,0,4.1477,1.9651c.04.001.0791.002.1182.002a5.6842,5.6842,0,0,0,3.67-1.5066,4.4908,4.4908,0,0,0,2.5389,1.3855,3.9652,3.9652,0,0,0,.5576.04c1.9717,0,4.0283-1.5068,6.1191-4.4893C55.89,48.13,54.0416,31.8991,53.9507,31.1549Z"/>
      <path fill="none" stroke="#000" stroke-linecap="round" stroke-linejoin="round" stroke-width="2" d="M28.6179,28.0637c2.8366-4.1894,6.2058-4.39,6.2058-4.39S33.921,14.9711,40.8224,16a11.3515,11.3515,0,0,1,4.2183,1.6255,1.991,1.991,0,0,1,.2244,3.0754h0a2.0116,2.0116,0,0,1-2.4077.2618c-1.695-.984-4.5364-2.0851-4.6067,2.9516,0,0,3.7983,1.4249,5.6393,3.7109"/>
      <path fill="#B1CC33" d="M40.0124,21.2243c.2412-.1377.8682-.2412,2.336.6114a2.9981,2.9981,0,0,0,4.5224-2.8213A2.9473,2.9473,0,0,0,45.6,16.8083a12.3468,12.3468,0,0,0-4.6367-1.79,5.7074,5.7074,0,0,0-5.04,1.332c-1.93,1.8447-2.16,4.97-2.1455,6.5166a10.7849,10.7849,0,0,0-5.9536,4.588l-.0044.0038-.0031.0062c-.0112.0164-.0229.0291-.0341.0456a.9542.9542,0,0,0-.0634.1517,1.002,1.002,0,0,0-.0776.1858.9718.9718,0,0,0-.0123.1874.5908.5908,0,0,0,.0573.3679.968.968,0,0,0,.0737.1832,1.0022,1.0022,0,0,0,.1252.1448.9451.9451,0,0,0,.113.1307,9.58,9.58,0,0,1,1.792,1.837l.0019.0015a.9922.9922,0,0,0,.3008.27c.0134.0078.0281.01.0417.0173.0183.0095.0367.0147.0555.023a.9942.9942,0,0,0,.4028.0945l.0019,0,.001,0,.0135-.0021a1.0047,1.0047,0,0,0,.266-.0418c.0306-.009.0588-.024.0887-.0359a.992.992,0,0,0,.1786-.0919c.0147-.01.0317-.013.046-.0236s.0189-.0244.0313-.0345a.98.98,0,0,0,.2108-.2324c.0081-.0127.02-.0227.0275-.0357l.0009-.0011c.8106-1.4,2.2373-3.09,4.4336-3.1836a6.4423,6.4423,0,0,1,4.9715,2.4479.9782.9782,0,0,0,.258.3695.999.999,0,0,0,1.41-.1016,9.1827,9.1827,0,0,1,1.7813-1.5937c.0261-.0176.04-.0448.0634-.0642a.9449.9449,0,0,0,.1329-.0687,1.0005,1.0005,0,0,0,.1523-1.4062,15.2218,15.2218,0,0,0-5.39-3.74C39.3913,21.7488,39.8171,21.3347,40.0124,21.2243Z"/>
      <path fill="#781e32" d="M22.582,57.4691c2.11,3.0088,4.1045,4.4775,6.0977,4.4892h.0224a4.759,4.759,0,0,0,3.8213-2.2763c.0139-.0192.0158-.0422.0281-.062a1.4667,1.4667,0,0,0,.1376-.3627.8738.8738,0,0,0-.0756-.5513.9514.9514,0,0,0-.0948-.18.3092.3092,0,0,1-.0324-.0613c-6.7533-16.0871-1.1007-27.8005-1.0284-27.98.009-.0227.0053-.0461.0125-.069a1.083,1.083,0,0,0-.0633-.7567c-.0112-.0216-.0114-.0458-.0244-.0669-.1133-.1856-3.0047-4.1762-7.2616-4.1762-4.0557,0-5.8,3.7471-6.1553,5.7286C17.875,31.889,16.0263,48.12,22.582,57.4691Z"/>
    </g>
    <g id="g-2" transform="matrix(1, 0, 0, 1, -17.12991, -34.617302)">
      <path fill="none" stroke="#000" stroke-linecap="round" stroke-linejoin="round" stroke-width="2" d="M30.6019,30.0979c-.7559-1.026-3.0468-3.6815-6.5091-3.6815-4.2913,0-5.1713,4.9052-5.1713,4.9052s-1.9612,16.43,4.4506,25.573c4.5587,6.5009,7.4164,3.7576,8.6874,1.6289"/>
      <path fill="none" stroke="#000" stroke-linecap="round" stroke-linejoin="round" stroke-width="2" d="M41.0119,30.4958s2.4917-4.0794,6.783-4.0794,5.1713,4.9052,5.1713,4.9052,1.9612,16.43-4.4506,25.573c-4.1538,5.9235-6.8953,4.172-8.3111,2.2038"/>
      <path fill="none" stroke="#000" stroke-linecap="round" stroke-linejoin="round" stroke-width="2" d="M41.635,29.2141a7.6351,7.6351,0,0,0-5.7767-2.7977c-4.1168.1745-5.8558,4.9052-5.8558,4.9052a37.9215,37.9215,0,0,0-1.8073,12.3659"/>
      <path fill="none" stroke="#000" stroke-linecap="round" stroke-linejoin="round" stroke-width="2" d="M30.3566,57.31c.8186,0,1.7025,1.2132,1.7025,1.2132,3.6354,4.1062,6.4076,2.3556,8.148.5733,0,0,1.2724-1.7865,2.38-1.7865"/>
      <path fill="none" stroke="#000" stroke-linecap="round" stroke-linejoin="round" stroke-width="2" d="M30.4581,25.9a7.7934,7.7934,0,0,1,4.3656-2.226S33.921,14.9711,40.8224,16a11.3515,11.3515,0,0,1,4.2183,1.6255,1.991,1.991,0,0,1,.2244,3.0754h0a2.0116,2.0116,0,0,1-2.4077.2618c-1.695-.984-4.5364-2.0851-4.6067,2.9516a18.9983,18.9983,0,0,1,3.5351,1.8505"/>
    </g>
  </g>
  <g transform="matrix(0.37773501873, -0.176141023636, 0.176141023636, 0.37773501873, 17.639008943205, 8.757479261572)" style="transform-origin: -4.33481px 45.9705px;">
    <g id="g-5" transform="matrix(1, 0, 0, 1, -40.334812, 7.611881)">
      <path fill="#fff" d="M41.8312,61.958a3.7524,3.7524,0,0,1-.4794-.0293H29.6545a3.8959,3.8959,0,0,1-2.9776-.9873,1.987,1.987,0,0,1-.5449-1.456l-.0039-11.7276a1,1,0,0,1,1-1H43.6789a1,1,0,0,1,1,1v11.45a2.6241,2.6241,0,0,1-.8916,2.1133A3.0431,3.0431,0,0,1,41.8312,61.958ZM28.1281,59.5664v.0049l.001.001Z" style="stroke-width: 4.48767px;"/>
      <path fill="#d0cfce" d="M43.6789,46.7578H38.8566V61.9287h2.4952a3.7524,3.7524,0,0,0,.4794.0293,3.0431,3.0431,0,0,0,1.9561-.6367,2.6241,2.6241,0,0,0,.8916-2.1133v-11.45A1,1,0,0,0,43.6789,46.7578Z" style="stroke-width: 4.48767px;"/>
      <path fill="#a57939" d="M36,48.7578c-13.3711,0-26,0-26-10,0-9.4775,11.6475-24,26-24s26,14.5225,26,24C62,48.7578,49.3713,48.7578,36,48.7578Z" style="stroke-width: 4.48767px;"/>
      <path fill="#6a462f" d="M36,14.7578a21.8545,21.8545,0,0,0-4.9365.5776c11.9931,2.7761,21.0632,15.06,21.0632,23.4224,0,8.755-9.68,9.8449-21.0632,9.9807,1.6189.0193,3.2717.0193,4.9365.0193,13.3711,0,26,0,26-10C62,29.28,50.3527,14.7578,36,14.7578Z" style="stroke-width: 4.48767px;"/>
    </g>
    <g id="g-6" transform="matrix(1, 0, 0, 1, -40.334812, 7.611881)">
      <path fill="none" stroke="#000" stroke-linecap="round" stroke-linejoin="round" d="M27.1284,51.5319v8.0389s-.1171,1.358,2.5264,1.358H41.4242s2.2545.3973,2.2545-1.72V51.5318" style="stroke-width: 4.48767px;"/>
      <path fill="none" stroke="#000" stroke-linecap="round" stroke-linejoin="round" d="M61,38.7581c0,8.8366-11.1929,9-25,9s-25-.1634-25-9,11.1929-23,25-23S61,29.9215,61,38.7581Z" style="stroke-width: 4.48767px;"/>
      <path fill="none" stroke="#000" stroke-linecap="round" stroke-linejoin="round" d="M61,38.7581c0,8.8366-11.1929,9-25,9s-25-.1634-25-9,11.1929-23,25-23S61,29.9215,61,38.7581Z" style="stroke-width: 4.48767px;"/>
    </g>
  </g>
  <g transform="matrix(0.69229799509, 0.122069999576, -0.122069999576, 0.69229799509, -6.185617284324, 59.070916608963)" style="transform-origin: 37.7177px -10.7529px;">
    <g style="transform-origin: 37.7177px -10.7529px;" transform="matrix(0.894298, -0.015611, 0.015611, 0.894298, 2.162419, 2.326699)">
      <g id="g-3" transform="matrix(1, 0, 0, 1, 1.491126, -46.398521)" style="transform-origin: 36.2265px 34.946px;">
        <g>
          <path fill="#f4aa41" d="M38.4912,16.7851l.0168-.0011a3.5657,3.5657,0,0,1-1.9173-4.5094l-3.0652,1.94L31.88,16.2681s.1379.7632-.0658.7984C20.8294,18.9628,12.5172,27.7978,12.5172,38.418c0,12.0034,10.6151,21.734,23.7094,21.734s23.7093-9.7306,23.7093-21.734C59.9359,27.1151,50.5227,17.8306,38.4912,16.7851Z" style="stroke-width: 2.66067px; transform-box: fill-box; transform-origin: 50% 50%;" transform="matrix(1, 0, 0, 1, 0.000001907349, -0.000001907349)"/>
          <path fill="#e27022" d="M37.3583,9.74s-2.4851,5.7564.5827,7.2051l-.0168.001c12.0316,1.0456,21.4447,10.33,21.4447,21.633,0,12.0033-10.615,20.4085-23.7093,20.4085,0,0,8.0283-1.9112,13.0787-8.4973,4.3078-5.6179,6.3119-13.7888.813-23.2031-1.9052-3.2618-6.2748-6.9157-11.8291-8.5751-.1088-.0325-1.4118-.6586-1.4956-.7352-.4363-.3985-.7207-1.5541-.567-4.0836A9.8024,9.8024,0,0,1,37.3583,9.74Z" style="stroke-width: 2.66067px;"/>
        </g>
      </g>
      <g id="g-4" transform="matrix(1, 0, 0, 1, 1.491126, -46.398521)">
        <g>
          <path fill="none" stroke="#000" stroke-linecap="round" stroke-linejoin="round" d="M34.4166,14.6311l4.3043-6.1339a20.0263,20.0263,0,0,0-1.22,2.2393c-2.7869,6.1037,2.1232,6.3747,2.1232,6.3747C51.1091,18.61,59.9359,27.59,59.9359,38.4438c0,11.9029-10.615,21.5522-23.7093,21.5522S12.5173,50.3467,12.5173,38.4438c0-8.2317,5.0767-15.3855,12.5394-19.0154a24.8313,24.8313,0,0,1,3.0884-1.2525q.1238-.0406.2481-.08.1619-.0515.3249-.1009a25.4857,25.4857,0,0,1,3.2831-.7619" style="stroke-width: 2.66067px;"/>
          <path fill="none" stroke="#000" stroke-linecap="round" stroke-linejoin="round" d="M35.9929,60.2041l-5.797,2.59Z" style="stroke-width: 2.66067px;"/>
          <polyline fill="none" stroke="#000" stroke-linecap="round" stroke-linejoin="round" points="40.931 62.794 35.993 60.204 35.993 62.794" style="stroke-width: 2.66067px;"/>
          <path fill="none" stroke="#000" stroke-linecap="round" stroke-linejoin="round" d="M32.3755,53.4552c-2.33-2.343-3.9821-8.237-3.9821-15.1375,0-5.8044,1.1693-10.8967,2.9272-13.7624" style="stroke-width: 2.66067px;"/>
          <path fill="none" stroke="#000" stroke-linecap="round" stroke-linejoin="round" d="M23.7259,49.8921c-1.7551-1.7652-3-6.2059-3-11.4048,0-4.3732.881-8.21,2.2054-10.3689" style="stroke-width: 2.66067px;"/>
          <path fill="none" stroke="#000" stroke-linecap="round" stroke-linejoin="round" d="M49.28,49.8921c1.7551-1.7652,3-6.2059,3-11.4048,0-4.3732-.8811-8.21-2.2055-10.3689" style="stroke-width: 2.66067px;"/>
          <path fill="none" stroke="#000" stroke-linecap="round" stroke-linejoin="round" d="M39.2155,53.4552c2.33-2.343,3.9822-8.237,3.9822-15.1375,0-5.8044-1.1693-10.8967-2.9273-13.7624" style="stroke-width: 2.66067px;"/>
        </g>
      </g>
    </g>
  </g>
</svg>